<?xml version="1.0" encoding="utf-8"?>
<!-- Generator: Adobe Illustrator 28.1.0, SVG Export Plug-In . SVG Version: 6.00 Build 0)  -->
<svg version="1.1" id="Layer_1" xmlns="http://www.w3.org/2000/svg" xmlns:xlink="http://www.w3.org/1999/xlink" x="0px" y="0px"
	 viewBox="0 0 40 54.21" style="enable-background:new 0 0 40 54.21;" xml:space="preserve">
<style type="text/css">
	.st0{fill:#E4BEA3;}
	.st2{fill:#FFFFFF;}
	.st15{fill:#DEC0A6;}
</style>
<g>
	<g>
		<path class="st15" d="M3.42,18.3c1.93-3.34,4.97-4.18,7.75-7.35s2.31-5.14,5.05-8.91s6.26-2.13,8.74,3.4
			c4.73,10.58,4.54,21.27,0.33,31.92c-2,5.05-4.77,9.68-8.58,13.63c-4.26,4.42-7.4,4.31-11.24-0.46
			c-4.78-5.94-6.08-13.06-5.23-18.42S1.49,21.64,3.42,18.3z"/>
		<g>
			<path class="st2" d="M7.73,34.81c0.33-0.5,0.98-0.7,1.49-0.43c0.3,0.16,0.6,0.32,0.88,0.5c0.53,0.3,0.7,0.98,0.41,1.56
				c-0.1,0.23-0.3,0.38-0.54,0.45c-0.26,0.07-0.54,0.03-0.76-0.12c-0.32-0.2-0.69-0.42-1.12-0.65c-0.23-0.13-0.4-0.34-0.47-0.59
				C7.57,35.28,7.6,35.03,7.73,34.81z"/>
		</g>
	</g>
</g>
</svg>