<?xml version="1.0" encoding="utf-8"?>
<!-- Generator: Adobe Illustrator 28.1.0, SVG Export Plug-In . SVG Version: 6.00 Build 0)  -->
<svg version="1.1" id="Layer_1" xmlns="http://www.w3.org/2000/svg" xmlns:xlink="http://www.w3.org/1999/xlink" x="0px" y="0px"
	 viewBox="0 0 110.25 85.53" style="enable-background:new 0 0 110.25 85.53;" xml:space="preserve">
<style type="text/css">
	.st0{fill:#FFFFFF;}
	.st1{fill:#DEC0A6;}
	.st2{fill:url(#SVGID_1_);}
	.st3{fill:#F6F3EC;}
	.st4{fill:#DBD6CD;}
	.st5{fill:#906769;}
	.st6{fill:none;}
	.st7{fill:#E2E89D;}
	.st8{fill:#F1F4CE;}
	.st9{fill:#BCBEC0;}
	.st10{fill:#D1D3D4;}
	.st11{fill:#A6A198;}
	.st12{fill:#414042;}
	.st13{fill:#949598;}
	.st14{fill:#A7A9AB;}
	.st15{fill:#C0A788;}
	.st16{fill-rule:evenodd;clip-rule:evenodd;fill:#DEC0A6;}
	.st17{fill:#F2E7DA;}
	.st18{fill:#FEFEFE;}
	.st19{fill:#97867A;}
	.st20{fill:#FFFFFF;stroke:#000000;stroke-width:0.5;stroke-linecap:round;stroke-linejoin:round;stroke-miterlimit:10;}
	.st21{stroke:#FFFFFF;stroke-width:0.5;stroke-miterlimit:10;}
	.st22{fill:none;stroke:#DA3832;stroke-width:0.5;stroke-linecap:round;stroke-linejoin:round;stroke-miterlimit:10;}
	.st23{fill:#97867A;stroke:#97867A;stroke-width:0.5;stroke-linecap:round;stroke-linejoin:round;stroke-miterlimit:10;}
	.st24{fill:url(#SVGID_00000060007252349900676050000015439170086856943014_);}
	.st25{fill:url(#SVGID_00000003076455620355315500000005863741279556447652_);}
	.st26{fill:url(#SVGID_00000061450685282916789140000001909569350360888709_);}
	.st27{fill:url(#SVGID_00000144327272036492909520000009347703621302761092_);}
	.st28{fill:url(#SVGID_00000007395154592670747200000016377764660702426030_);}
	.st29{fill:url(#SVGID_00000065036446958798630710000001006323256099222964_);}
	.st30{fill:url(#SVGID_00000084516295476848448940000008641448319635719853_);}
	.st31{fill:url(#SVGID_00000100382214005971721520000011424490415690584220_);}
	.st32{fill:url(#SVGID_00000173157527050750485000000000918575455973234106_);}
	.st33{fill:url(#SVGID_00000101785851554450612460000005332261532110809988_);}
	.st34{fill:url(#SVGID_00000126303940673247822600000012466833514759483803_);}
	.st35{fill:url(#SVGID_00000130611830660806958940000007208185675804635062_);}
	.st36{fill:url(#SVGID_00000030480624992027711350000010338775889123796355_);}
	.st37{fill:url(#SVGID_00000111157061232390291270000008690813987208841655_);}
	.st38{fill:url(#SVGID_00000082328636727909426930000016805149779659877272_);}
	.st39{fill:url(#SVGID_00000131327482139465168900000000034893541998887838_);}
	.st40{fill:url(#SVGID_00000096028965307656730160000010570650726580744103_);}
	.st41{fill:url(#SVGID_00000000196279420664617250000010646475381457645231_);}
	.st42{fill:url(#SVGID_00000169551652209901234300000003346847217377156998_);}
	.st43{fill:url(#SVGID_00000058576295918213447000000017681131599242107320_);}
	.st44{fill:url(#SVGID_00000117677420247944682040000006229927302428967826_);}
	.st45{fill:url(#SVGID_00000045576962041852487620000016369361512821439401_);}
	.st46{fill:url(#SVGID_00000072275479729835690250000000678583246297857435_);}
	.st47{fill:url(#SVGID_00000001658019640938340140000012301888846289628318_);}
	.st48{fill:url(#SVGID_00000036231384033833906180000003764192590227903913_);}
	.st49{fill:url(#SVGID_00000091017447734951242960000004301796304259767442_);}
	.st50{fill:url(#SVGID_00000012464829842305818910000000000216726403103385_);}
	.st51{fill:url(#SVGID_00000093879356864137325060000007913454225807393452_);}
	.st52{fill:url(#SVGID_00000005263954729859521050000000441513547404212652_);}
	.st53{fill:url(#SVGID_00000103231756306247437340000014752454269914731962_);}
	.st54{fill:url(#SVGID_00000089556004236973475170000013516082487841021568_);}
	.st55{fill:url(#SVGID_00000000935054032410361210000013050183361818890901_);}
	.st56{fill:url(#SVGID_00000036249647437367432380000004600801070561206941_);}
	.st57{fill:url(#SVGID_00000116913902276044923070000002667412929663987389_);}
	.st58{fill:url(#SVGID_00000023978094858879377310000013178007095827136407_);}
	.st59{fill:url(#SVGID_00000145744813378317148380000011637296424482091420_);}
	.st60{fill:url(#SVGID_00000130622322675290910400000010575699414278039176_);}
	.st61{fill:url(#SVGID_00000165223439272149200530000006228202980878328490_);}
	.st62{fill:url(#SVGID_00000141439173674271839260000008737467566035778462_);}
	.st63{fill:url(#SVGID_00000114067445906978617100000009010551323296344969_);}
	.st64{fill:url(#SVGID_00000126317915205907328510000009649575830709544093_);}
	.st65{fill:url(#SVGID_00000094590107780547417830000007351593548227332012_);}
	.st66{fill:url(#SVGID_00000114759890663451990000000010028774537423274378_);}
	.st67{fill:url(#SVGID_00000091728374382605933900000010566499458852859776_);}
	.st68{fill:url(#SVGID_00000134938795331801507420000011523440212188768932_);}
	.st69{fill:url(#SVGID_00000109710280510953499220000008470824328517568682_);}
	.st70{fill:url(#SVGID_00000006709263475054137110000018395012867367533742_);}
	.st71{fill:url(#SVGID_00000182516250363238038490000000124597408979373449_);}
	.st72{fill:url(#SVGID_00000009564245781423953680000014351541703116731836_);}
	.st73{fill:url(#SVGID_00000103956908536168973590000018407846502513478025_);}
	.st74{fill:url(#SVGID_00000069388151288237680080000004692155495387901353_);}
	.st75{fill:url(#SVGID_00000079486936520865915240000017156650118787044776_);}
	.st76{fill:url(#SVGID_00000127744850969774951080000007277087085962427541_);}
	.st77{fill:url(#SVGID_00000036236280617845741920000015055669757540847268_);}
	.st78{fill:url(#SVGID_00000137849500540690055130000009127724400471928194_);}
	.st79{fill:url(#SVGID_00000021828236329169341080000005582950419231183289_);}
	.st80{fill:url(#SVGID_00000078031067867936895930000001263142754375554977_);}
	.st81{fill:url(#SVGID_00000117676889674790322460000015298969092853867945_);}
	.st82{fill:url(#SVGID_00000073714021617920043910000015854626724672084653_);}
	.st83{fill:url(#SVGID_00000006679911551299603560000000424050468723768468_);}
	.st84{fill:url(#SVGID_00000116212972660547884520000007120272724626327962_);}
	.st85{fill:url(#SVGID_00000011740102451615692900000003059857485561000873_);}
	.st86{fill:url(#SVGID_00000163073133055442870870000009011885790392872846_);}
	.st87{fill:url(#SVGID_00000108271765134206985800000013945873642666234276_);}
	.st88{fill:url(#SVGID_00000013194800322433946480000009214302803499550880_);}
	.st89{fill:url(#SVGID_00000060001423158382790880000007492884085827215504_);}
	.st90{fill:url(#SVGID_00000049940026343186027650000005954115692310187956_);}
	.st91{fill:url(#SVGID_00000141448495579336675350000005421398802335183008_);}
	.st92{fill:url(#SVGID_00000128462217835998394220000006445063333087818408_);}
	.st93{fill:url(#SVGID_00000071537341082205962720000010367996826493009290_);}
	.st94{fill:url(#SVGID_00000127002305084554670360000012777527804970622626_);}
	.st95{fill:url(#SVGID_00000083793009733906254730000007860491389963900605_);}
	.st96{fill:url(#SVGID_00000097476413717887793260000010992505646655369887_);}
	.st97{fill:url(#SVGID_00000135676432355596805460000008806746847925264060_);}
	.st98{fill:url(#SVGID_00000145016470894248990200000011648398473226303408_);}
	.st99{fill:url(#SVGID_00000160183882845939644600000016396545795435099568_);}
	.st100{fill:url(#SVGID_00000039135382362274506680000005792211509072446396_);}
	.st101{fill:url(#SVGID_00000139272832524440222390000002086915119844598661_);}
	.st102{fill:url(#SVGID_00000079474149625204055180000005477151138060225947_);}
	.st103{fill:url(#SVGID_00000151541596295279943320000001763515830856056490_);}
	.st104{fill:url(#SVGID_00000054973277989554403510000013854999865807751334_);}
	.st105{fill:url(#SVGID_00000064323053895994066850000016690975344113811099_);}
	.st106{fill:url(#SVGID_00000011723907263374649780000009150943333409579396_);}
	.st107{fill:url(#SVGID_00000160911786722689212330000017806557731455184062_);}
	.st108{fill:url(#SVGID_00000019665007539884284740000007611500411649167256_);}
	.st109{fill:url(#SVGID_00000106141226077095860720000017291617354516932271_);}
	.st110{fill:url(#SVGID_00000047746779804611900790000008311957712678728332_);}
	.st111{fill:url(#SVGID_00000020391879037119947640000002660621454941924264_);}
	.st112{fill:url(#SVGID_00000036940406081754452400000010977096946193946554_);}
	.st113{fill:url(#SVGID_00000080167051412648446060000011346423614157379767_);}
	.st114{fill:url(#SVGID_00000040577275190989991780000013253808721516678557_);}
	.st115{fill:url(#SVGID_00000084525008754079611570000008841905128303643567_);}
	.st116{fill:url(#SVGID_00000165927394174275435760000008659201078206163896_);}
	.st117{fill:url(#SVGID_00000029742465468845748930000008155568614203231116_);}
	.st118{fill:url(#SVGID_00000138541214782687895190000010288510548311102900_);}
	.st119{fill:url(#SVGID_00000098910558216516617720000005438204884852951740_);}
	.st120{fill:url(#SVGID_00000078009908682262902330000017630536054561620362_);}
	.st121{fill:url(#SVGID_00000008849363116578411060000010599491213612648333_);}
	.st122{fill:url(#SVGID_00000134960906092802664790000011825629245692102559_);}
	.st123{fill:url(#SVGID_00000152967208041145273450000004193080819171950998_);}
	.st124{fill:url(#SVGID_00000006707219695521460900000005928146649757065633_);}
	.st125{fill:url(#SVGID_00000060739579364348278000000005890115535698486183_);}
	.st126{fill:url(#SVGID_00000113344389387916266510000002953777260072113299_);}
	.st127{fill:url(#SVGID_00000150085859671031105040000017614090052008790920_);}
	.st128{fill:url(#SVGID_00000120528208180572380020000015476046345569992341_);}
	.st129{fill:url(#SVGID_00000153704094328526431700000012975507524914182796_);}
	.st130{fill:url(#SVGID_00000080192589276030984690000016687230339601396117_);}
	.st131{fill:url(#SVGID_00000100340582827331768720000016072533757493290626_);}
	.st132{fill:url(#SVGID_00000070116189669399235750000006735203685358769822_);}
	.st133{fill:url(#SVGID_00000093177912778941017700000003906059948211728802_);}
	.st134{fill:url(#SVGID_00000172421669937339302530000000646327924856054711_);}
	.st135{fill:url(#SVGID_00000038376325693236415900000013509327788570102426_);}
	.st136{fill:url(#SVGID_00000098212326553499842070000002455213697010117560_);}
	.st137{fill:url(#SVGID_00000168826344862138910220000007567349570508101530_);}
	.st138{fill:url(#SVGID_00000125594479933355170460000017426762229312814755_);}
	.st139{fill:url(#SVGID_00000043421242673228078440000000201629319239805594_);}
	.st140{fill:url(#SVGID_00000037691624661279358840000016304599926976248197_);}
	.st141{fill:url(#SVGID_00000119078558838844849310000007806266573315008942_);}
	.st142{fill:url(#SVGID_00000101066451304723198810000000459266976943018632_);}
	.st143{fill:url(#SVGID_00000183243728290095131780000000554897858728498066_);}
	.st144{fill:url(#SVGID_00000043447632721387100410000014782600056961043590_);}
	.st145{fill:url(#SVGID_00000151524558244509248790000018211283372762371485_);}
	.st146{fill:url(#SVGID_00000118383985858035471460000007010819792661086857_);}
	.st147{fill:url(#SVGID_00000034804108582577761050000007029005546442523556_);}
	.st148{fill:url(#SVGID_00000066489804790969089000000005417688282557432719_);}
	.st149{fill:url(#SVGID_00000133494696776273008650000015541003056921627819_);}
	.st150{fill:url(#SVGID_00000147188585034966614030000007603105656568624026_);}
	.st151{fill:url(#SVGID_00000093895856622737808440000013472456668957901242_);}
	.st152{fill:url(#SVGID_00000021080108458441724790000010002933399943038887_);}
	.st153{fill:url(#SVGID_00000114055588159298940590000011195097279626359181_);}
	.st154{fill:url(#SVGID_00000068659711482284176490000011027054491338021269_);}
	.st155{fill:url(#SVGID_00000107582736364889353960000006320051351936698244_);}
	.st156{fill:url(#SVGID_00000017481639280633295000000005632917660373398912_);}
	.st157{fill:url(#SVGID_00000111183089287482901900000014188629199214987420_);}
	.st158{fill:url(#SVGID_00000019675039259105370350000008706336789432896162_);}
	.st159{fill:url(#SVGID_00000168832266984361904780000011937834273842501528_);}
	.st160{fill:url(#SVGID_00000090255030445776063450000006300348329272236697_);}
	.st161{fill:url(#SVGID_00000081616628900292690290000005961542119658821030_);}
	.st162{fill:url(#SVGID_00000021822358458177819630000007406022388355042471_);}
	.st163{fill:url(#SVGID_00000099638321540412991770000000362585207880754317_);}
	.st164{fill:url(#SVGID_00000032651058814156091920000015296222969942920839_);}
	.st165{fill:url(#SVGID_00000181799809327059223050000008189348863323534264_);}
	.st166{fill:url(#SVGID_00000016784375511822331890000000012440573380821679_);}
	.st167{fill:url(#SVGID_00000029742416035754063240000015907942594617264031_);}
	.st168{fill:url(#SVGID_00000016762839742410592250000016469356975597736331_);}
	.st169{fill:url(#SVGID_00000091702740218291743700000004474130586137630897_);}
	.st170{fill:url(#SVGID_00000098935500239955907540000015649616214408573831_);}
	.st171{fill:url(#SVGID_00000159443973433872119820000011843979663530226825_);}
	.st172{fill:url(#SVGID_00000113310958301196791890000017589931049099840664_);}
	.st173{fill:url(#SVGID_00000039111243129243312050000007594736529187465137_);}
	.st174{fill:url(#SVGID_00000169531500326662498100000008428491319729451421_);}
	.st175{fill:url(#SVGID_00000131353393943621715520000017896944334580602559_);}
	.st176{fill:url(#SVGID_00000037677626307584235880000003303215257626840737_);}
	.st177{fill:url(#SVGID_00000148649752245536340140000015477666036907076226_);}
	.st178{fill:url(#SVGID_00000095317001770362819970000017710663822879854005_);}
	.st179{fill:url(#SVGID_00000041986218080955160240000010212965743028257459_);}
	.st180{fill:url(#SVGID_00000032621870761037267770000006286306063480754348_);}
	.st181{fill:url(#SVGID_00000173881383876992193540000015675951397168342941_);}
	.st182{fill:url(#SVGID_00000160173921928214601760000018225656963398019476_);}
	.st183{fill:url(#SVGID_00000093893660884244393260000009465216306517183667_);}
	.st184{fill:url(#SVGID_00000025439960713048468380000007810759094778999709_);}
	.st185{fill:url(#SVGID_00000082368515052481881030000016392966027666602149_);}
	.st186{fill:url(#SVGID_00000137126304659321067670000005342755079509916081_);}
	.st187{fill:url(#SVGID_00000130641215061345339080000004943551609122274724_);}
	.st188{fill:url(#SVGID_00000106851270007556395370000017666962844384720009_);}
	.st189{fill:url(#SVGID_00000015323767983846768090000011978460156430811559_);}
	.st190{fill:url(#SVGID_00000023280019920674187860000014922751975838554551_);}
	.st191{fill:url(#SVGID_00000019664193882957661860000008475305041107134655_);}
	.st192{fill:url(#SVGID_00000178905736669172713730000013805087994079851426_);}
	.st193{fill:url(#SVGID_00000135661734817500525190000005441716927426133642_);}
	.st194{fill:url(#SVGID_00000064347163173901047160000007716447122293360030_);}
	.st195{fill:url(#SVGID_00000110460579805398918720000010014417186165777576_);}
	.st196{fill:url(#SVGID_00000114789874116753546340000002079392313684517268_);}
	.st197{fill:url(#SVGID_00000028327306825921680470000017118626994515552700_);}
	.st198{fill:url(#SVGID_00000123433711749132877220000006868440760138409373_);}
	.st199{fill:url(#SVGID_00000142162968940777832940000011928282120266595250_);}
	.st200{fill:url(#SVGID_00000111173701192022139560000014564139415201151890_);}
	.st201{fill:url(#SVGID_00000128482296392635703950000006921431124787029140_);}
	.st202{fill:url(#SVGID_00000121975795601256921710000009264731523275230358_);}
	.st203{fill:url(#SVGID_00000024681676175154126840000007217209831563469238_);}
	.st204{fill:url(#SVGID_00000004510625086797503240000018400466829430419134_);}
	.st205{fill:url(#SVGID_00000172427568351234115800000001398805552837636539_);}
	.st206{fill:url(#SVGID_00000148633781385778070590000016637900653292040345_);}
	.st207{fill:url(#SVGID_00000021802818002081505080000010669966111254818954_);}
	.st208{fill:url(#SVGID_00000163786423346315321220000016759027616037439901_);}
	.st209{fill:url(#SVGID_00000139282520042289742340000010271837676783636414_);}
	.st210{fill:url(#SVGID_00000172422450750990474410000010182283226032107670_);}
	.st211{fill:url(#SVGID_00000073682167865858582380000008188396632128100750_);}
	.st212{fill:url(#SVGID_00000029765602243981157060000006688842710664000390_);}
	.st213{fill:url(#SVGID_00000110473293235671882170000016374452156289590931_);}
	.st214{fill:url(#SVGID_00000151524321807159171370000003294009703055342526_);}
	.st215{fill:url(#SVGID_00000098915532346382777180000007940380194481557897_);}
	.st216{fill:url(#SVGID_00000142150956331858840480000017435526787347310269_);}
	.st217{fill:url(#SVGID_00000061450090598821471320000006094661616740253593_);}
	.st218{fill:url(#SVGID_00000032613374191247424270000015599366753212936072_);}
	.st219{fill:url(#SVGID_00000096775878617766279620000006021275221993129614_);}
	.st220{fill:url(#SVGID_00000181772236002212946990000000433983646525536416_);}
	.st221{fill:url(#SVGID_00000138575386662559361850000001717219243039258261_);}
	.st222{fill:url(#SVGID_00000071523799820724065940000016641199200699680900_);}
	.st223{fill:url(#SVGID_00000165213231688923250800000013497414621405228696_);}
	.st224{fill:url(#SVGID_00000073692814768538815380000008975630315832728979_);}
	.st225{fill:url(#SVGID_00000150799341367183176480000001590547603346983600_);}
	.st226{fill:url(#SVGID_00000108995261526054912760000004142591334080401033_);}
	.st227{fill:url(#SVGID_00000013171406594798306660000007467016806195644292_);}
	.st228{fill:url(#SVGID_00000162347335574516429020000018292522765981329340_);}
	.st229{fill:url(#SVGID_00000090986884499518125700000007679116185798419900_);}
	.st230{fill:url(#SVGID_00000041985060778332396780000004788602175375296703_);}
	.st231{fill:url(#SVGID_00000099657505345096269490000017035204314636785832_);}
	.st232{fill:url(#SVGID_00000046338636858944193410000001718817324045963920_);}
	.st233{fill:url(#SVGID_00000042709481303322211780000012409500089492192899_);}
	.st234{fill:url(#SVGID_00000003787709496258234340000001370137947491106441_);}
	.st235{fill:url(#SVGID_00000080912766440358286950000015940213457793103014_);}
	.st236{fill:url(#SVGID_00000032639579877056217150000010073127080107468956_);}
	.st237{fill:url(#SVGID_00000165946175248268931420000018116847553730237617_);}
	.st238{fill:url(#SVGID_00000076578891159446237960000001606786531117984411_);}
	.st239{fill:url(#SVGID_00000020396645731363705620000008266099282758561701_);}
	.st240{fill:url(#SVGID_00000137091505919248046450000007003059470227325576_);}
	.st241{fill:url(#SVGID_00000002372497780081932160000005563074449890267271_);}
	.st242{fill:url(#SVGID_00000130639523189633889170000008503794262277524922_);}
	.st243{fill:url(#SVGID_00000139987375487263057700000008277996966154135190_);}
	.st244{fill:url(#SVGID_00000154398859844880460510000003094514312226353576_);}
	.st245{fill:url(#SVGID_00000049182832976026448750000003691021579839094161_);}
	.st246{fill:url(#SVGID_00000027583156183767747790000005717738296605017731_);}
	.st247{fill:url(#SVGID_00000152256563069775429210000011063468086180051121_);}
	.st248{fill:url(#SVGID_00000162341389494875161300000005763049321137638296_);}
	.st249{fill:url(#SVGID_00000115477062140577798610000016297812146042520726_);}
	.st250{fill:url(#SVGID_00000062876548292715743310000017357508687288227752_);}
	.st251{fill:url(#SVGID_00000137101248637072656930000011483495448702121645_);}
	.st252{fill:url(#SVGID_00000003811580317518991030000005375855091230938802_);}
	.st253{fill:url(#SVGID_00000094610783261358322080000017610639544689055116_);}
	.st254{fill:url(#SVGID_00000050656289835228450120000010737641938938405815_);}
	.st255{fill:url(#SVGID_00000170262471001085474780000005204021238938985405_);}
	.st256{fill:url(#SVGID_00000098215298482527581310000001052639268481165243_);}
	.st257{fill:url(#SVGID_00000046311777874516801080000015908001713967500684_);}
	.st258{fill:url(#SVGID_00000023972925649010019120000016158186551363392644_);}
	.st259{fill:url(#SVGID_00000049940991885744381790000017705616653283698105_);}
	.st260{fill:url(#SVGID_00000098906895838366897860000002864257476625248656_);}
	.st261{fill:url(#SVGID_00000144318054660852313900000013912520617735806652_);}
	.st262{fill:url(#SVGID_00000180327238870458457270000013344485466716736442_);}
	.st263{fill:url(#SVGID_00000165203582289081766760000007005901931550089358_);}
	.st264{fill:url(#SVGID_00000142892293568365601820000007589111596979933319_);}
	.st265{fill:url(#SVGID_00000008869384832346400840000014712771531065167037_);}
	.st266{fill:url(#SVGID_00000170280092770900760560000014153792801002118585_);}
	.st267{fill:url(#SVGID_00000164493595136369731510000016243724782256340403_);}
	.st268{fill:url(#SVGID_00000016067517825260957700000001088674215877257604_);}
	.st269{fill:url(#SVGID_00000052792926092441409390000001546259547849267353_);}
	.st270{fill:url(#SVGID_00000022548714340061902880000007301435426944958628_);}
	.st271{fill:url(#SVGID_00000015322607564480817450000017652305302977420453_);}
	.st272{fill:url(#SVGID_00000118387145851866111930000018388115605143475366_);}
	.st273{fill:url(#SVGID_00000111151599546876153550000014755401923273351566_);}
	.st274{fill:url(#SVGID_00000183963635411724371080000001190930785101692310_);}
	.st275{fill:url(#SVGID_00000078006957698071495540000000876119366099918761_);}
	.st276{fill:url(#SVGID_00000005262180175024615580000014692154326311119269_);}
	.st277{fill:url(#SVGID_00000052080709946413510000000010908334529520392584_);}
	.st278{fill:url(#SVGID_00000175289229796884727940000008798967937586933159_);}
	.st279{fill:url(#SVGID_00000019666763102193565270000006134201397144209028_);}
	.st280{fill:url(#SVGID_00000044158787901362901110000007286556081574787976_);}
	.st281{fill:url(#SVGID_00000071560544774597415420000005637232371624157072_);}
	.st282{fill:url(#SVGID_00000115496257855117169050000005129147761935835315_);}
	.st283{fill:url(#SVGID_00000119117306640864292860000004516692623152480928_);}
	.st284{fill:url(#SVGID_00000009565920624930608920000011225554644550968980_);}
	.st285{fill:url(#SVGID_00000139978421083156691370000006412235990989487290_);}
	.st286{fill:url(#SVGID_00000117671583030668088330000013195039246970543760_);}
	.st287{fill:url(#SVGID_00000170259368200241175030000001704002288285268639_);}
	.st288{fill:url(#SVGID_00000116939482228991511290000010175454929927650981_);}
	.st289{fill:url(#SVGID_00000170265239497237689290000009218159951878108835_);}
	.st290{fill:url(#SVGID_00000054264294722862867800000007562141392458792120_);}
	.st291{fill:url(#SVGID_00000139281834457573963430000005843463238216863364_);}
	.st292{fill:url(#SVGID_00000008121916076641751560000002453610380407489455_);}
	.st293{fill:url(#SVGID_00000025404949275072920240000012934977241461836685_);}
	.st294{fill:url(#SVGID_00000170252424997831757830000017316526962603447483_);}
	.st295{fill:url(#SVGID_00000002360976719889197530000011489875497616862868_);}
	.st296{fill:url(#SVGID_00000164481507100333581130000011137661515784670341_);}
	.st297{fill:url(#SVGID_00000022533724307728972930000013974789041586525327_);}
	.st298{fill:url(#SVGID_00000025420151521559943510000017230601287074344326_);}
	.st299{fill:url(#SVGID_00000111193164450742442030000016961033226206988438_);}
	.st300{fill:url(#SVGID_00000142893449382312092940000008369733796458577297_);}
	.st301{fill:url(#SVGID_00000045581340142660943660000017193436560503073963_);}
	.st302{fill:url(#SVGID_00000143592262380392309690000005525134306209253809_);}
	.st303{fill:url(#SVGID_00000039842398401945846040000008844752684981058466_);}
	.st304{fill:url(#SVGID_00000113346560992288613580000008529505721856523668_);}
	.st305{fill:url(#SVGID_00000104697020113991335540000015345102130317149323_);}
	.st306{fill:url(#SVGID_00000164472774134296120250000002643593591471152016_);}
	.st307{fill:url(#SVGID_00000079458167939938824320000007478990090252970891_);}
	.st308{fill:url(#SVGID_00000062907045842948621320000004681021416758139020_);}
	.st309{fill:url(#SVGID_00000109751514893232802870000009832870589605911478_);}
	.st310{fill:url(#SVGID_00000183230135181822902110000013543441300656397246_);}
	.st311{fill:url(#SVGID_00000026879325066727039700000005390383270831633597_);}
	.st312{fill:url(#SVGID_00000137094387085216394330000016318382751791749002_);}
	.st313{fill:url(#SVGID_00000018932060619497437700000001011375222617613958_);}
	.st314{fill:url(#SVGID_00000037659060629363263090000017293472672293165444_);}
	.st315{fill:url(#SVGID_00000028301906019019848200000016587937290314849409_);}
	.st316{fill:url(#SVGID_00000060715338305781359770000016536445747210418322_);}
	.st317{fill:url(#SVGID_00000032629442671583218390000012968058082639036041_);}
	.st318{fill:url(#SVGID_00000160899523243182745770000011479747408371254179_);}
	.st319{fill:url(#SVGID_00000067925290452279849430000018415498670979432639_);}
	.st320{fill:url(#SVGID_00000113332904654177586970000003151533695222765497_);}
	.st321{fill:url(#SVGID_00000000933304803052920840000005130138470514582913_);}
	.st322{fill:url(#SVGID_00000054978775831985127130000004589625983241070726_);}
	.st323{fill:url(#SVGID_00000062166039708256335470000011858694577796899242_);}
	.st324{fill:url(#SVGID_00000111161913654969573190000008988459068051974053_);}
	.st325{fill:url(#SVGID_00000016063142769333384810000003866088942744152991_);}
	.st326{fill:url(#SVGID_00000022550739314040301650000017013016390472914364_);}
	.st327{fill:url(#SVGID_00000127753319622715424540000001701084036811425210_);}
	.st328{fill:url(#SVGID_00000123442234104571169550000014649432797241861512_);}
	.st329{fill:url(#SVGID_00000093137536884521197150000007278162397117725576_);}
	.st330{fill:url(#SVGID_00000075129623053200468640000010422610183485558705_);}
	.st331{fill:url(#SVGID_00000067200693046962004400000018055494088378404769_);}
	.st332{fill:url(#SVGID_00000158022120260108047280000018208171468384819587_);}
	.st333{fill:url(#SVGID_00000023278033552056302040000016250789621952729263_);}
	.st334{fill:url(#SVGID_00000095317449846251013940000014464425624282025106_);}
	.st335{fill:url(#SVGID_00000087388665948906878360000004722075813820979093_);}
	.st336{fill:url(#SVGID_00000033356825178104440490000017625480238924118447_);}
	.st337{fill:url(#SVGID_00000037692516595341075990000015276055407490528446_);}
	.st338{fill:url(#SVGID_00000106148750574312561270000004992654549298796183_);}
	.st339{fill:url(#SVGID_00000093142198085824551460000009039723080290294667_);}
	.st340{fill:url(#SVGID_00000049904838164086103070000003658972001239390393_);}
	.st341{fill:url(#SVGID_00000024724249100305774290000007089054941153659551_);}
	.st342{fill:url(#SVGID_00000036219130811179535610000017248588764415917981_);}
	.st343{fill:url(#SVGID_00000150785692602437493960000008561822260873940103_);}
	.st344{fill:url(#SVGID_00000067229644934845848520000010102078148835778213_);}
	.st345{fill:url(#SVGID_00000003064648284523938130000010213022566661252017_);}
	.st346{fill:url(#SVGID_00000007418637928804435620000004425120528591908783_);}
	.st347{fill:url(#SVGID_00000103245634899814243840000017601103105488404106_);}
	.st348{fill:url(#SVGID_00000075858433516252724730000006651718092778456704_);}
	.st349{fill:url(#SVGID_00000121969234259026398440000002749062394061640105_);}
	.st350{fill:url(#SVGID_00000137107527739213475550000010573784128490210233_);}
	.st351{fill:url(#SVGID_00000180348565513622106170000016585828515895657110_);}
	.st352{fill:url(#SVGID_00000118376202282352964660000015714257674994643078_);}
	.st353{fill:url(#SVGID_00000002359503631931094860000009453948314486756024_);}
	.st354{fill:url(#SVGID_00000138549294165553734790000015813152134831159951_);}
	.st355{fill:url(#SVGID_00000047054707441107228350000007821207556871620736_);}
	.st356{fill:url(#SVGID_00000023967493149213117670000000301007488233137838_);}
	.st357{fill:url(#SVGID_00000163777428133169083470000015494277866593750955_);}
	.st358{fill:url(#SVGID_00000178922950253567940970000003166069914206882232_);}
	.st359{fill:url(#SVGID_00000137117211556317450040000011755619348297010333_);}
	.st360{fill:url(#SVGID_00000142171790863618936430000000233405642404943290_);}
	.st361{fill:url(#SVGID_00000149360666900694915020000010947877287086900403_);}
	.st362{fill:url(#SVGID_00000092442468666903416540000005009523031953058972_);}
	.st363{fill:url(#SVGID_00000024683355422403967050000011993747498702245777_);}
	.st364{fill:url(#SVGID_00000183958392201951984870000000046064238188833191_);}
	.st365{fill:url(#SVGID_00000120526217578280657840000000447562368619864454_);}
	.st366{fill:url(#SVGID_00000003796772131584791140000008941047335933574587_);}
	.st367{fill:url(#SVGID_00000009573145253443887170000013812909476710577542_);}
	.st368{fill:url(#SVGID_00000085247764774199264120000004072787449250668976_);}
	.st369{fill:url(#SVGID_00000000219978805735684420000011124148709194337694_);}
	.st370{fill:url(#SVGID_00000112621335151885402270000012624425814944288167_);}
	.st371{fill:url(#SVGID_00000119819405162508183780000007100525660918679471_);}
	.st372{fill:url(#SVGID_00000023239192319752130980000000648789337934584200_);}
	.st373{fill:url(#SVGID_00000093147971374188809760000013759442686373979834_);}
	.st374{fill:url(#SVGID_00000178895142020789572990000012429529807760799645_);}
	.st375{fill:url(#SVGID_00000142887705449582119490000010735152010585670059_);}
	.st376{fill:url(#SVGID_00000024706369126462697870000012387322315711418280_);}
	.st377{fill:url(#SVGID_00000031894594255733247300000004224037038950132402_);}
	.st378{fill:url(#SVGID_00000139278311706560382990000015533271515829105550_);}
	.st379{fill:url(#SVGID_00000153670370491934932650000012525433643232600193_);}
	.st380{fill:url(#SVGID_00000100382816990052622890000003072595803770553740_);}
	.st381{fill:url(#SVGID_00000178188017854411349770000008314458428359449749_);}
	.st382{fill:url(#SVGID_00000090256516280689593300000002294274560569723802_);}
	.st383{fill:url(#SVGID_00000097470413003287846620000010557913220342940298_);}
	.st384{fill:url(#SVGID_00000052804503559099879060000009898205888741925524_);}
	.st385{fill:url(#SVGID_00000034064341646045847730000016704111117451870909_);}
	.st386{fill:url(#SVGID_00000014634679737357790630000010119434202903636390_);}
	.st387{fill:url(#SVGID_00000158021432402605908980000002797566975443332273_);}
	.st388{fill:url(#SVGID_00000145035629347700298960000011359533925473763714_);}
	.st389{fill:url(#SVGID_00000092444971022446282140000011330695755902469279_);}
	.st390{fill:url(#SVGID_00000032650651981290551750000001589709950490277506_);}
	.st391{fill:url(#SVGID_00000057855747480068558760000012859955471730688409_);}
	.st392{fill:url(#SVGID_00000020371382801075585740000016750740222001896099_);}
	.st393{fill:url(#SVGID_00000049205866932670349240000009068851591986250384_);}
	.st394{fill:url(#SVGID_00000008869029003928305910000014944919906688510607_);}
	.st395{fill:url(#SVGID_00000087377166803292116960000008600054045063199417_);}
	.st396{fill:url(#SVGID_00000011726684020210390150000011815985753901821084_);}
	.st397{fill:url(#SVGID_00000181771243861573612540000015866798616574201241_);}
	.st398{fill:url(#SVGID_00000008844798573442594430000004751895888489075632_);}
	.st399{fill:url(#SVGID_00000015344131792697099910000007926759521697916855_);}
	.st400{fill:url(#SVGID_00000072980790135422759700000013936248428935903875_);}
	.st401{fill:url(#SVGID_00000136404216174808084740000015665531841875390865_);}
	.st402{fill:url(#SVGID_00000126297176839684110320000014092149389023446420_);}
	.st403{fill:url(#SVGID_00000177464564468921423020000001330460804632602028_);}
	.st404{fill:url(#SVGID_00000115491694814355396680000013206400964350290612_);}
	.st405{fill:url(#SVGID_00000117637238474801952890000016724216141352436140_);}
	.st406{fill:url(#SVGID_00000151540980952680173700000013604477372660996249_);}
	.st407{fill:url(#SVGID_00000095320939074471818010000010879566840286034096_);}
	.st408{fill:url(#SVGID_00000132805916868308256440000017328534470419493776_);}
	.st409{fill:url(#SVGID_00000093866764470302248080000015795369497495802789_);}
	.st410{fill:url(#SVGID_00000083057148774718956250000007077656600271963024_);}
	.st411{fill:url(#SVGID_00000163042901058710286660000002648754506708791700_);}
	.st412{fill:url(#SVGID_00000176042637781445052340000008598217868300940948_);}
	.st413{fill:url(#SVGID_00000128462886017910897540000000760331112843141527_);}
	.st414{fill:url(#SVGID_00000131353894788499525040000011422692952483581574_);}
	.st415{fill:url(#SVGID_00000057845801945779334310000010851596696118021507_);}
	.st416{fill:url(#SVGID_00000160896343661928696670000010735674872733174422_);}
	.st417{fill:url(#SVGID_00000172405035821044123100000014910204615890252946_);}
	.st418{fill:url(#SVGID_00000129910697197207095170000012291023774844125601_);}
	.st419{fill:url(#SVGID_00000062164456801249925580000012771221554790047929_);}
	.st420{fill:url(#SVGID_00000000195099388225214000000012571792257375848628_);}
	.st421{fill:url(#SVGID_00000073705307971370566550000013816463415304498562_);}
	.st422{fill:url(#SVGID_00000106133259582002685190000016720503899772994994_);}
	.st423{fill:url(#SVGID_00000029022250595742076700000017236803315297648014_);}
	.st424{fill:url(#SVGID_00000010275425393419868730000006541777066415173271_);}
	.st425{fill:url(#SVGID_00000176729380118896326880000004309907534637758127_);}
	.st426{fill:url(#SVGID_00000028314973923440566800000016919040266664707509_);}
	.st427{fill:url(#SVGID_00000079481769821122371470000010228657538577910175_);}
	.st428{fill:url(#SVGID_00000119096486419508872440000016696417163185019787_);}
	.st429{fill:url(#SVGID_00000118366391254119635950000007075978478907448502_);}
	.st430{fill:url(#SVGID_00000171696557399794518480000015725738416789240496_);}
	.st431{fill:url(#SVGID_00000085938793772616643170000005667532264744004019_);}
	.st432{fill:url(#SVGID_00000123426117831369706790000008736136942837524366_);}
	.st433{fill:url(#SVGID_00000080921693370730777430000001887542020376746884_);}
	.st434{fill:url(#SVGID_00000177460221132071524300000015272730577302677131_);}
	.st435{fill:url(#SVGID_00000072999198217505836130000015791947975511352754_);}
	.st436{fill:url(#SVGID_00000079469899518239959280000004971623640603886268_);}
	.st437{fill:url(#SVGID_00000005984020525438385650000013543163295322699916_);}
	.st438{fill:url(#SVGID_00000064313925651296759510000008412581017619338673_);}
	.st439{fill:url(#SVGID_00000143576787488129824330000001060589719373125044_);}
	.st440{fill:url(#SVGID_00000103244184614963745910000013118323460681064356_);}
	.st441{fill:url(#SVGID_00000014632057803546857270000001290661856821861252_);}
	.st442{fill:url(#SVGID_00000149373844810716387000000002133046297025397938_);}
	.st443{fill:url(#SVGID_00000069357277588465776960000005522261837570158504_);}
	.st444{fill:url(#SVGID_00000141444054851898666870000017856737638777160607_);}
	.st445{fill:url(#SVGID_00000052097837662456670030000011869016954594886573_);}
	.st446{fill:url(#SVGID_00000000218229250310421730000017469392445170213511_);}
	.st447{fill:url(#SVGID_00000052787403247437552620000017009779033049337233_);}
	.st448{fill:url(#SVGID_00000050661914249745266980000001724521984017524634_);}
	.st449{fill:url(#SVGID_00000027580237355080892380000016479310640532856454_);}
	.st450{fill:url(#SVGID_00000007408840444343727470000003209623307335742374_);}
	.st451{stroke:#FFFFFF;stroke-width:0.25;stroke-miterlimit:10;}
	.st452{fill:url(#SVGID_00000168098700013235461040000005416100507548309169_);}
	.st453{fill:none;stroke:#DEC0A6;stroke-width:0.25;stroke-miterlimit:10;}
	.st454{fill:#E6E7E8;}
	.st455{fill:#659E5D;}
	.st456{fill:#FCFCFB;}
	.st457{fill:#A27D56;}
	.st458{fill:url(#SVGID_00000160185575613459263200000009443041533593134230_);}
	.st459{fill:url(#SVGID_00000019641703539577734850000004910578957734382979_);}
	.st460{fill:#7AA759;}
	.st461{fill:#5B884A;}
	.st462{fill:#9DC374;}
	.st463{fill:#C6D289;}
	.st464{fill:#F0EFED;}
	.st465{fill:#374B31;}
	.st466{fill:#845F41;}
	.st467{fill:url(#SVGID_00000158027459938968874050000001465979383589144988_);}
	.st468{fill:none;stroke:#DA3832;stroke-miterlimit:10;}
	.st469{fill:none;stroke:#000000;stroke-miterlimit:10;}
	.st470{fill:#DA3832;}
	.st471{fill:#573A4E;}
	.st472{stroke:#000000;stroke-width:0.5;stroke-linecap:round;stroke-linejoin:round;stroke-miterlimit:10;}
	.st473{stroke:#000000;stroke-width:0.25;stroke-linecap:round;stroke-linejoin:round;stroke-miterlimit:10;}
	.st474{fill:#906769;stroke:#000000;stroke-width:0.5;stroke-linecap:round;stroke-linejoin:round;stroke-miterlimit:10;}
	.st475{stroke:#000000;stroke-linecap:round;stroke-linejoin:round;stroke-miterlimit:10;}
	.st476{fill:#FFFFFF;stroke:#FFFFFF;stroke-width:0.5;stroke-miterlimit:10;}
	.st477{fill:#DA3832;stroke:#DA3832;stroke-linecap:round;stroke-linejoin:round;stroke-miterlimit:10;}
	.st478{fill:#AAC978;}
	.st479{fill:#D7CFC6;}
	.st480{fill:#82B160;}
	.st481{fill:#648D4B;}
	.st482{fill:#DEC0A6;stroke:#DEC0A6;stroke-width:0.5;stroke-linecap:round;stroke-linejoin:round;stroke-miterlimit:10;}
	.st483{fill:none;stroke:#000000;stroke-width:0.1;stroke-linecap:round;stroke-linejoin:round;stroke-miterlimit:10;}
	.st484{fill:none;stroke:#000000;stroke-width:1.5;stroke-linecap:round;stroke-linejoin:round;stroke-miterlimit:10;}
	.st485{fill:none;stroke:#DA3832;stroke-width:5;stroke-linecap:round;stroke-linejoin:round;}
	.st486{fill-rule:evenodd;clip-rule:evenodd;}
	.st487{fill:#99C555;}
	.st488{fill:#D8DF50;}
	.st489{fill:none;stroke:#000000;stroke-width:2;stroke-linecap:round;stroke-linejoin:round;stroke-miterlimit:10;}
	.st490{fill:#84B555;}
	.st491{fill:#FEFEFD;}
	.st492{fill:none;stroke:#DA3832;stroke-width:0.5;stroke-miterlimit:10;}
	.st493{fill:url(#SVGID_00000083077885331515880440000000781736702634487461_);}
	.st494{fill:#BD9C72;}
	.st495{stroke:#000000;stroke-miterlimit:10;}
	.st496{fill:none;stroke:#DA3832;stroke-width:5;stroke-linecap:round;stroke-linejoin:round;stroke-dasharray:11.5144,11.5144;}
	.st497{fill:none;stroke:#DA3832;stroke-width:5;stroke-linecap:round;stroke-linejoin:round;stroke-dasharray:12,12;}
	.st498{fill:none;stroke:#DA3832;stroke-width:5;stroke-linecap:round;stroke-linejoin:round;stroke-dasharray:11.5556,11.5556;}
	.st499{stroke:#000000;stroke-width:0.5;stroke-miterlimit:10;}
	.st500{stroke:#000000;stroke-width:0.25;stroke-miterlimit:10;}
	.st501{fill:url(#SVGID_00000007421533041212227290000004940172088641162681_);}
	.st502{fill:url(#SVGID_00000142896461831122740840000012255711753277205144_);}
</style>
<g>
	<ellipse class="st13" cx="30.37" cy="81.93" rx="17.12" ry="3.6"/>
	<g>
		<ellipse class="st3" cx="30.95" cy="38.57" rx="19.24" ry="32.63"/>
		<path class="st4" d="M30.95,66.5c-13.96,0-18.75-13.17-19.2-29.92c-0.02,0.66-0.04,1.32-0.04,1.99c0,18.02,4.53,32.63,19.24,32.63
			s19.24-14.61,19.24-32.63c0-0.67-0.02-1.33-0.04-1.99C49.7,53.33,44.91,66.5,30.95,66.5z"/>
		<path d="M30.95,72.2c-13.43,0-20.24-11.32-20.24-33.63c0-18.55,9.08-33.63,20.24-33.63s20.24,15.09,20.24,33.63
			C51.19,60.88,44.38,72.2,30.95,72.2z M30.95,6.93c-10.06,0-18.24,14.19-18.24,31.63c0,20.99,6.14,31.63,18.24,31.63
			c12.1,0,18.24-10.64,18.24-31.63C49.19,21.12,41.01,6.93,30.95,6.93z"/>
	</g>
	<g>
		<g>
			<g>
				<path d="M23.85,69.56c-0.42,0.15-0.64,0.62-0.48,1.04c0.02,0.05,2.31,9.03,2.01,9.99c-0.3,0.96-1.89-0.35-3.06-0.12
					s-1.28,1.04-1.14,1.62c0.21,0.87,3.05,0.99,4.01,0.86c0.95-0.13,1.46-0.32,1.79-0.47c0.49-0.22,0.31-1.56-0.06-4.48
					c-0.37-2.92-1.51-7-1.6-7.24C25.16,70.35,24.27,69.4,23.85,69.56z"/>
				<path d="M24.33,83.2c-1.22,0-3.14-0.19-3.34-1.05c-0.1-0.44-0.05-0.86,0.16-1.18c0.22-0.35,0.61-0.58,1.14-0.69
					c0.56-0.11,1.17,0.09,1.71,0.26c0.43,0.14,0.87,0.28,1.07,0.18c0.04-0.02,0.09-0.06,0.13-0.18c0.26-0.85-1.85-8.98-2.02-9.89
					c-0.09-0.22-0.08-0.5,0.04-0.74c0.11-0.25,0.31-0.43,0.56-0.53l0,0c2.47-0.72,3.15,7.1,3.34,8.61l0.01,0.1
					c0.4,3.14,0.55,4.31-0.07,4.59c-0.33,0.15-0.85,0.35-1.85,0.49C25.05,83.18,24.72,83.2,24.33,83.2z"/>
			</g>
		</g>
	</g>
	<g>
		<g>
			<g>
				<path d="M37.63,69.57c0.42,0.15,0.64,0.62,0.48,1.04c-0.02,0.05-2.31,9.03-2.01,9.99c0.3,0.96,1.89-0.35,3.06-0.12
					c1.17,0.23,1.28,1.04,1.14,1.62c-0.21,0.87-3.05,0.99-4.01,0.86c-0.95-0.13-1.46-0.32-1.79-0.47c-0.49-0.22-0.31-1.56,0.06-4.48
					c0.37-2.92,1.51-7,1.6-7.24C36.31,70.36,37.21,69.41,37.63,69.57z"/>
				<path d="M36.26,83.16c-1-0.14-1.51-0.33-1.85-0.49c-0.61-0.28-0.47-1.46-0.07-4.59l0.01-0.1c0.19-1.5,0.87-9.33,3.34-8.61l0,0
					c0.25,0.09,0.45,0.28,0.56,0.53c0.11,0.25,0.13,0.52,0.04,0.74c-0.16,0.91-2.28,9.05-2.02,9.89c0.04,0.12,0.09,0.16,0.13,0.18
					c0.2,0.11,0.64-0.04,1.07-0.18c0.54-0.17,1.15-0.37,1.71-0.26c0.54,0.11,0.92,0.34,1.14,0.69c0.2,0.32,0.26,0.74,0.16,1.18
					c-0.21,0.86-2.12,1.05-3.34,1.05C36.75,83.21,36.43,83.19,36.26,83.16z"/>
			</g>
		</g>
	</g>
	<g>
		<path class="st499" d="M2.38,37.19c0.15,2.57,1.9,5.66,4.6,6.91c2.7,1.26,5.16,1.96,5.16,1.05c0-0.91-2.77-1.25-4.72-2.41
			c-1.95-1.17-3.6-2.35-3.33-6.22c0.17-0.45,0.33-1.38,1.37-1.4c0.41-0.01,0.74-0.36,0.73-0.77c-0.01-0.41-0.35-0.74-0.77-0.73
			c-0.78,0.02-1.35,0.3-1.76,0.67c-0.04-0.02-0.07-0.04-0.11-0.05c0,0-0.52-0.15-0.71-0.57c-0.21-0.45,0-1.07,0.21-1.51
			c0.18-0.37,0.02-0.82-0.35-1C2.39,31,2.02,31.09,1.81,31.33c-0.04,0.05-0.08,0.11-0.11,0.17c-0.05,0.09-0.07,0.18-0.11,0.28
			c-0.23-0.02-0.47,0.06-0.63,0.24c-0.02,0.02-0.04,0.05-0.06,0.08c-0.66,0.99-0.93,2.56-0.24,3.65S2.15,36.6,2.38,37.19z"/>
	</g>
	<g>
		<path d="M30.88,43.47c-5.62-0.4-5.09-4.18-4.12-4.87c0.97-0.69,1.76,0.92,4.31,0.92s3.68-1.16,4.58-0.44S36.5,43.87,30.88,43.47z"
			/>
	</g>
	<g>
		<path class="st5" d="M30.9,40.48c2.51,0.07,3.53-1.05,4.03-0.35c0.5,0.7-1.09,2.57-4.17,2.37c-3.08-0.2-4.02-2-3.48-2.69
			C27.81,39.12,28.39,40.41,30.9,40.48z"/>
	</g>
	<g>
		<path d="M22.14,36.6c-1.24,0.11-1.78,0.3-1.88-0.62c-0.09-0.89,0.64-1.64,1.68-1.72c1.05-0.08,1.8,0.47,1.87,1.36
			C23.88,36.5,23.43,36.49,22.14,36.6z"/>
	</g>
	<g>
		<path d="M40.02,36.84c-1.24-0.12-1.65-0.12-1.57-1.04c0.07-0.9,0.93-1.5,1.96-1.38c1.05,0.12,1.68,0.79,1.59,1.69
			C41.91,36.97,41.31,36.96,40.02,36.84z"/>
	</g>
	<path class="st4" d="M32.28,44.96c0,0.52-0.86,0.94-1.91,0.94c-1.06,0-1.91-0.42-1.91-0.94s0.86-0.43,1.91-0.43
		C31.43,44.54,32.28,44.44,32.28,44.96z"/>
	<g>
		<path class="st0" d="M44.94,37.34c0.26,3.27-0.28,7.19-0.07,10.93c0.23,5.16-0.19,7.85,0.33,7.84c0.52,0,0.91-2.8,1.31-6.4
			c0.32-2.88-0.02-7.17-0.02-10c0.03-2.77,0.09-4.42-0.18-6.63c-0.56-4.59-2.16-9.54-2.68-10.44c-0.54-0.98-1.95-1.5-1.12,3.72
			C42.93,29,44.66,34.02,44.94,37.34z"/>
	</g>
	<g>
		<g>
			<g>
				<path class="st0" d="M34.62,10.81c1.26-0.21,2.41,0.54,3.02,1.54c0.39,1.09,0.6,2.14,1.64,2.82c1.79,1.46,2.78,3.5,2.43,5.87
					c-0.01,0.07-0.07,0.11-0.14,0.1c-1.06-0.66-1.71-1.55-2.26-2.42c-0.87-1.31-1.23-3.02-1.97-4.04s-1.87-1.76-2.77-3.66
					C34.51,10.94,34.53,10.83,34.62,10.81L34.62,10.81z"/>
			</g>
		</g>
	</g>
	<g>
		<path class="st472" d="M54.61,46.63c-1.95,1.17-4.72,1.51-4.72,2.41c0,0.91,2.46,0.21,5.16-1.05L54.61,46.63z"/>
	</g>
</g>
<g>
	<ellipse class="st13" cx="72.73" cy="81.55" rx="17.12" ry="3.6"/>
	<g>
		<g>
			<path class="st3" d="M93.1,38.57c0,18.02-4.53,32.63-19.24,32.63S54.61,56.59,54.61,38.57S62.8,6.43,73.85,1.62
				S93.1,20.54,93.1,38.57z"/>
			<path class="st4" d="M73.85,66.18c-13.82,0-18.66-12.91-19.19-29.42c-0.02,0.6-0.05,1.2-0.05,1.81
				c0,18.02,4.53,32.63,19.24,32.63c14.71,0,19.24-14.61,19.24-32.63c0-0.71-0.02-1.44-0.04-2.16
				C92.58,53.09,87.78,66.18,73.85,66.18z"/>
			<path d="M73.85,72.2c-13.43,0-20.24-11.32-20.24-33.63c0-17.76,7.79-32.62,19.84-37.86c2.64-1.15,5.37-0.89,7.87,0.75
				C89.21,6.63,94.1,24.75,94.1,38.57C94.1,60.88,87.28,72.2,73.85,72.2z M76.74,1.99c-0.82,0-1.64,0.18-2.49,0.55
				C63.1,7.38,55.61,21.86,55.61,38.57c0,20.99,6.14,31.63,18.24,31.63c12.1,0,18.24-10.64,18.24-31.63
				c0-13.35-4.77-30.78-11.87-35.44C79.07,2.37,77.91,1.99,76.74,1.99z"/>
		</g>
	</g>
	<g>
		<g>
			<g>
				<path d="M68.75,69.76c-0.44,0.02-0.79,0.41-0.77,0.86c0,0.06-0.48,9.31-1.05,10.14s-1.7-0.9-2.89-1.02
					c-1.18-0.12-1.53,0.61-1.57,1.21c-0.06,0.9,2.62,1.85,3.57,2.01s1.48,0.13,1.85,0.08c0.53-0.07,0.76-1.4,1.28-4.3
					c0.51-2.9,0.64-7.13,0.62-7.39C69.78,70.9,69.2,69.73,68.75,69.76z"/>
				<path d="M65.16,82.92c-1.17-0.36-2.94-1.11-2.88-2c0.03-0.45,0.21-0.83,0.5-1.08c0.32-0.27,0.75-0.37,1.3-0.31
					c0.57,0.06,1.09,0.43,1.56,0.76c0.37,0.26,0.74,0.53,0.97,0.48c0.04-0.01,0.11-0.03,0.18-0.13c0.5-0.73,0.9-9.13,1.01-10.04
					c-0.02-0.24,0.08-0.5,0.26-0.7c0.18-0.2,0.43-0.32,0.7-0.33l0,0c2.58,0.04,0.9,7.72,0.63,9.21l-0.02,0.1
					c-0.55,3.11-0.76,4.28-1.43,4.36c-0.37,0.05-0.91,0.08-1.91-0.08C65.85,83.11,65.54,83.04,65.16,82.92z"/>
			</g>
		</g>
	</g>
	<g>
		<g>
			<g>
				<path d="M80.53,69.57c0.42,0.15,0.64,0.62,0.48,1.04c-0.02,0.05-2.31,9.03-2.01,9.99c0.3,0.96,1.89-0.35,3.06-0.12
					s1.28,1.04,1.14,1.62c-0.21,0.87-3.05,0.99-4.01,0.86c-0.95-0.13-1.46-0.32-1.79-0.47c-0.49-0.22-0.31-1.56,0.06-4.48
					c0.37-2.92,1.51-7,1.6-7.24C79.21,70.36,80.11,69.41,80.53,69.57z"/>
				<path d="M79.16,83.16c-1-0.14-1.51-0.33-1.85-0.49c-0.61-0.28-0.47-1.46-0.07-4.59l0.01-0.1c0.19-1.5,0.87-9.33,3.34-8.61l0,0
					c0.25,0.09,0.45,0.28,0.56,0.53c0.11,0.25,0.13,0.52,0.04,0.74c-0.16,0.91-2.28,9.05-2.02,9.89c0.04,0.12,0.09,0.16,0.13,0.18
					c0.2,0.11,0.64-0.04,1.07-0.18c0.54-0.17,1.15-0.37,1.71-0.26c0.54,0.11,0.92,0.34,1.14,0.69c0.2,0.32,0.26,0.74,0.16,1.18
					c-0.21,0.86-2.12,1.05-3.34,1.05C79.65,83.21,79.33,83.19,79.16,83.16z"/>
			</g>
		</g>
	</g>
	<g>
		<path class="st472" d="M49.88,43.76c2.7,1.26,5.16,1.96,5.16,1.05c0-0.91-2.77-1.25-4.72-2.41L49.88,43.76z"/>
	</g>
	<g>
		<path d="M65.04,35.65c-1.24,0.11-1.78,1.25-1.88,0.34c-0.09-0.89,0.64-1.64,1.68-1.72c1.05-0.08,1.8,0.47,1.87,1.36
			C66.78,36.5,66.33,35.53,65.04,35.65z"/>
	</g>
	<g>
		<path d="M83.12,35.85c-1.24-0.12-1.85,0.87-1.78-0.05c0.07-0.9,0.93-1.5,1.96-1.38c1.05,0.12,1.68,0.79,1.59,1.69
			C84.81,36.97,84.42,35.97,83.12,35.85z"/>
	</g>
	<path class="st4" d="M75.18,44.96c0,0.52-0.86,0.94-1.91,0.94s-1.91-0.42-1.91-0.94s0.86-0.43,1.91-0.43S75.18,44.44,75.18,44.96z"
		/>
	<g>
		<path class="st0" d="M88.14,36.15c0.26,3.27-0.28,7.19-0.07,10.93c0.23,5.16-0.19,7.85,0.33,7.84c0.52,0,0.91-2.8,1.31-6.4
			c0.32-2.88-0.02-7.17-0.02-10c0.03-2.77,0.09-4.42-0.18-6.63c-0.56-4.59-2.16-9.54-2.68-10.44c-0.54-0.98-1.95-1.5-1.12,3.72
			C86.14,27.82,87.86,32.83,88.14,36.15z"/>
	</g>
	<g>
		<g>
			<g>
				<path class="st0" d="M78.3,5.27c1.26-0.27,2.41,0.71,3.02,2c0.39,1.4,0.6,2.77,1.64,3.65c1.79,1.89,2.78,4.53,2.43,7.59
					c-0.01,0.09-0.07,0.15-0.14,0.13c-1.06-0.85-1.71-2.01-2.26-3.13c-0.87-1.7-1.23-3.91-1.97-5.23S79.14,8,78.24,5.53
					C78.19,5.45,78.2,5.3,78.3,5.27L78.3,5.27z"/>
			</g>
		</g>
	</g>
	<g>
		<g>
			<path class="st495" d="M109.23,29.36c-0.17-0.2-0.49-0.41-0.49-0.64c0.01-0.51-0.02-1.03,0.03-1.53c0.07-0.8-0.38-1.59-1.06-1.73
				c-2.5-0.51-4.87-0.5-7.41-0.33c-0.74,0.05-1.3,0.65-1.33,1.42c-0.02,0.54-0.09,1.08-0.11,1.62c-0.02,0.45-0.13,0.75-0.58,1.02
				c-1.11,0.66-1.16,2.58-0.09,3.27c0.39,0.25,0.35,2.14,0.43,2.56c0.27,1.38,0.91,2.46,2.41,2.65c0.55,0.07,0,2.4-1.69,3.39
				c-1.69,0.99-3.36,0.79-6.21,0.25l-0.02,0.87c0,0,3.02,0.88,5.93-0.1c2.91-0.98,2.89-3.32,3.49-3.8c0.62-0.49,2-0.33,2.85-0.42
				c0.92-0.09,1.88-0.79,2.27-1.63c0.38-0.73,0.57-1.46,0.7-1.98c0.13-0.51,0.4-0.63,0.72-0.92
				C109.96,32.5,109.95,30.26,109.23,29.36z M107.95,27.71c0.02,0.91,0.15,1.61-0.3,2.48c-0.23,0.44-0.31,1.75-0.27,2.28
				c0.08,1.06,0.16,1.33-0.13,2.34c-0.5,1.71-0.9,2.05-2.7,2.16c-1.42,0.09-2.84,0.11-4.17-0.61c-0.41-0.22-0.64-0.52-0.78-0.93
				c-0.29-0.81-0.4-1.65-0.41-2.51c0-0.3,0.08-0.51,0.31-0.74c0.9-0.91,1.01-2.17,0.06-3.01c-0.46-0.41-0.1-0.7-0.04-1.21
				c0.76,0.2,2.94,0.47,2.95,0.26c0-0.21-3.42-0.49-3.07-2.08c0.25-1.15,8.23-1.64,8.55,0.38c0.32,1.13-3.7,1.33-3.68,1.63
				S106.01,28.24,107.95,27.71z"/>
		</g>
		<g>
			<path class="st499" d="M105.44,16.23c0.71,0.09,0.4,0.8,0.39,1.28c0,0.14-0.03,0.28-0.07,0.42c-0.09,0.31-0.23,0.63-0.61,0.59
				c-0.42-0.05-0.39-0.42-0.39-0.73C104.75,17.64,104.7,16.13,105.44,16.23z"/>
		</g>
		<g>
			<path class="st499" d="M105.22,22.6c0.13-0.5,0.41-0.92,0.77-1.27c0.17-0.16,0.38-0.25,0.61-0.08c0.23,0.16,0.2,0.39,0.11,0.61
				c-0.17,0.45-0.42,0.86-0.75,1.21c-0.16,0.17-0.36,0.31-0.6,0.16C105.15,23.08,105.19,22.84,105.22,22.6z"/>
		</g>
		<g>
			<path class="st499" d="M101.79,20.27c0.01-0.45,0.17-0.77,0.54-0.69c0.71,0.15,0.58,0.8,0.63,1.31c0.04,0.33-0.18,0.58-0.52,0.51
				C101.76,21.26,101.87,20.66,101.79,20.27z"/>
		</g>
	</g>
	<g>
		<g>
			<path class="st7" d="M106.01,32.64c0.09,0.55-0.08,2.41-0.6,2.57c-0.52,0.17-3.67,0.57-4.15-0.08c-0.47-0.65-0.65-2.73-0.65-2.52
				C101.9,33.84,105.92,32.09,106.01,32.64z"/>
		</g>
	</g>
	<g>
		<g>
			<path class="st8" d="M102.41,32.75c-0.99,0.02-1.85-0.53-1.79-0.14c0.06,0.39,0.76,1.04,1.24,1.2c1.51,0.44,4.16-0.65,4.16-1.17
				S103.39,32.73,102.41,32.75z"/>
		</g>
	</g>
	<path d="M73.53,43.43c-2.29-0.26-3.91-1.74-4.16-3.82c-0.12-1-0.03-1.06,0.97-1.13c2.36-0.16,4.7,0.08,7.04,0.34
		c0.97,0.11,1.11,0.31,0.94,1.28C77.92,42.4,76.03,43.71,73.53,43.43z"/>
	<g>
		<path class="st5" d="M75.12,39.55c0.44,0.05,0.89,0.12,1.33,0.14c0.45,0.02,0.53,0.24,0.44,0.62c-0.21,0.85-0.71,1.46-1.53,1.78
			c-1.63,0.65-3.75-0.17-4.28-1.66c-0.32-0.91-0.23-1.11,0.71-1.09C72.9,39.36,75.12,39.54,75.12,39.55z"/>
	</g>
</g>
</svg>
