<?xml version="1.0" encoding="utf-8"?>
<!-- Generator: Adobe Illustrator 28.1.0, SVG Export Plug-In . SVG Version: 6.00 Build 0)  -->
<svg version="1.1" id="Layer_1" xmlns="http://www.w3.org/2000/svg" xmlns:xlink="http://www.w3.org/1999/xlink" x="0px" y="0px"
	 viewBox="0 0 51.06 92.78" style="enable-background:new 0 0 51.06 92.78;" xml:space="preserve">
<style type="text/css">
	.st0{fill:#DDBFA6;}
	.st1{fill:#BCBEC0;}
	.st2{fill:#A8A9AB;stroke:#A8A9AB;stroke-width:0.5;stroke-miterlimit:10;}
	.st3{fill:#D1D3D4;}
	.st4{fill:#A8A9AB;}
	.st5{fill:#F6F3EC;}
	.st6{fill:#DBD6CD;}
	.st7{fill:#8F6769;}
	.st8{fill:none;}
	.st9{fill:#A6A198;}
	.st10{fill:#414042;}
	.st11{fill:#949598;}
	.st12{fill:#E2E89D;}
	.st13{fill:#F1F4CE;}
	.st14{stroke:#000000;stroke-width:0.25;stroke-linecap:round;stroke-linejoin:round;stroke-miterlimit:10;}
	.st15{fill:#8F6769;stroke:#000000;stroke-width:0.5;stroke-linecap:round;stroke-linejoin:round;stroke-miterlimit:10;}
	.st16{stroke:#000000;stroke-linecap:round;stroke-linejoin:round;stroke-miterlimit:10;}
	.st17{stroke:#000000;stroke-width:0.5;stroke-linecap:round;stroke-linejoin:round;stroke-miterlimit:10;}
	.st18{fill:#679D5D;}
	.st19{fill:#FCFCFB;}
	.st20{fill:#A17D56;}
	.st21{fill:#FFFFFF;}
	.st22{fill:#BC9B72;}
	.st23{stroke:#000000;stroke-width:0.5;stroke-miterlimit:10;}
	.st24{stroke:#000000;stroke-miterlimit:10;}
	.st25{fill:none;stroke:#000000;stroke-width:1.5;stroke-linecap:round;stroke-miterlimit:10;}
	.st26{fill:#FFFFFF;stroke:#000000;stroke-miterlimit:10;}
	.st27{fill:none;stroke:#000000;stroke-miterlimit:10;}
	.st28{fill:none;stroke:#000000;stroke-linecap:round;stroke-linejoin:round;stroke-miterlimit:10;}
	.st29{fill:#BEA38D;stroke:#BEA38D;stroke-width:0.5;stroke-miterlimit:10;}
	.st30{fill:#BEA38D;}
	.st31{fill:#FFFFFF;stroke:#000000;stroke-width:2;stroke-linecap:round;stroke-linejoin:round;stroke-miterlimit:10;}
	.st32{fill:#58595B;stroke:#000000;stroke-width:2;stroke-linecap:round;stroke-linejoin:round;stroke-miterlimit:10;}
	.st33{fill:none;stroke:#000000;stroke-width:2;stroke-linecap:round;stroke-linejoin:round;stroke-miterlimit:10;}
	.st34{fill:#DAE49D;stroke:#000000;stroke-width:2;stroke-linecap:round;stroke-linejoin:round;stroke-miterlimit:10;}
	.st35{stroke:#000000;stroke-width:2;stroke-linecap:round;stroke-linejoin:round;stroke-miterlimit:10;}
	.st36{fill:#E3B3CE;stroke:#000000;stroke-width:2;stroke-linecap:round;stroke-linejoin:round;stroke-miterlimit:10;}
	.st37{fill:#58595B;}
	.st38{fill:#DAE49D;}
	.st39{fill:#E3B3CE;}
</style>
<g>
	<path class="st3" d="M20.88,85.35c9.45,0,17.12,2.1,17.12,4s-7.66,3.43-17.12,3.43S3.76,91.2,3.76,89.35S11.42,85.35,20.88,85.35z"
		/>
</g>
<g>
	<g>
		<g>
			<path class="st5" d="M41.24,42.63c0,19.81-4.53,35.86-19.24,35.86S2.76,62.44,2.76,42.63S10.95,7.31,22,2.03
				S41.24,22.83,41.24,42.63z"/>
		</g>
		<g>
			<path class="st6" d="M22,72.98C8.18,72.98,3.34,58.8,2.81,40.65c-0.02,0.66-0.05,1.32-0.05,1.99C2.76,62.44,7.29,78.5,22,78.5
				c14.71,0,19.24-16.06,19.24-35.86c0-0.78-0.02-1.58-0.04-2.38C40.73,58.59,35.92,72.98,22,72.98z"/>
		</g>
		<g>
			<path d="M22,79.6c-11.26,0-17.87-8.74-19.71-26.02c-0.36-3.33-0.53-6.98-0.53-10.95c0-19.52,7.79-35.85,19.84-41.61
				c2.64-1.26,5.37-0.98,7.87,0.83c7.89,5.69,12.77,25.6,12.77,40.78C42.24,67.16,35.43,79.6,22,79.6z M24.89,2.44
				c-0.82,0-1.64,0.2-2.49,0.6C11.25,8.37,3.76,24.28,3.76,42.63C3.76,65.7,9.9,77.4,22,77.4c12.1,0,18.24-11.7,18.24-34.77
				c0-14.68-4.77-33.83-11.87-38.95C27.22,2.85,26.06,2.44,24.89,2.44z"/>
			<path d="M22,79.85c-11.39,0-18.1-8.83-19.96-26.24c-0.35-3.33-0.53-7.02-0.53-10.97C1.51,23.02,9.35,6.6,21.5,0.8
				c2.73-1.31,5.54-1.01,8.12,0.85c7.95,5.73,12.88,25.74,12.88,40.99C42.49,67.33,35.6,79.85,22,79.85z M24.87,0.5
				c-1.05,0-2.11,0.25-3.16,0.75C9.74,6.97,2.01,23.21,2.01,42.63c0,3.94,0.18,7.61,0.53,10.92C4.37,70.67,10.91,79.35,22,79.35
				c13.27,0,19.99-12.35,19.99-36.71c0-15.13-4.84-34.94-12.67-40.58C27.89,1.02,26.39,0.5,24.87,0.5z M22,77.65
				c-12.27,0-18.49-11.78-18.49-35.02c0-18.45,7.55-34.45,18.78-39.82c2.14-1.02,4.18-0.81,6.23,0.67
				c7.16,5.16,11.97,24.41,11.97,39.15C40.49,65.87,34.27,77.65,22,77.65z M24.89,2.69c-0.77,0-1.57,0.2-2.38,0.58
				C11.44,8.55,4.01,24.37,4.01,42.63c0,22.9,6.05,34.52,17.99,34.52s17.99-11.61,17.99-34.52c0-14.62-4.73-33.67-11.77-38.74
				C27.1,3.08,26.01,2.69,24.89,2.69z"/>
		</g>
	</g>
</g>
<g>
	<g>
		<g>
			<g>
				<path d="M16.9,77.16c-0.44,0.02-0.79,0.41-0.77,0.86c0,0.06-0.48,9.31-1.05,10.14c-0.57,0.83-1.7-0.9-2.89-1.02
					c-1.18-0.12-1.53,0.61-1.57,1.21c-0.06,0.9,2.62,1.85,3.57,2.01c0.95,0.16,1.48,0.13,1.85,0.08c0.53-0.07,0.76-1.4,1.28-4.3
					c0.51-2.9,0.64-7.13,0.62-7.39C17.92,78.3,17.35,77.14,16.9,77.16z"/>
			</g>
			<g>
				<path d="M13.31,90.32c-1.17-0.36-2.94-1.11-2.88-2c0.03-0.45,0.21-0.83,0.5-1.08c0.32-0.27,0.75-0.37,1.3-0.31
					c0.57,0.06,1.09,0.43,1.56,0.76c0.37,0.26,0.74,0.53,0.97,0.48c0.04-0.01,0.11-0.03,0.18-0.13c0.5-0.73,0.9-9.13,1.01-10.04
					c-0.02-0.24,0.08-0.5,0.26-0.7c0.18-0.2,0.43-0.32,0.7-0.33l0,0c2.58,0.04,0.9,7.72,0.63,9.21l-0.02,0.1
					c-0.55,3.11-0.76,4.28-1.43,4.36c-0.37,0.05-0.91,0.08-1.91-0.08C14,90.52,13.69,90.44,13.31,90.32z"/>
			</g>
		</g>
	</g>
</g>
<g>
	<g>
		<g>
			<g>
				<path d="M28.68,76.98c0.42,0.15,0.64,0.62,0.48,1.04c-0.02,0.05-2.31,9.03-2.01,9.99s1.89-0.35,3.06-0.12s1.28,1.04,1.14,1.62
					c-0.21,0.87-3.05,0.99-4.01,0.86c-0.95-0.13-1.46-0.32-1.79-0.47c-0.49-0.22-0.31-1.56,0.06-4.48c0.37-2.92,1.51-7,1.6-7.24
					C27.36,77.76,28.26,76.82,28.68,76.98z"/>
			</g>
			<g>
				<path d="M27.31,90.57c-1-0.14-1.51-0.33-1.85-0.49c-0.61-0.28-0.47-1.46-0.07-4.59l0.01-0.1c0.19-1.5,0.87-9.33,3.34-8.61l0,0
					c0.25,0.09,0.45,0.28,0.56,0.53c0.11,0.25,0.13,0.52,0.04,0.74c-0.16,0.91-2.28,9.05-2.02,9.89c0.04,0.12,0.09,0.16,0.13,0.18
					c0.2,0.11,0.64-0.04,1.07-0.18c0.54-0.17,1.15-0.37,1.71-0.26c0.54,0.11,0.92,0.34,1.14,0.69c0.2,0.32,0.26,0.74,0.16,1.18
					c-0.21,0.86-2.12,1.05-3.34,1.05C27.8,90.61,27.48,90.59,27.31,90.57z"/>
			</g>
		</g>
	</g>
</g>
<g>
	<g>
		<path class="st21" d="M36.29,39.34c0.26,3.27-0.28,7.19-0.07,10.93c0.23,5.16-0.19,7.85,0.33,7.84c0.52,0,0.91-2.8,1.31-6.4
			c0.32-2.88-0.02-7.17-0.02-10c0.03-2.77,0.09-4.42-0.18-6.63c-0.56-4.59-2.16-9.54-2.68-10.44c-0.54-0.98-1.95-1.5-1.12,3.72
			C34.28,31.01,36.01,36.03,36.29,39.34z"/>
	</g>
</g>
<g>
	<g>
		<g>
			<g>
				<path class="st21" d="M26.45,7.5c1.26-0.27,2.41,0.71,3.02,2c0.39,1.4,0.6,2.77,1.64,3.65c1.79,1.89,2.78,4.53,2.43,7.59
					c-0.01,0.09-0.07,0.15-0.14,0.13c-1.06-0.85-1.71-2.01-2.26-3.13c-0.87-1.7-1.23-3.91-1.97-5.23c-0.74-1.33-1.87-2.27-2.77-4.74
					C26.34,7.68,26.35,7.53,26.45,7.5L26.45,7.5z"/>
			</g>
		</g>
	</g>
</g>
<g>
	<g>
		<g>
			<path d="M17.21,30.89c1.48-0.07,2.11-0.2,2.38,0.47c0.26,0.65-0.5,1.19-1.75,1.23c-1.26,0.04-2.26-0.37-2.5-1.02
				C15.11,30.95,15.66,30.96,17.21,30.89z"/>
		</g>
	</g>
	<g>
		<g>
			
				<ellipse transform="matrix(0.9997 -0.0235 0.0235 0.9997 -0.7892 0.7568)" class="st0" cx="31.82" cy="33.97" rx="2.69" ry="0.94"/>
		</g>
	</g>
	<g>
		<g>
			<path d="M30.72,30.98c-1.47-0.16-2.09-0.33-2.4,0.32c-0.3,0.64,0.43,1.22,1.67,1.34c1.26,0.12,2.28-0.22,2.56-0.86
				C32.81,31.17,32.26,31.15,30.72,30.98z"/>
		</g>
	</g>
	<g>
		<g>
			
				<ellipse transform="matrix(0.0492 -0.9988 0.9988 0.0492 -18.2272 48.7976)" class="st0" cx="16.52" cy="33.97" rx="0.94" ry="2.64"/>
		</g>
	</g>
	<g id="Rn160H.tif_00000178921012580019398390000001552222042315848360_">
		<g>
			<g>
				<path d="M16.48,33.5c-0.05,0.13-0.1,0.24-0.13,0.34c-0.07,0.25-0.01,0.48,0.12,0.69c0.24,0.4,0.61,0.6,1.06,0.67
					c0.58,0.1,1.13-0.04,1.66-0.28c0.43-0.2,0.84-0.43,1.26-0.64c0.41-0.21,0.83-0.38,1.28-0.47c0.92-0.17,1.7,0.08,2.32,0.8
					c0.06,0.07,0.11,0.15,0.15,0.23c0.04,0.06,0.06,0.07,0.1,0c0.28-0.48,0.71-0.79,1.22-0.98c0.33-0.12,0.66-0.11,1-0.08
					c0.62,0.06,1.18,0.31,1.72,0.6c0.49,0.26,0.97,0.55,1.51,0.71c0.51,0.15,1.03,0.21,1.54,0.02c0.45-0.16,0.77-0.47,0.87-0.96
					c0.04-0.18-0.01-0.34-0.08-0.5c-0.02-0.04-0.04-0.09-0.06-0.13c0.01-0.01,0.01-0.01,0.02-0.02c0.04,0.03,0.08,0.05,0.11,0.08
					c0.47,0.4,0.84,0.88,1.02,1.48c0.25,0.81,0.12,1.55-0.38,2.24c-0.48,0.66-1.13,1.08-1.87,1.36c-0.83,0.31-1.68,0.45-2.58,0.4
					c-0.72-0.04-1.38-0.25-2.02-0.55c-0.51-0.23-0.99-0.51-1.4-0.9c-0.26-0.24-0.46-0.52-0.61-0.84c-0.01-0.03-0.04-0.04-0.06-0.07
					c-0.02,0.02-0.04,0.03-0.05,0.05c-0.3,0.66-0.82,1.1-1.43,1.45c-0.54,0.31-1.11,0.55-1.7,0.72c-0.58,0.16-1.18,0.17-1.78,0.13
					c-0.77-0.06-1.51-0.27-2.2-0.61c-0.7-0.34-1.25-0.84-1.62-1.52c-0.38-0.7-0.36-1.43-0.04-2.16c0.21-0.48,0.54-0.87,0.93-1.2
					C16.4,33.56,16.43,33.54,16.48,33.5z"/>
			</g>
		</g>
	</g>
</g>
<g>
	<line class="st21" x1="26.59" y1="49.73" x2="22.57" y2="42.89"/>
	<path d="M26.59,50.73c-0.34,0-0.68-0.18-0.86-0.49l-4.02-6.83c-0.28-0.48-0.12-1.09,0.36-1.37c0.48-0.28,1.09-0.12,1.37,0.35
		l4.02,6.83c0.28,0.48,0.12,1.09-0.36,1.37C26.94,50.69,26.76,50.73,26.59,50.73z"/>
</g>
<g>
	<path class="st21" d="M26.17,54.36c0.53-8.76,3.81-12.09,3.81-12.09"/>
	<path d="M26.17,55.36c-0.02,0-0.04,0-0.06,0c-0.55-0.03-0.97-0.51-0.94-1.06c0.55-9.03,3.95-12.58,4.1-12.73
		c0.39-0.39,1.02-0.4,1.41-0.01s0.4,1.02,0.01,1.41c-0.03,0.03-3.03,3.25-3.53,11.45C27.13,54.96,26.69,55.36,26.17,55.36z"/>
</g>
<g>
	<path class="st37" d="M26.17,54.36c6.01-0.55,9.43-2.7,9.43-2.7l-0.04-7.86c0.4-0.06,2.77-0.15,2.77-0.15l-0.18,7.1
		c0,0,2.23-0.67,3.52-1.26c0,13.16-1.22,22.63-2.33,31.72c-2.93,0.92-21.66,4.28-34.51-0.8c-0.78-8.43-2.64-18.64-2.07-30.26
		c1.8,2.73,9.65,3.99,10.64,3.4c0.02-2.01-1-9.56-1-9.56l2.91,0.5l1.12,9.3C16.44,53.79,20.16,54.92,26.17,54.36z"/>
	<path d="M21.99,84.18c-5.78,0-12.1-0.69-17.53-2.83c-0.35-0.14-0.59-0.46-0.63-0.84c-0.19-2.11-0.46-4.33-0.73-6.68
		c-0.83-7-1.77-14.94-1.34-23.72c0.02-0.43,0.32-0.8,0.74-0.92c0.42-0.11,0.86,0.05,1.1,0.42c1.29,1.96,6.77,3.1,8.78,3.11
		c-0.16-2.65-0.95-8.52-0.96-8.59c-0.04-0.32,0.07-0.63,0.3-0.85c0.23-0.22,0.55-0.32,0.86-0.27l2.91,0.5
		c0.44,0.07,0.77,0.43,0.83,0.87l1.03,8.61c1.26,0.27,4.38,0.78,8.73,0.38c4.46-0.41,7.42-1.73,8.52-2.29l-0.03-7.27
		c0-0.5,0.36-0.92,0.86-0.99c0.42-0.06,2.31-0.13,2.88-0.16c0.27,0,0.54,0.09,0.74,0.29c0.2,0.19,0.3,0.46,0.3,0.74l-0.15,5.69
		c0.68-0.23,1.48-0.52,2.07-0.78c0.31-0.14,0.67-0.12,0.96,0.07c0.29,0.18,0.46,0.5,0.46,0.84c0,12.71-1.12,21.9-2.21,30.79
		l-0.13,1.05c-0.05,0.39-0.32,0.72-0.69,0.83C38.18,82.63,30.69,84.18,21.99,84.18z M5.77,79.71c12.02,4.46,28.77,1.66,32.66,0.72
		l0.05-0.38c1.04-8.48,2.11-17.24,2.19-29.07c-1.1,0.4-2.16,0.72-2.23,0.74c-0.31,0.09-0.64,0.03-0.89-0.16
		c-0.25-0.19-0.4-0.5-0.39-0.82l0.16-6.03c-0.26,0.01-0.52,0.02-0.74,0.04l0.03,6.92c0,0.35-0.18,0.67-0.47,0.85
		c-0.15,0.09-3.69,2.27-9.87,2.84c-6.13,0.57-9.95-0.56-10.11-0.61c-0.38-0.11-0.66-0.44-0.7-0.84l-1.03-8.56l-0.84-0.14
		c0.29,2.29,0.85,6.81,0.83,8.36c0,0.35-0.19,0.67-0.49,0.85c-1.29,0.77-7.03-0.14-10.23-2.13c-0.19,7.79,0.65,14.94,1.4,21.3
		C5.34,75.73,5.58,77.76,5.77,79.71z"/>
</g>
<g>
	<path class="st21" d="M2.39,39.17c1.17,0.45,8.65,3.67,20.18,3.72c-3.08,1.54-4.42,5.89-4.42,5.89S9.56,46.42,2.1,43.54
		C0.1,42.88,1.22,38.73,2.39,39.17z"/>
	<path d="M18.15,49.79c-0.09,0-0.18-0.01-0.27-0.04c-0.09-0.02-8.73-2.41-16.15-5.28c-0.85-0.28-1.46-1.02-1.66-2.07
		c-0.27-1.39,0.22-3.12,1.09-3.86c0.47-0.4,1.05-0.51,1.58-0.3l0.27,0.1c7.33,2.9,14.68,3.53,19.56,3.55c0.46,0,0.86,0.32,0.97,0.77
		c0.11,0.45-0.11,0.92-0.53,1.12c-2.65,1.32-3.9,5.25-3.91,5.29C18.98,49.51,18.58,49.79,18.15,49.79z M2.34,40.23
		c-0.2,0.34-0.43,1.1-0.3,1.78c0.09,0.48,0.3,0.55,0.37,0.57c5.99,2.31,12.75,4.31,15.13,4.99c0.39-0.95,1.13-2.46,2.28-3.75
		C14.97,43.59,8.65,42.72,2.34,40.23z M2.03,40.11L2.03,40.11L2.03,40.11L2.03,40.11z"/>
</g>
<g>
	<path class="st21" d="M42.01,39.68c-1.12,0.57-6.21,1.85-12.03,2.6c3.22,1.2,5.6,5.5,5.6,5.5s5.33-2.9,6.77-3.68
		C43.13,43,42.99,40.26,42.01,39.68z"/>
	<path d="M35.58,48.77c-0.35,0-0.69-0.19-0.88-0.52c-0.02-0.04-2.24-3.99-5.07-5.05c-0.43-0.16-0.7-0.59-0.64-1.05
		c0.05-0.46,0.41-0.82,0.87-0.88c5.96-0.77,10.79-2.03,11.7-2.5c0.3-0.16,0.67-0.14,0.96,0.03c0.59,0.35,1.01,1.04,1.21,2
		c0.24,1.14,0.16,2.84-0.57,3.86c-0.09,0.12-0.21,0.23-0.34,0.3c-1.44,0.77-6.76,3.68-6.76,3.68
		C35.91,48.74,35.74,48.77,35.58,48.77z M32.85,42.87c1.41,1.19,2.49,2.66,3.09,3.57c1.46-0.79,4.43-2.41,5.7-3.1
		c0.31-0.64,0.27-1.84,0.06-2.46C40.01,41.47,36.62,42.26,32.85,42.87z"/>
</g>
<g>
	<g>
		<polygon class="st21" points="16.23,61.28 12.42,64.21 12.23,66.4 13.86,69.4 18.1,70.08 21.59,68.09 24.25,66.52 23.73,64.2 
			21.24,60.41 19.92,59.58 		"/>
	</g>
	<g>
		<g>
			<path d="M22.23,68.76c0.07-0.23,0.08-0.58,0.26-0.69c0.4-0.24,0.78-0.51,1.2-0.73c0.65-0.34,1.05-1.07,0.82-1.67
				c-0.82-2.18-1.99-4-3.36-5.89c-0.4-0.55-1.14-0.68-1.75-0.33c-0.43,0.25-0.88,0.46-1.3,0.71c-0.36,0.21-0.65,0.27-1.07,0.05
				c-1.05-0.54-3.49,1.3-3.51,2.46c-0.01,0.42-1.02,1.13-1.4,1.15c-0.39,0.02-3.8-0.98-5.55-4.15c-1.75-3.18,2.76-9.56,1.32-10.63
				c-1.44-1.07-3.95,7.94-2.09,11.42s4.56,3.58,5.51,4.56c0.95,0.98,0.32,1.32,1.3,3.29c0.98,1.97,2.71,2.69,3.55,2.58
				c0.75-0.06,1.41-0.27,1.87-0.43s1.84-0.73,2.22-0.63C21.02,69.92,21.83,69.59,22.23,68.76z M22.88,66.96
				c-1.45,0.97-1.81,0.53-2.32,0.81s-0.45,0.86-2.34,1.57c-1.56,0.45-3.17,0.84-4.14-0.5c-0.76-1.05-1.47-2.14-1.56-3.52
				c-0.03-0.43,0.09-0.74,0.33-1.06c0.49-0.62,0.82-0.87,1.11-0.81c1.14,0.26,3.53-1.14,3.71-2.28c0.09-0.56,0.49-0.42,0.91-0.62
				c0.22,0.69,1.08,2.5,1.24,2.4s-1.29-2.88,0.11-3.39c1.01-0.37,5.28,5.56,3.88,6.79c-0.72,0.8-2.84-2.21-3.06-2.05
				S21.53,65.72,22.88,66.96z"/>
			<path d="M15.96,71.39c-1.05,0-2.79-0.83-3.81-2.87c-0.5-0.99-0.61-1.62-0.69-2.07c-0.08-0.47-0.12-0.68-0.52-1.09
				c-0.23-0.24-0.67-0.45-1.17-0.68c-1.29-0.61-3.06-1.45-4.42-3.99c-1.77-3.3,0.02-10.62,1.56-11.95c0.41-0.35,0.88-0.39,1.26-0.11
				c0.93,0.69,0.36,2.32-0.36,4.38c-0.75,2.16-1.69,4.84-0.83,6.41c1.62,2.94,4.74,3.87,5.1,3.89c0.2-0.03,0.84-0.49,0.92-0.71
				c0.01-0.88,1.02-1.91,1.95-2.47c0.52-0.31,1.51-0.78,2.28-0.38c0.23,0.12,0.34,0.11,0.59-0.04c0.23-0.13,0.46-0.25,0.7-0.38
				c0.21-0.11,0.41-0.21,0.61-0.33c0.84-0.48,1.85-0.28,2.4,0.47c1.25,1.72,2.53,3.63,3.43,6c0.31,0.82-0.15,1.83-1.06,2.29
				c-0.27,0.14-0.53,0.31-0.79,0.47l-0.31,0.2c-0.02,0.05-0.03,0.13-0.04,0.19c-0.02,0.09-0.04,0.18-0.06,0.25
				c-0.01,0.03-0.02,0.05-0.03,0.07c-0.46,0.96-1.42,1.47-2.5,1.35c-0.3-0.03-1.24,0.33-1.59,0.46c-0.17,0.06-0.31,0.12-0.42,0.15
				c-0.59,0.2-1.23,0.39-1.99,0.45C16.12,71.39,16.04,71.39,15.96,71.39z M14.99,70.12c0.44,0.22,0.84,0.29,1.09,0.26
				c0.76-0.06,1.42-0.29,1.78-0.4c0.05-0.02,0.12-0.04,0.2-0.07C17.13,70.17,15.99,70.44,14.99,70.12z M21.91,68.01
				c-0.34,0.11-0.59,0.12-0.79,0.14c-0.17,0.01-0.25,0.02-0.33,0.06c-0.08,0.05-0.14,0.11-0.26,0.24c-0.25,0.28-0.61,0.69-1.61,1.14
				c0.71-0.24,1.14-0.33,1.44-0.25c0.57,0.07,1.11-0.22,1.39-0.76c0.01-0.04,0.02-0.09,0.03-0.13
				C21.81,68.31,21.85,68.15,21.91,68.01z M13.84,63.96c0.01,0.01-0.16,0.06-0.61,0.63c-0.19,0.24-0.25,0.43-0.23,0.72
				c0.08,1.24,0.74,2.25,1.47,3.26c0.74,1.03,2.02,0.77,3.6,0.31c1.15-0.43,1.47-0.79,1.72-1.08c0.14-0.16,0.28-0.32,0.51-0.45
				c0.28-0.16,0.53-0.18,0.75-0.19c0.24-0.02,0.52-0.04,1-0.28c-0.75-0.73-1.87-1.92-1.84-2.51c0.01-0.15,0.11-0.35,0.23-0.44
				c0.43-0.32,0.77,0.04,1.39,0.7c0.36,0.38,1.32,1.39,1.65,1.39c0,0,0,0,0,0c0.09-0.11,0.15-0.44-0.03-1.06
				c-0.58-2.01-2.87-4.79-3.46-4.89c-0.49,0.2-0.04,1.61,0.16,2.21c0.17,0.52,0.29,0.89-0.09,1.12c-0.13,0.08-0.32,0.1-0.46,0.04
				c-0.45-0.17-1.04-1.53-1.33-2.26c-0.05,0.01-0.11,0.03-0.13,0.04c-0.12,0.87-0.96,1.55-1.45,1.88
				C15.94,63.62,14.73,64.16,13.84,63.96z M22.23,68.76L22.23,68.76L22.23,68.76z M22.75,68.49L22.75,68.49
				C22.75,68.49,22.75,68.49,22.75,68.49z M5.96,59.57c0.08,0.23,0.17,0.45,0.27,0.64c1.21,2.25,2.74,2.98,3.97,3.56
				c0.59,0.28,1.1,0.52,1.46,0.89c0.14,0.15,0.25,0.28,0.35,0.41c0.02-0.28,0.09-0.53,0.22-0.77c-0.03,0-0.06,0.01-0.08,0.01
				c-0.57,0.02-4.16-1.04-6.02-4.41C6.06,59.8,6.01,59.69,5.96,59.57z M13.95,62.96c0.04,0,0.07,0.01,0.11,0.02
				c0.45,0.1,1.34-0.2,2.08-0.7c0.58-0.39,0.98-0.85,1.03-1.17c0.02-0.11,0.05-0.21,0.08-0.29c-0.14-0.03-0.3-0.08-0.46-0.17
				c-0.19-0.1-0.67-0.03-1.31,0.35c-0.87,0.52-1.46,1.29-1.47,1.67C14.01,62.77,13.98,62.87,13.95,62.96z M7.58,49.43
				c-0.02,0.04-0.36,0.34-0.79,1.39c-0.72,1.75-1.32,4.72-1.14,7.08c-0.01-1.67,0.65-3.59,1.22-5.22
				C7.29,51.49,7.92,49.69,7.58,49.43z"/>
		</g>
	</g>
</g>
<g>
	<path d="M47.67,58.79c-0.19,0-0.39-0.06-0.56-0.17c-0.46-0.31-0.57-0.93-0.26-1.39c0.91-1.33,3.02-5.27,1.91-7.41
		c-1.12-2.17-5.54-2.91-7.15-3.01c-0.55-0.03-0.97-0.51-0.94-1.06s0.5-0.98,1.06-0.94c0.71,0.04,6.97,0.53,8.8,4.09
		c1.85,3.58-1.63,8.86-2.03,9.46C48.3,58.63,47.99,58.79,47.67,58.79z"/>
</g>
<g>
	<path class="st38" d="M25.29,58.39L25.2,62.6l4.83,0.06l2.44,2.85l14.54,0.23c0,0,1-0.64,0.86-5.02c-0.14-4.37-1.2-4.83-1.2-4.83
		l-14-0.23l-2.61,2.77L25.29,58.39z"/>
	<path d="M47.01,66.74c0,0-0.01,0-0.02,0l-14.54-0.23c-0.29,0-0.56-0.13-0.74-0.35l-2.15-2.51l-4.37-0.05
		c-0.27,0-0.52-0.11-0.71-0.3c-0.19-0.19-0.29-0.45-0.28-0.72l0.09-4.21c0.01-0.54,0.46-0.98,1-0.98c0,0,0,0,0.01,0l4.34,0.03
		l2.31-2.45c0.19-0.21,0.44-0.31,0.74-0.31l14,0.23c0.13,0,0.26,0.03,0.38,0.08c0.62,0.26,1.67,1.36,1.81,5.72
		c0.13,4.3-0.77,5.54-1.32,5.89C47.39,66.68,47.2,66.74,47.01,66.74z M46.34,65L46.34,65L46.34,65z M32.94,64.52l13.54,0.21
		c0.18-0.45,0.47-1.57,0.4-3.98c-0.08-2.47-0.46-3.5-0.66-3.87L33.1,56.66l-2.31,2.45c-0.19,0.2-0.45,0.31-0.73,0.31c0,0,0,0-0.01,0
		l-3.79-0.02l-0.04,2.22l3.82,0.04c0.29,0,0.56,0.13,0.75,0.35L32.94,64.52z M46.1,56.7L46.1,56.7L46.1,56.7z"/>
</g>
<g>
	<path class="st37" d="M8.49,68.01c-0.18,1.6-2.37,2.07-4.73,2.34"/>
	<path d="M3.76,71.35c-0.5,0-0.93-0.38-0.99-0.89c-0.06-0.55,0.33-1.04,0.88-1.11c1.6-0.18,3.75-0.54,3.86-1.46
		c0.06-0.55,0.55-0.95,1.11-0.88c0.55,0.06,0.94,0.56,0.88,1.11c-0.3,2.61-3.76,3.01-5.61,3.22C3.84,71.35,3.8,71.35,3.76,71.35z"/>
</g>
<g>
	<path class="st21" d="M35.03,64.55l0.06-3.85c0.02-1.1,0.92-1.99,2.03-1.97l5.28,0.08c1.1,0.02,1.99,0.92,1.97,2.03l-0.06,3.85
		L35.03,64.55z"/>
</g>
<g>
	<ellipse transform="matrix(0.9999 -0.0148 0.0148 0.9999 -0.8077 0.6167)" cx="41.24" cy="54.85" rx="2.28" ry="0.4"/>
	<path d="M41.02,56.25c-2.12,0-2.57-0.43-2.72-0.58c-0.19-0.19-0.33-0.51-0.34-0.77c-0.01-0.98,0.96-1.41,3.25-1.44
		c2.29-0.02,3.28,0.37,3.3,1.35c0,0,0,0,0,0c0.01,0.98-0.96,1.41-3.25,1.44C41.18,56.25,41.1,56.25,41.02,56.25z M42.97,55.59
		L42.97,55.59L42.97,55.59z"/>
</g>
<g>
	<ellipse transform="matrix(0.9999 -0.0148 0.0148 0.9999 -0.9766 0.5903)" cx="39.38" cy="66.25" rx="1.14" ry="0.51"/>
	<path d="M39.35,67.76c-0.43,0-0.83-0.08-1.17-0.22c-0.59-0.25-0.94-0.72-0.95-1.26c-0.01-0.33,0.13-0.66,0.38-0.92
		c0.37-0.38,1.01-0.61,1.75-0.62c0.44,0,0.87,0.07,1.22,0.22c0.59,0.25,0.94,0.72,0.95,1.26c0,0.34-0.13,0.66-0.38,0.92
		c-0.37,0.38-1.01,0.61-1.75,0.62C39.38,67.75,39.36,67.76,39.35,67.76z M39.52,66.25L39.52,66.25L39.52,66.25z"/>
</g>
<g>
	<g>
		<polygon class="st39" points="26.1,47.79 21.08,45.9 20.79,51.67 26.15,50.19 		"/>
		<path d="M20.79,52.67c-0.23,0-0.45-0.08-0.63-0.22c-0.25-0.2-0.39-0.51-0.37-0.83l0.3-5.76c0.02-0.32,0.18-0.61,0.45-0.79
			c0.27-0.17,0.6-0.21,0.9-0.1l5.02,1.89c0.38,0.14,0.64,0.51,0.65,0.91l0.05,2.4c0.01,0.46-0.29,0.86-0.73,0.99l-5.36,1.48
			C20.96,52.66,20.87,52.67,20.79,52.67z M22.01,47.32l-0.16,3.01l3.28-0.9l-0.02-0.94L22.01,47.32z"/>
	</g>
	<g>
		<polygon class="st39" points="27.17,49.79 32.3,51.37 32.25,45.6 26.98,47.4 		"/>
		<path d="M32.3,52.37c-0.1,0-0.2-0.01-0.3-0.04l-5.12-1.59c-0.39-0.12-0.67-0.47-0.7-0.87l-0.19-2.39
			c-0.04-0.46,0.24-0.88,0.67-1.03l5.27-1.8c0.3-0.1,0.64-0.06,0.9,0.13c0.26,0.19,0.42,0.49,0.42,0.81l0.05,5.77
			c0,0.32-0.15,0.62-0.4,0.81C32.72,52.3,32.51,52.37,32.3,52.37z M28.12,49.03l3.17,0.98l-0.03-3.02l-3.22,1.1L28.12,49.03z"/>
	</g>
	<g>
		<circle class="st39" cx="26.55" cy="48.88" r="2.39"/>
		<path d="M26.56,52.27c-0.12,0-0.24-0.01-0.36-0.02c-1.86-0.2-3.21-1.87-3.02-3.73c0.19-1.86,1.87-3.21,3.73-3.02
			c0.9,0.09,1.71,0.53,2.28,1.24s0.83,1.59,0.74,2.49l0,0c-0.09,0.9-0.53,1.71-1.24,2.28C28.08,52.01,27.33,52.27,26.56,52.27z
			 M26.55,47.49c-0.7,0-1.31,0.53-1.38,1.25c-0.08,0.76,0.48,1.45,1.24,1.53c0.37,0.04,0.73-0.07,1.02-0.3
			c0.29-0.23,0.47-0.57,0.51-0.94v0c0.04-0.37-0.07-0.73-0.3-1.02c-0.23-0.29-0.57-0.47-0.94-0.51
			C26.65,47.49,26.6,47.49,26.55,47.49z"/>
	</g>
</g>
</svg>
