<?xml version="1.0" encoding="utf-8"?>
<!-- Generator: Adobe Illustrator 28.1.0, SVG Export Plug-In . SVG Version: 6.00 Build 0)  -->
<svg version="1.1" id="Layer_1" xmlns="http://www.w3.org/2000/svg" xmlns:xlink="http://www.w3.org/1999/xlink" x="0px" y="0px"
	 viewBox="0 0 154.86 54.21" style="enable-background:new 0 0 154.86 54.21;" xml:space="preserve">
<style type="text/css">
	.st0{fill:#E4BEA3;}
	.st1{fill:url(#SVGID_1_);}
	.st2{fill:#FFFFFF;}
	.st3{fill:#F6F3EC;}
	.st4{fill:#DBD6CD;}
	.st5{fill:#906769;}
	.st6{fill:none;}
	.st7{fill:#E2E89D;}
	.st8{fill:#F1F4CE;}
	.st9{fill:#BCBEC0;}
	.st10{fill:#D1D3D4;}
	.st11{fill:#A6A198;}
	.st12{fill:#414042;}
	.st13{fill:#949598;}
	.st14{fill:#A7A9AB;}
	.st15{fill:#DEC0A6;}
	.st16{fill:#C0A788;}
	.st17{fill-rule:evenodd;clip-rule:evenodd;fill:#DEC0A6;}
	.st18{fill:#F2E7DA;}
	.st19{fill:#FEFEFE;}
	.st20{fill:#9B8579;}
	.st21{fill:#FFFFFF;stroke:#000000;stroke-width:0.5;stroke-linecap:round;stroke-linejoin:round;stroke-miterlimit:10;}
	.st22{stroke:#FFFFFF;stroke-width:0.5;stroke-miterlimit:10;}
	.st23{fill:#97867A;}
	.st24{fill:none;stroke:#DA3832;stroke-width:0.5;stroke-linecap:round;stroke-linejoin:round;stroke-miterlimit:10;}
	.st25{fill:#97867A;stroke:#97867A;stroke-width:0.5;stroke-linecap:round;stroke-linejoin:round;stroke-miterlimit:10;}
	.st26{fill:url(#SVGID_00000170251051833550882430000003304566998257760907_);}
	.st27{fill:url(#SVGID_00000160905989385184093640000007198138137035455623_);}
	.st28{fill:url(#SVGID_00000052810598534786868780000008922327367828583847_);}
	.st29{fill:url(#SVGID_00000097469538638901151670000003106314637634972313_);}
	.st30{fill:url(#SVGID_00000159443034615396481310000006689097791692056966_);}
	.st31{fill:url(#SVGID_00000062151948965594909630000004251112085549027258_);}
	.st32{fill:url(#SVGID_00000147936839411876627720000014176619581612238519_);}
	.st33{fill:url(#SVGID_00000109007707368241150210000000570468093815957434_);}
	.st34{fill:url(#SVGID_00000127038308758811387930000004859085992032385443_);}
	.st35{fill:url(#SVGID_00000150087621309015504610000009436476833251820724_);}
	.st36{fill:url(#SVGID_00000109029813760288554630000005705100073280297094_);}
	.st37{fill:url(#SVGID_00000165936907424309883910000000165086259612580741_);}
	.st38{fill:url(#SVGID_00000161599145829022832740000013956209194647994795_);}
	.st39{fill:url(#SVGID_00000003805112352586169800000001931191460367907516_);}
	.st40{fill:url(#SVGID_00000075879307863346524370000009797903238943041190_);}
	.st41{fill:url(#SVGID_00000123418038530175114340000013338087110822035601_);}
	.st42{fill:url(#SVGID_00000041278805000558128550000018188583791354652301_);}
	.st43{fill:url(#SVGID_00000025425091433085012710000009475806954401050240_);}
	.st44{fill:url(#SVGID_00000127015745647195178810000014408930752931681201_);}
	.st45{fill:url(#SVGID_00000136396626591079230300000002409513560362540986_);}
	.st46{fill:url(#SVGID_00000179633053335202976600000002786392349389167008_);}
	.st47{fill:url(#SVGID_00000093154419953507378780000011099433579075613845_);}
	.st48{fill:url(#SVGID_00000109737125547127513630000016888116243940412860_);}
	.st49{fill:url(#SVGID_00000164477226643561602970000005462625049190242701_);}
	.st50{fill:url(#SVGID_00000140722032347296030940000003121881121608623009_);}
	.st51{fill:url(#SVGID_00000138546441389253139460000002981730621034658698_);}
	.st52{fill:url(#SVGID_00000157997950982649696770000014317969459615214475_);}
	.st53{fill:url(#SVGID_00000160880584896704659930000006846516323182847416_);}
	.st54{fill:url(#SVGID_00000021836908358495348840000005918861923734045371_);}
	.st55{fill:url(#SVGID_00000128475329782472891200000017813663311512687004_);}
	.st56{fill:url(#SVGID_00000029037244525398316250000005194973986289843610_);}
	.st57{fill:url(#SVGID_00000178901377542760965730000013442160877952830896_);}
	.st58{fill:url(#SVGID_00000055668354967770450010000017594239535522734227_);}
	.st59{fill:url(#SVGID_00000132807743533175287610000002654841429684327095_);}
	.st60{fill:url(#SVGID_00000033362883154085522910000017975599129437298072_);}
	.st61{fill:url(#SVGID_00000074406321459794129350000015818282599125560486_);}
	.st62{fill:url(#SVGID_00000072249854183896130940000008409971043078156708_);}
	.st63{fill:url(#SVGID_00000120528331632793460520000000126337177408885649_);}
	.st64{fill:url(#SVGID_00000092453983267863534130000008745734489589062029_);}
	.st65{fill:url(#SVGID_00000078752793523884098290000013050744470074423458_);}
	.st66{fill:url(#SVGID_00000093134629184715139870000007366705626409420221_);}
	.st67{fill:url(#SVGID_00000095319979907979407730000014060534430383652025_);}
	.st68{fill:url(#SVGID_00000095314425237287131340000015211619607730016903_);}
	.st69{fill:url(#SVGID_00000138535065156147054870000017918238660107579019_);}
	.st70{fill:url(#SVGID_00000022535472592627231250000011577752439800198586_);}
	.st71{fill:url(#SVGID_00000071526028513046696430000010991395452727632546_);}
	.st72{fill:url(#SVGID_00000078750413455107009230000004917509351410157989_);}
	.st73{fill:url(#SVGID_00000119836852280753898630000007262323762615812228_);}
	.st74{fill:url(#SVGID_00000135653122909025224880000008914849272958890156_);}
	.st75{fill:url(#SVGID_00000083782328291254080210000001829529372095374261_);}
	.st76{fill:url(#SVGID_00000145026578638911031060000006408766626715981473_);}
	.st77{fill:url(#SVGID_00000056412119427333489260000007868452612354229389_);}
	.st78{fill:url(#SVGID_00000088120771037454888410000000225510488327773577_);}
	.st79{fill:url(#SVGID_00000173864020548316263000000010881734144760419500_);}
	.st80{fill:url(#SVGID_00000090265195222093978340000014401390860710203014_);}
	.st81{fill:url(#SVGID_00000016056125877246554040000007436693815784035234_);}
	.st82{fill:url(#SVGID_00000086684824611137764740000006901249516263487112_);}
	.st83{fill:url(#SVGID_00000173843770415061976110000014686546226011684020_);}
	.st84{fill:url(#SVGID_00000105385090720741805100000006362965092906588863_);}
	.st85{fill:url(#SVGID_00000005959582745807588040000004521956022011235248_);}
	.st86{fill:url(#SVGID_00000021819494169794833070000003792238026267803296_);}
	.st87{fill:url(#SVGID_00000147191114217614649080000004665536821175822756_);}
	.st88{fill:url(#SVGID_00000123399502471654900590000001160383450650498482_);}
	.st89{fill:url(#SVGID_00000009588440117498523980000014725438248631961222_);}
	.st90{fill:url(#SVGID_00000168107386779724694880000012943340129100428715_);}
	.st91{fill:url(#SVGID_00000008857315282404745390000013206932288732586938_);}
	.st92{fill:url(#SVGID_00000127743648228183443860000005230366588887388349_);}
	.st93{fill:url(#SVGID_00000003103530029855513530000009922129798095884975_);}
	.st94{fill:url(#SVGID_00000068644149127781267350000004925311064943729087_);}
	.st95{fill:url(#SVGID_00000057148169969959468530000005568548814395081915_);}
	.st96{fill:url(#SVGID_00000098191860911983581220000009736209347323804556_);}
	.st97{fill:url(#SVGID_00000163772383969884661800000012919216885881259445_);}
	.st98{fill:url(#SVGID_00000080915033084920688800000012229864346342215597_);}
	.st99{fill:url(#SVGID_00000058559689890246183990000013583842533325497483_);}
	.st100{fill:url(#SVGID_00000134970985821792165640000011792060698156821428_);}
	.st101{fill:url(#SVGID_00000114770680555695612310000015811534551153327014_);}
	.st102{fill:url(#SVGID_00000168074782272228104340000017330434185573886891_);}
	.st103{fill:url(#SVGID_00000107551888921606880340000001863248005861498527_);}
	.st104{fill:url(#SVGID_00000070828417356088319650000006865675425676804741_);}
	.st105{fill:url(#SVGID_00000181796293315514275870000006903381960442221462_);}
	.st106{fill:url(#SVGID_00000100377504351875167650000008286617193665635498_);}
	.st107{fill:url(#SVGID_00000181768055765701081000000010457014089123006880_);}
	.st108{fill:url(#SVGID_00000029008870072897460810000013482850449987568783_);}
	.st109{fill:url(#SVGID_00000060724063403060045290000016532450266600455055_);}
	.st110{fill:url(#SVGID_00000031180693265194961200000016565346129148941216_);}
	.st111{fill:url(#SVGID_00000070096629370755547840000014819831837580356253_);}
	.st112{fill:url(#SVGID_00000050660911115992119920000012578132726430564273_);}
	.st113{fill:url(#SVGID_00000125562981884166122100000016685240192717338521_);}
	.st114{fill:url(#SVGID_00000158736642297700199150000005959176743926567567_);}
	.st115{fill:url(#SVGID_00000044180002086772161800000006855547441390586294_);}
	.st116{fill:url(#SVGID_00000173148183550131106750000008622106369154215840_);}
	.st117{fill:url(#SVGID_00000021118639112679188500000005092308905937028228_);}
	.st118{fill:url(#SVGID_00000134968295296091377400000003083427977356946306_);}
	.st119{fill:url(#SVGID_00000104694834480691987790000017381072341944810175_);}
	.st120{fill:url(#SVGID_00000155862159358291516470000013239762799850012340_);}
	.st121{fill:url(#SVGID_00000044874657732026551340000016878152092437131445_);}
	.st122{fill:url(#SVGID_00000059309435918219922610000004109402594013286813_);}
	.st123{fill:url(#SVGID_00000088827134977472114010000015099219215360112265_);}
	.st124{fill:url(#SVGID_00000177455925468252201750000008014727220595099573_);}
	.st125{fill:url(#SVGID_00000103255319832743207950000015272263866925034679_);}
	.st126{fill:url(#SVGID_00000031183191248418275890000009123017534540724923_);}
	.st127{fill:url(#SVGID_00000042714177596037117510000003022696692129624232_);}
	.st128{fill:url(#SVGID_00000156560319704944385330000017076209776097237932_);}
	.st129{fill:url(#SVGID_00000161603801383524059500000003787400978454924463_);}
	.st130{fill:url(#SVGID_00000010297761419935421710000008568105271179610037_);}
	.st131{fill:url(#SVGID_00000017500892074733334200000005043273295020272555_);}
	.st132{fill:url(#SVGID_00000060008122964867827610000014592031599349892028_);}
	.st133{fill:url(#SVGID_00000000185750673980992010000004062363601443856263_);}
	.st134{fill:url(#SVGID_00000119809328966296403020000011362412379787488680_);}
	.st135{fill:url(#SVGID_00000039129422289144134140000004915325591264851332_);}
	.st136{fill:url(#SVGID_00000067235770985575589080000012697114330348944287_);}
	.st137{fill:url(#SVGID_00000031906514267972260270000001611149731647260040_);}
	.st138{fill:url(#SVGID_00000060009871209078519310000013845486594277471912_);}
	.st139{fill:url(#SVGID_00000113318291523472395910000005736042735202633391_);}
	.st140{fill:url(#SVGID_00000066502319610599982680000003653212312654753213_);}
	.st141{fill:url(#SVGID_00000067231846024741679290000000282012844955213715_);}
	.st142{fill:url(#SVGID_00000049906776264899950990000005669170371896999085_);}
	.st143{fill:url(#SVGID_00000103249281133349803730000005494440245417996962_);}
	.st144{fill:url(#SVGID_00000116948066406018613470000006779893805858656692_);}
	.st145{fill:url(#SVGID_00000099642381771979521650000011697050443909976762_);}
	.st146{fill:url(#SVGID_00000099650560612323409290000010325958447690585507_);}
	.st147{fill:url(#SVGID_00000080895467241385344210000008718878773203436440_);}
	.st148{fill:url(#SVGID_00000150088504901383962740000014351846998689095315_);}
	.st149{fill:url(#SVGID_00000059272492359917365280000013343995296108540044_);}
	.st150{fill:url(#SVGID_00000053541929299612233490000003832861108914906507_);}
	.st151{fill:url(#SVGID_00000031190699571666544270000005870047513844715168_);}
	.st152{fill:url(#SVGID_00000150819441123965121350000008454835063437346730_);}
	.st153{fill:url(#SVGID_00000103244591371678271040000007637863338530176135_);}
	.st154{fill:url(#SVGID_00000009582484377716354460000006227861143006582961_);}
	.st155{fill:url(#SVGID_00000181046823618173284890000007515847500112354220_);}
	.st156{fill:url(#SVGID_00000142172668656694435370000005483710613067394460_);}
	.st157{fill:url(#SVGID_00000128477988143820086660000005440355529212203914_);}
	.st158{fill:url(#SVGID_00000112627951815973570820000006140704922606910117_);}
	.st159{fill:url(#SVGID_00000162350910776060453510000002872615763636013239_);}
	.st160{fill:url(#SVGID_00000157282434645506651630000016310175169359527575_);}
	.st161{fill:url(#SVGID_00000068647281886326738360000007219752148569658498_);}
	.st162{fill:url(#SVGID_00000097487408089633036240000013875988098978150272_);}
	.st163{fill:url(#SVGID_00000085222645158743865170000017497017429958793638_);}
	.st164{fill:url(#SVGID_00000111895744663290009680000006352546104004449938_);}
	.st165{fill:url(#SVGID_00000028286949564691679180000017459781505915715469_);}
	.st166{fill:url(#SVGID_00000012430857649284539170000012275896241089509301_);}
	.st167{fill:url(#SVGID_00000163061320483189715520000001858464999913581957_);}
	.st168{fill:url(#SVGID_00000045581682259099951920000010900431914420038839_);}
	.st169{fill:url(#SVGID_00000093894627670319352780000013397235769251493278_);}
	.st170{fill:url(#SVGID_00000152259769233218185700000016724867535532877960_);}
	.st171{fill:url(#SVGID_00000064347468403719889680000002823382014765461398_);}
	.st172{fill:url(#SVGID_00000092449139716277909850000017924097494152050844_);}
	.st173{fill:url(#SVGID_00000053513817367926632140000003236047836222957713_);}
	.st174{fill:url(#SVGID_00000053531778238831804670000013339979368872403376_);}
	.st175{fill:url(#SVGID_00000097472546192971694910000015564305327602501803_);}
	.st176{fill:url(#SVGID_00000086649413098432592080000016799196571985895869_);}
	.st177{fill:url(#SVGID_00000012436209579878194420000003514334027158626712_);}
	.st178{fill:url(#SVGID_00000104696321834456111940000007082087641448175775_);}
	.st179{fill:url(#SVGID_00000068652628716968757450000005024585597789024695_);}
	.st180{fill:url(#SVGID_00000155865430898005675190000008020642920918896528_);}
	.st181{fill:url(#SVGID_00000095298746680256997600000002441524076994602628_);}
	.st182{fill:url(#SVGID_00000084512376800065783410000010957203116752230288_);}
	.st183{fill:url(#SVGID_00000109005646344181719470000011526652169565012890_);}
	.st184{fill:url(#SVGID_00000018918283554166467870000012881113271796746158_);}
	.st185{fill:url(#SVGID_00000020380978899763511910000016177255862225978803_);}
	.st186{fill:url(#SVGID_00000028296512304234426330000012176738356138345381_);}
	.st187{fill:url(#SVGID_00000000915817224241707310000014197924095148772013_);}
	.st188{fill:url(#SVGID_00000023964770038160707440000008525773430937749378_);}
	.st189{fill:url(#SVGID_00000005949807540958150970000012284494963359900566_);}
	.st190{fill:url(#SVGID_00000058557071987810625810000011882069248719197881_);}
	.st191{fill:url(#SVGID_00000072979791671569309250000008963562642482585728_);}
	.st192{fill:url(#SVGID_00000103249395340805873510000000755283410083901624_);}
	.st193{fill:url(#SVGID_00000093893725312149593880000005178038345150640002_);}
	.st194{fill:url(#SVGID_00000023979074000054031250000005913722300337262211_);}
	.st195{fill:url(#SVGID_00000083070189070049295230000016241069285161918863_);}
	.st196{fill:url(#SVGID_00000045616238738761841350000001483366232283881895_);}
	.st197{fill:url(#SVGID_00000176740867899334140010000004776937799704462512_);}
	.st198{fill:url(#SVGID_00000129923704212705688130000007411354808683062660_);}
	.st199{fill:url(#SVGID_00000021121149819080619120000000293835896790940316_);}
	.st200{fill:url(#SVGID_00000148625126776748843270000009722914192248697758_);}
	.st201{fill:url(#SVGID_00000106866347895291632720000014572507743321706391_);}
	.st202{fill:url(#SVGID_00000180328727969434860620000006127761917497109436_);}
	.st203{fill:url(#SVGID_00000108280130647062814550000000583207533981096610_);}
	.st204{fill:url(#SVGID_00000099627928642014327240000013111560545061408927_);}
	.st205{fill:url(#SVGID_00000112616407224018298470000006783430021362723718_);}
	.st206{fill:url(#SVGID_00000157281812541227393720000015235150003366331812_);}
	.st207{fill:url(#SVGID_00000075151166607152950800000011397812767304006277_);}
	.st208{fill:url(#SVGID_00000039124760618005645450000008633869215196031160_);}
	.st209{fill:url(#SVGID_00000055707083799614644530000014644963656972640165_);}
	.st210{fill:url(#SVGID_00000168830146550821617450000017565685568309876353_);}
	.st211{fill:url(#SVGID_00000167360832529704528750000006338804665460211897_);}
	.st212{fill:url(#SVGID_00000091000168604922493100000000054336804806222250_);}
	.st213{fill:url(#SVGID_00000035508862572067795140000010742253148678341309_);}
	.st214{fill:url(#SVGID_00000141455213165453690790000015331441171810004367_);}
	.st215{fill:url(#SVGID_00000146472154964748208630000012295359263170405001_);}
	.st216{fill:url(#SVGID_00000052070321576494080360000002211753497642533799_);}
	.st217{fill:url(#SVGID_00000076582098268743846940000007824931964943892664_);}
	.st218{fill:url(#SVGID_00000039099514905739654450000011825186386678474929_);}
	.st219{fill:url(#SVGID_00000002357746577386504720000005459855128551290506_);}
	.st220{fill:url(#SVGID_00000001657401387609228960000004366708347772204984_);}
	.st221{fill:url(#SVGID_00000119094808433194005560000001301149595911801775_);}
	.st222{fill:url(#SVGID_00000013881232665147938600000011705466195131403137_);}
	.st223{fill:url(#SVGID_00000058579884647099329830000007929273629894141869_);}
	.st224{fill:url(#SVGID_00000166643612452710896970000017419579819808951690_);}
	.st225{fill:url(#SVGID_00000052805393073780951720000012178942343512301714_);}
	.st226{fill:url(#SVGID_00000113351981331936743960000003257563945156271505_);}
	.st227{fill:url(#SVGID_00000000932409876172857870000007209479148232097720_);}
	.st228{fill:url(#SVGID_00000090258521107898094010000011927283064594496931_);}
	.st229{fill:url(#SVGID_00000050655135526962755830000008296299957983245472_);}
	.st230{fill:url(#SVGID_00000008834336379673241730000010031123502479295669_);}
	.st231{fill:url(#SVGID_00000031205246241897759180000006656438563972064937_);}
	.st232{fill:url(#SVGID_00000099622825239459248130000016246275749103733412_);}
	.st233{fill:url(#SVGID_00000044143026600171940280000000958231422868430517_);}
	.st234{fill:url(#SVGID_00000147217501985110582690000017755004297848724135_);}
	.st235{fill:url(#SVGID_00000100382048132796434760000017338870638694486714_);}
	.st236{fill:url(#SVGID_00000029726618441176245440000006689783012500018818_);}
	.st237{fill:url(#SVGID_00000053509897064873875520000012274222282900030595_);}
	.st238{fill:url(#SVGID_00000150079850488068362970000005912568232992850367_);}
	.st239{fill:url(#SVGID_00000069365292965114281530000003176323312349256891_);}
	.st240{fill:url(#SVGID_00000065048158566316919910000011333096848831421623_);}
	.st241{fill:url(#SVGID_00000061441646301246229790000011843532105939924913_);}
	.st242{fill:url(#SVGID_00000127032777713330432680000016867510149773465018_);}
	.st243{fill:url(#SVGID_00000139251877138765167090000011865307367331896964_);}
	.st244{fill:url(#SVGID_00000006697230452996908690000011845379073467996039_);}
	.st245{fill:url(#SVGID_00000159451434876929761660000008951195695062902408_);}
	.st246{fill:url(#SVGID_00000027562324806583503100000014572848469187806863_);}
	.st247{fill:url(#SVGID_00000145757611729871307520000017591390386162942105_);}
	.st248{fill:url(#SVGID_00000000191542811176059910000001243384943900061313_);}
	.st249{fill:url(#SVGID_00000173124605989394730710000009460438111702047162_);}
	.st250{fill:url(#SVGID_00000121989112409920594850000002895708868328095150_);}
	.st251{fill:url(#SVGID_00000008145113040107769250000001269379716994433980_);}
	.st252{fill:url(#SVGID_00000015347148741301801200000017029451210134066070_);}
	.st253{fill:url(#SVGID_00000007391893418450966100000001133674916878401441_);}
	.st254{fill:url(#SVGID_00000070081860695021675340000001311758527217597872_);}
	.st255{fill:url(#SVGID_00000043423316167031112560000009206279799154257081_);}
	.st256{fill:url(#SVGID_00000065776306378998755850000009444870890404525478_);}
	.st257{fill:url(#SVGID_00000029034850611426570490000014421809173335418793_);}
	.st258{fill:url(#SVGID_00000054958364133162960290000011366080427820173232_);}
	.st259{fill:url(#SVGID_00000109002807192387870390000000311539960924218550_);}
	.st260{fill:url(#SVGID_00000111902373325107258230000007424020925947407256_);}
	.st261{fill:url(#SVGID_00000160900434744261157100000000543936533560735934_);}
	.st262{fill:url(#SVGID_00000044883418059498443880000010670258952882441125_);}
	.st263{fill:url(#SVGID_00000062172913051410632340000006766629205050176144_);}
	.st264{fill:url(#SVGID_00000098203917981059341700000000528674334763923126_);}
	.st265{fill:url(#SVGID_00000129891151070546523500000003004333824569466800_);}
	.st266{fill:url(#SVGID_00000091003853515920306660000004653726139488738466_);}
	.st267{fill:url(#SVGID_00000010293429817319649620000007243861135127842225_);}
	.st268{fill:url(#SVGID_00000084513364282953699670000008028214773074157502_);}
	.st269{fill:url(#SVGID_00000142152374206961236720000013995925175318611901_);}
	.st270{fill:url(#SVGID_00000009589678180058974050000018168294454928201905_);}
	.st271{fill:url(#SVGID_00000024002159689721596450000000290241767289869228_);}
	.st272{fill:url(#SVGID_00000099656637873734541370000009264802175688301728_);}
	.st273{fill:url(#SVGID_00000157297354481043376660000000853124440869658000_);}
	.st274{fill:url(#SVGID_00000054259821398872559020000010166368188232113029_);}
	.st275{fill:url(#SVGID_00000075874386887767463490000006785054889071832198_);}
	.st276{fill:url(#SVGID_00000136405981602472960360000017173392501556429188_);}
	.st277{fill:url(#SVGID_00000075865834804770271660000008319292348057443758_);}
	.st278{fill:url(#SVGID_00000135662604957950766270000012600256570975433348_);}
	.st279{fill:url(#SVGID_00000176762021650019846810000002307297212109588656_);}
	.st280{fill:url(#SVGID_00000127031853925114549150000000219483975151926185_);}
	.st281{fill:url(#SVGID_00000140713494790866079800000001020151354825233548_);}
	.st282{fill:url(#SVGID_00000008114166875401940070000018412453322984244629_);}
	.st283{fill:url(#SVGID_00000122717728653902805350000007516612661141004183_);}
	.st284{fill:url(#SVGID_00000160874802756329982940000014924902846581914267_);}
	.st285{fill:url(#SVGID_00000039116901531445720020000017669764823595041683_);}
	.st286{fill:url(#SVGID_00000031183693560522747420000002785997487176927673_);}
	.st287{fill:url(#SVGID_00000086661864634257009360000015387706939655012995_);}
	.st288{fill:url(#SVGID_00000066492881645740036480000014442443874662415266_);}
	.st289{fill:url(#SVGID_00000103949918830745481090000009358145292048225941_);}
	.st290{fill:url(#SVGID_00000163071893327011292290000001519912169183954619_);}
	.st291{fill:url(#SVGID_00000055693204106070324050000016156045865583376031_);}
	.st292{fill:url(#SVGID_00000066510277471034683350000003606109768150368682_);}
	.st293{fill:url(#SVGID_00000016782768667487012320000013334011154000905122_);}
	.st294{fill:url(#SVGID_00000130618634884925908860000014176425268636034432_);}
	.st295{fill:url(#SVGID_00000043429721904171113230000010885727176466780846_);}
	.st296{fill:url(#SVGID_00000086660844794559803210000011461140420437746336_);}
	.st297{fill:url(#SVGID_00000030486945448861006870000000969757504392070845_);}
	.st298{fill:url(#SVGID_00000047760882201971778800000014586407272456328091_);}
	.st299{fill:url(#SVGID_00000170242749263697765070000010289893232014534805_);}
	.st300{fill:url(#SVGID_00000165234315146857442740000001683758733578425997_);}
	.st301{fill:url(#SVGID_00000041285309190550503650000018347055305455769535_);}
	.st302{fill:url(#SVGID_00000060728033710049402090000005043517384003215533_);}
	.st303{fill:url(#SVGID_00000046331537485978177940000014103723727235741576_);}
	.st304{fill:url(#SVGID_00000017511186203855950160000015358057423612877962_);}
	.st305{fill:url(#SVGID_00000067213675534683538930000006039210025798763412_);}
	.st306{fill:url(#SVGID_00000051380246168220245430000015665376436571659401_);}
	.st307{fill:url(#SVGID_00000077288580244433849480000007636404242753974449_);}
	.st308{fill:url(#SVGID_00000073688436577389347760000014050480738273651883_);}
	.st309{fill:url(#SVGID_00000103961849413443728880000016470091251023410575_);}
	.st310{fill:url(#SVGID_00000001631434759491284440000003444770561937593778_);}
	.st311{fill:url(#SVGID_00000088127708249096495620000000854557500973212852_);}
	.st312{fill:url(#SVGID_00000140707737772669578730000016962194822883942304_);}
	.st313{fill:url(#SVGID_00000049912308519801407980000016441320576881347519_);}
	.st314{fill:url(#SVGID_00000016762332822417986870000000841634485380087960_);}
	.st315{fill:url(#SVGID_00000080885762923306062920000018082290129859614370_);}
	.st316{fill:url(#SVGID_00000120520963789149384840000012893367544596106882_);}
	.st317{fill:url(#SVGID_00000051352754396587756740000005312469181381401995_);}
	.st318{fill:url(#SVGID_00000022518241889744055170000008864176751916835262_);}
	.st319{fill:url(#SVGID_00000085241394296359146720000005084610542416534162_);}
	.st320{fill:url(#SVGID_00000096040790934116075820000000685744177863234213_);}
	.st321{fill:url(#SVGID_00000121275867736923812140000001688304603673185718_);}
	.st322{fill:url(#SVGID_00000047766858680052333270000013159344270769409712_);}
	.st323{fill:url(#SVGID_00000119821537322732936360000005684113299539439523_);}
	.st324{fill:url(#SVGID_00000088842204742601192370000007357441361315310231_);}
	.st325{fill:url(#SVGID_00000161599333162400045280000002197141890974260877_);}
	.st326{fill:url(#SVGID_00000153691809813721408060000015124395763856452236_);}
	.st327{fill:url(#SVGID_00000047047165179681597010000007105491546517184921_);}
	.st328{fill:url(#SVGID_00000004525796264192965100000004269284016769901475_);}
	.st329{fill:url(#SVGID_00000096758539657792153120000001621780390626270138_);}
	.st330{fill:url(#SVGID_00000106834134506757894280000015254276672920162484_);}
	.st331{fill:url(#SVGID_00000026153006423583028920000015034861805671572624_);}
	.st332{fill:url(#SVGID_00000035518396744978884720000010060916636258259329_);}
	.st333{fill:url(#SVGID_00000132791394706835432470000005969349946262092423_);}
	.st334{fill:url(#SVGID_00000133531269467142267960000010952978180954672526_);}
	.st335{fill:url(#SVGID_00000180324198771107782100000013282636723405969290_);}
	.st336{fill:url(#SVGID_00000180325053024807793790000008296463367581141382_);}
	.st337{fill:url(#SVGID_00000142148346215866786830000017899071980734059148_);}
	.st338{fill:url(#SVGID_00000147185632361840329160000007126947678930799541_);}
	.st339{fill:url(#SVGID_00000062179594941356072140000017989405878153595321_);}
	.st340{fill:url(#SVGID_00000146472044070372432660000004465638154783182765_);}
	.st341{fill:url(#SVGID_00000154410650744013352410000013856741578140435378_);}
	.st342{fill:url(#SVGID_00000047054238223178107600000010934819519380956800_);}
	.st343{fill:url(#SVGID_00000143599244064575794380000008121619677463925173_);}
	.st344{fill:url(#SVGID_00000013882042165194855820000002190278040586134199_);}
	.st345{fill:url(#SVGID_00000136412719534831474270000013033950742669035913_);}
	.st346{fill:url(#SVGID_00000012465575066637725940000001696996286143979152_);}
	.st347{fill:url(#SVGID_00000023243063949143843200000013248111893868360599_);}
	.st348{fill:url(#SVGID_00000057831509147265991580000007983701905739747748_);}
	.st349{fill:url(#SVGID_00000086677540686483114030000009622416121398580897_);}
	.st350{fill:url(#SVGID_00000078025486946239513230000002115856341484974228_);}
	.st351{fill:url(#SVGID_00000101104703646232433590000000206863104548308352_);}
	.st352{fill:url(#SVGID_00000030465978484275025740000013915222306884375186_);}
	.st353{fill:url(#SVGID_00000092449786188509669130000005629638274505646740_);}
	.st354{fill:url(#SVGID_00000157270048316564328650000014570243693552233871_);}
	.st355{fill:url(#SVGID_00000035516163011356717600000006719638721693549200_);}
	.st356{fill:url(#SVGID_00000112626069192886301770000010840992449093091225_);}
	.st357{fill:url(#SVGID_00000008857697059836531720000011157681540551950218_);}
	.st358{fill:url(#SVGID_00000081623060722570962560000011726332224824033187_);}
	.st359{fill:url(#SVGID_00000097466656306335676880000013494573044143223697_);}
	.st360{fill:url(#SVGID_00000130619617093692044040000001841681847508773261_);}
	.st361{fill:url(#SVGID_00000129200458645463759960000002284669878629827001_);}
	.st362{fill:url(#SVGID_00000166668313796828800040000013959736070406533044_);}
	.st363{fill:url(#SVGID_00000034781223786015538300000006247592771370327687_);}
	.st364{fill:url(#SVGID_00000162342914526995103070000012552044339843829179_);}
	.st365{fill:url(#SVGID_00000125585918830667693120000003388853868754014851_);}
	.st366{fill:url(#SVGID_00000091726186517096836710000001740776145137959607_);}
	.st367{fill:url(#SVGID_00000098915793757496072250000017291467342853915057_);}
	.st368{fill:url(#SVGID_00000026854505566605971970000011996355655633466047_);}
	.st369{fill:url(#SVGID_00000005246318524161448720000005351984035436838551_);}
	.st370{fill:url(#SVGID_00000107561225410283337160000016561483955032173200_);}
	.st371{fill:url(#SVGID_00000117660890254702985390000008510400966391361200_);}
	.st372{fill:url(#SVGID_00000000928456025925806990000013140273308691682711_);}
	.st373{fill:url(#SVGID_00000065058266387739668090000014221600066937162668_);}
	.st374{fill:url(#SVGID_00000051376295774363238240000002276456467633961130_);}
	.st375{fill:url(#SVGID_00000137111685632557596880000003825464960039019704_);}
	.st376{fill:url(#SVGID_00000155864753637202513390000015528857639493103496_);}
	.st377{fill:url(#SVGID_00000129170284811743956730000001278071358582940092_);}
	.st378{fill:url(#SVGID_00000101086199074404563660000013223353892340085130_);}
	.st379{fill:url(#SVGID_00000001635706176764431110000011427076055040090813_);}
	.st380{fill:url(#SVGID_00000128446365011324452670000005040670097414459321_);}
	.st381{fill:url(#SVGID_00000174574480526672938680000008435906614904692411_);}
	.st382{fill:url(#SVGID_00000024699579854831605200000017263475347501138576_);}
	.st383{fill:url(#SVGID_00000177453642424016140640000007314722790374229917_);}
	.st384{fill:url(#SVGID_00000010308676643545516410000003494694586507643281_);}
	.st385{fill:url(#SVGID_00000033345496736897611500000012728522488570882952_);}
	.st386{fill:url(#SVGID_00000105407599391083162090000016994577343758281918_);}
	.st387{fill:url(#SVGID_00000070083004846213321830000007016994136583950252_);}
	.st388{fill:url(#SVGID_00000036939229610909036220000005945639980722135683_);}
	.st389{fill:url(#SVGID_00000076591095161368164940000000836193649390825604_);}
	.st390{fill:url(#SVGID_00000063627430369389663150000013799444163423962014_);}
	.st391{fill:url(#SVGID_00000018938121975817713280000006210145784206611340_);}
	.st392{fill:url(#SVGID_00000125562708870757268380000005345868918601031826_);}
	.st393{fill:url(#SVGID_00000085933877258692663490000010499456139729562255_);}
	.st394{fill:url(#SVGID_00000168807284900052418060000009472825862502268290_);}
	.st395{fill:url(#SVGID_00000164502608007731805400000017510071235674967960_);}
	.st396{fill:url(#SVGID_00000110448199027486532710000003225613679500945322_);}
	.st397{fill:url(#SVGID_00000131351771763056592620000010981494370530055556_);}
	.st398{fill:url(#SVGID_00000048474745181296647620000013430629205908099246_);}
	.st399{fill:url(#SVGID_00000100367521183805216530000001001286653144029368_);}
	.st400{fill:url(#SVGID_00000047776451955157025310000013092283576930867863_);}
	.st401{fill:url(#SVGID_00000113315239993615753800000009865047961933145510_);}
	.st402{fill:url(#SVGID_00000150071934193256433340000014074255262697478030_);}
	.st403{fill:url(#SVGID_00000100363942568578733420000001224161374337694652_);}
	.st404{fill:url(#SVGID_00000125568426838422917670000006022567482159485847_);}
	.st405{fill:url(#SVGID_00000124131198057784603770000009884496609330578090_);}
	.st406{fill:url(#SVGID_00000085955730187962433460000005234803081284327331_);}
	.st407{fill:url(#SVGID_00000109736368164937079540000017989485978874958758_);}
	.st408{fill:url(#SVGID_00000139986712930712081820000004188489693754426760_);}
	.st409{fill:url(#SVGID_00000005948302255764795180000011080183357382473659_);}
	.st410{fill:url(#SVGID_00000139979489845074344140000015038728379299950523_);}
	.st411{fill:url(#SVGID_00000070092522662707804980000012857834505528690055_);}
	.st412{fill:url(#SVGID_00000067230859796221607170000001700406501559203476_);}
	.st413{fill:url(#SVGID_00000067200293725385481590000005399347688364482458_);}
	.st414{fill:url(#SVGID_00000151513441410816116730000008228847556820335786_);}
	.st415{fill:url(#SVGID_00000087391210899243048540000012584508397713750204_);}
	.st416{fill:url(#SVGID_00000016795824213026267610000009466572830669295017_);}
	.st417{fill:url(#SVGID_00000114752931062331195520000013718353389838505089_);}
	.st418{fill:url(#SVGID_00000062193347276601012360000008688381376921212850_);}
	.st419{fill:url(#SVGID_00000033341119215881607910000012741780409380099002_);}
	.st420{fill:url(#SVGID_00000031185615430894260530000002635399635802852016_);}
	.st421{fill:url(#SVGID_00000044172168677125592510000008069845470437163669_);}
	.st422{fill:url(#SVGID_00000118356185672117681510000002253132477889031868_);}
	.st423{fill:url(#SVGID_00000155130676860848440340000010982879419660513696_);}
	.st424{fill:url(#SVGID_00000165926995415744759880000002670657682142658212_);}
	.st425{fill:url(#SVGID_00000087382100064340384100000016335411044648938676_);}
	.st426{fill:url(#SVGID_00000007424694633468476710000000977380972276207745_);}
	.st427{fill:url(#SVGID_00000106858541465841477010000006361708529152780975_);}
	.st428{fill:url(#SVGID_00000036969649794478308740000017236136532976302758_);}
	.st429{fill:url(#SVGID_00000011716622933303262110000015655391444257409189_);}
	.st430{fill:url(#SVGID_00000028317797785900521360000001876981742883554487_);}
	.st431{fill:url(#SVGID_00000028310644106824331690000007236624609421066928_);}
	.st432{fill:url(#SVGID_00000165947690835876923580000009456285969948616583_);}
	.st433{fill:url(#SVGID_00000133491942991485098910000013017838045708225173_);}
	.st434{fill:url(#SVGID_00000121247859262027588510000016025822227804145853_);}
	.st435{fill:url(#SVGID_00000168805009081825451410000007117750453887405498_);}
	.st436{fill:url(#SVGID_00000072976290693735979300000006948505265029995424_);}
	.st437{fill:url(#SVGID_00000109005252376161443010000003194054667149009550_);}
	.st438{fill:url(#SVGID_00000125574978215058398080000015448359755979735187_);}
	.st439{fill:url(#SVGID_00000083074219562107204550000000787298743061851783_);}
	.st440{fill:url(#SVGID_00000001633097730073259310000013177276503087823488_);}
	.st441{fill:url(#SVGID_00000102518048533152424600000017081670932713984139_);}
	.st442{fill:url(#SVGID_00000003082776595089153820000008045534330749296282_);}
	.st443{fill:url(#SVGID_00000034802325888254390990000007915316610991763095_);}
	.st444{fill:url(#SVGID_00000131344631371748936460000012992085061156601218_);}
	.st445{fill:url(#SVGID_00000017515928723178900400000014877303951147521436_);}
	.st446{fill:url(#SVGID_00000082358145071221882010000011573145580461888917_);}
	.st447{fill:url(#SVGID_00000052806891212406979320000005327558309529832092_);}
	.st448{fill:url(#SVGID_00000168091112011649598070000007129228734618685824_);}
	.st449{fill:url(#SVGID_00000003072549985177694940000011305244883049921930_);}
	.st450{fill:url(#SVGID_00000101816987904473067570000007721407126116446866_);}
	.st451{fill:url(#SVGID_00000180360110644889405000000003968261816768787082_);}
	.st452{fill:url(#SVGID_00000068657603257430143350000008039236134609731757_);}
	.st453{stroke:#FFFFFF;stroke-width:0.25;stroke-miterlimit:10;}
	.st454{fill:url(#SVGID_00000141415225617987447160000013307059238187889047_);}
	.st455{fill:none;stroke:#DEC0A6;stroke-width:0.25;stroke-miterlimit:10;}
	.st456{fill:#E6E7E8;}
	.st457{fill:#659E5D;}
	.st458{fill:#FCFCFB;}
	.st459{fill:#A27D56;}
	.st460{fill:url(#SVGID_00000174593047059493820780000004838822047674454182_);}
	.st461{fill:url(#SVGID_00000103953232035165783800000000068184672749215616_);}
	.st462{fill:#7AA759;}
	.st463{fill:#5B884A;}
	.st464{fill:#9DC374;}
	.st465{fill:#C6D289;}
	.st466{fill:#F0EFED;}
	.st467{fill:#374B31;}
	.st468{fill:#845F41;}
	.st469{fill:url(#SVGID_00000176042497741572813800000011357697635430072206_);}
	.st470{fill:none;stroke:#DA3832;stroke-miterlimit:10;}
	.st471{fill:none;stroke:#000000;stroke-miterlimit:10;}
	.st472{fill:#DA3832;}
	.st473{fill:none;stroke:#D73832;stroke-miterlimit:10;}
	.st474{fill:#D73832;}
	.st475{fill:#573A4E;}
	.st476{fill:#8F6769;}
	.st477{stroke:#000000;stroke-width:0.5;stroke-linecap:round;stroke-linejoin:round;stroke-miterlimit:10;}
	.st478{stroke:#000000;stroke-width:0.25;stroke-linecap:round;stroke-linejoin:round;stroke-miterlimit:10;}
	.st479{fill:#8F6769;stroke:#000000;stroke-width:0.5;stroke-linecap:round;stroke-linejoin:round;stroke-miterlimit:10;}
	.st480{stroke:#000000;stroke-linecap:round;stroke-linejoin:round;stroke-miterlimit:10;}
	.st481{fill:#A8A9AB;}
	.st482{fill:none;stroke:#D73832;stroke-width:0.5;stroke-linecap:round;stroke-linejoin:round;stroke-miterlimit:10;}
	.st483{fill:#FFFFFF;stroke:#FFFFFF;stroke-width:0.5;stroke-miterlimit:10;}
	.st484{fill:#D73832;stroke:#D73832;stroke-linecap:round;stroke-linejoin:round;stroke-miterlimit:10;}
	.st485{fill:#374A31;}
	.st486{fill:#ABC878;}
	.st487{fill:#D7CEC6;}
	.st488{fill:#84B060;}
	.st489{fill:#668C4B;}
	.st490{fill:#DDBFA6;}
	.st491{fill:#DDBFA6;stroke:#DDBFA6;stroke-width:0.5;stroke-linecap:round;stroke-linejoin:round;stroke-miterlimit:10;}
	.st492{fill-rule:evenodd;clip-rule:evenodd;fill:#DDBFA6;}
	.st493{fill:#5D884A;}
	.st494{fill:#C6D189;}
	.st495{fill:#7BA658;}
	.st496{fill:#9FC274;}
	.st497{fill:none;stroke:#000000;stroke-width:0.1;stroke-linecap:round;stroke-linejoin:round;stroke-miterlimit:10;}
	.st498{fill:#A17D56;}
	.st499{fill:#835F41;}
	.st500{fill:none;stroke:#000000;stroke-width:1.5;stroke-linecap:round;stroke-linejoin:round;stroke-miterlimit:10;}
	.st501{fill:none;stroke:#D73832;stroke-width:5;stroke-linecap:round;stroke-linejoin:round;}
	.st502{fill-rule:evenodd;clip-rule:evenodd;}
	.st503{fill:#679D5D;}
	.st504{fill:#BFA788;}
	.st505{fill:#9AC455;}
	.st506{fill:#D8DE50;}
	.st507{fill:none;stroke:#000000;stroke-width:2;stroke-linecap:round;stroke-linejoin:round;stroke-miterlimit:10;}
	.st508{fill:none;stroke:#DDBFA6;stroke-width:0.25;stroke-miterlimit:10;}
	.st509{fill:#86B455;}
	.st510{fill:#FEFEFD;}
	.st511{fill:none;stroke:#D73832;stroke-width:0.5;stroke-miterlimit:10;}
	.st512{fill:url(#SVGID_00000093882374405713196840000006425371330426984630_);}
</style>
<g>
	<g>
		<g>
			<path class="st15" d="M3.42,18.3c1.93-3.34,4.97-4.18,7.75-7.35s2.31-5.14,5.05-8.91s6.26-2.13,8.74,3.4
				c4.73,10.58,4.54,21.27,0.33,31.92c-2,5.05-4.77,9.68-8.58,13.63c-4.26,4.42-7.4,4.31-11.24-0.46
				c-4.78-5.94-6.08-13.06-5.23-18.42S1.49,21.64,3.42,18.3z"/>
		</g>
		<g>
			<g id="XMLID_00000004524634522222494400000011631961569938003084_">
				<g>
					<path class="st2" d="M7.73,34.81c0.33-0.5,0.98-0.7,1.49-0.43c0.3,0.16,0.6,0.32,0.88,0.5c0.53,0.3,0.7,0.98,0.41,1.56
						c-0.1,0.23-0.3,0.38-0.54,0.45c-0.26,0.07-0.54,0.03-0.76-0.12c-0.32-0.2-0.69-0.42-1.12-0.65c-0.23-0.13-0.4-0.34-0.47-0.59
						C7.57,35.28,7.6,35.03,7.73,34.81z"/>
					<path class="st2" d="M16.96,36.59c0,0.38,0.18,0.56,0.55,0.56c0.03,0.02,0.06,0.02,0.1,0.02c0.17,0,0.3-0.12,0.3-0.28v-1.19
						c0-0.16-0.13-0.3-0.3-0.3h-0.35c-0.16,0-0.3,0.14-0.3,0.3V36.59z M15.36,32.92c-0.16,0-0.3,0.14-0.3,0.3v0.39
						c0,0.16,0.14,0.3,0.3,0.3h0.38c0.17,0,0.3-0.14,0.3-0.3v-0.39c0-0.16-0.13-0.3-0.3-0.3H15.36z M13.22,40.92
						c0,0.17,0.13,0.3,0.3,0.3h4.09c0.17,0,0.3-0.13,0.3-0.3V40.6c0-0.16-0.14-0.3-0.3-0.3h-4.09c-0.17,0-0.3,0.14-0.3,0.3V40.92z
						 M13.22,38.83c0,0.17,0.13,0.3,0.3,0.3h4.09c0.17,0,0.3-0.13,0.3-0.3v-0.35c0-0.16-0.13-0.28-0.3-0.28c-0.03,0-0.07,0-0.1,0.01
						c-1.16-0.03-1.5-0.19-1.5-1.23v-1.27c0-0.16-0.14-0.3-0.3-0.3h-0.31c-0.16,0-0.3,0.14-0.3,0.29c-0.04,1-0.17,1.76-0.38,2.36
						c-0.06,0.16-0.18,0.23-0.27,0.26c-0.16,0.05-0.34,0.03-0.49-0.05c-0.29-0.17-0.31-0.56-0.19-0.83
						c0.26-0.56,0.33-1.16,0.37-1.73c0-0.17-0.13-0.3-0.29-0.3h-0.33c-0.17,0-0.3,0.14-0.3,0.3V38.83z M7.99,31.56
						c0.32-0.55,0.96-0.66,1.39-0.46c0.35,0.17,0.7,0.37,1.08,0.57c0.09,0.06,0.17,0.11,0.24,0.19c0.06,0.06,0.15,0.08,0.23,0.06
						c0.08-0.02,0.17-0.11,0.19-0.18c0.11-0.38,0.47-0.64,0.88-0.64h7.09c0.5,0,0.9,0.4,0.9,0.9c0,0.51-0.4,0.91-0.9,0.91h-0.96
						c-0.16,0-0.3,0.14-0.3,0.3v0.39c0,0.16,0.14,0.3,0.3,0.3h0.27c0.74,0,1.33,0.6,1.33,1.33v6.21c0,0.73-0.59,1.33-1.33,1.33
						h-5.67c-0.73,0-1.33-0.6-1.33-1.33v-6.21c0-0.73,0.6-1.33,1.33-1.33h0.22c0.16,0,0.3-0.14,0.3-0.3v-0.39
						c0-0.16-0.14-0.3-0.3-0.3h-0.95c-0.29,0-0.5-0.14-0.63-0.25c-0.05-0.04-0.11-0.08-0.18-0.07c-0.1,0.01-0.2,0.08-0.24,0.22
						c-0.02,0.12-0.08,0.25-0.16,0.37c-0.13,0.22-0.33,0.36-0.58,0.41c-0.28,0.06-0.58,0-0.83-0.17c-0.37-0.25-0.69-0.44-1-0.61
						c-0.22-0.12-0.38-0.32-0.45-0.56C7.85,32.01,7.88,31.77,7.99,31.56z"/>
					<path class="st2" d="M8.38,43.04c-0.58-0.23-0.87-0.9-0.64-1.51c0.38-1.06,0.76-2.21,1.04-3.24c0.09-0.34,0.3-0.5,0.46-0.59
						c0.23-0.12,0.5-0.15,0.74-0.06c0.56,0.18,0.89,0.76,0.76,1.33c-0.26,1.07-0.6,2.31-0.93,3.42C9.69,42.74,9.45,42.91,9.27,43
						C8.99,43.14,8.65,43.15,8.38,43.04z"/>
				</g>
			</g>
		</g>
		<g>
			<g id="XMLID_00000041291700667227385590000007349368367686880410_">
				<g>
					<path class="st2" d="M16.43,18.71c-0.2-0.16-0.32-0.38-0.35-0.64c-0.03-0.3,0.07-0.58,0.26-0.8v-0.01
						c0.23-0.28,0.59-0.71,0.91-1.19c0.16-0.24,0.4-0.41,0.68-0.47c0.07-0.01,0.15-0.02,0.22-0.02c0.2,0,0.38,0.05,0.55,0.16
						c0.52,0.36,0.68,1.03,0.35,1.53c-0.29,0.45-0.63,0.92-0.99,1.35C17.66,19.07,16.93,19.11,16.43,18.71z"/>
					<path class="st2" d="M9.58,18.63c-0.25-0.37-0.56-0.77-0.92-1.22c-0.19-0.22-0.28-0.5-0.24-0.76c0.03-0.25,0.15-0.48,0.36-0.63
						c0.23-0.17,0.5-0.26,0.75-0.26c0.31,0,0.61,0.12,0.83,0.37c0.36,0.4,0.68,0.79,0.96,1.17c0.37,0.5,0.26,1.21-0.26,1.6
						c-0.22,0.17-0.49,0.24-0.76,0.2C9.99,19.04,9.74,18.88,9.58,18.63z"/>
					<path class="st2" d="M15.26,19.65h3.72c0.58,0,1.03,0.46,1.03,1.04c0,0.57-0.46,1.04-1.03,1.04h-2.25
						c-0.11,0-0.21,0.08-0.24,0.18c-0.02,0.08,0.02,0.17,0.08,0.23v0.01c0.75,0.75,1.56,1.38,2.49,1.94
						c0.63,0.38,0.92,1.14,0.7,1.81c-0.11,0.32-0.37,0.57-0.7,0.69c-0.28,0.1-0.57,0.08-0.83-0.08c-1.36-0.83-2.21-1.87-2.9-2.83
						c-0.04-0.09-0.17-0.16-0.27-0.13c-0.1,0.03-0.18,0.14-0.18,0.24l0.05,2.61c0.01,0.3-0.1,0.58-0.3,0.79
						c-0.42,0.43-1.17,0.43-1.59,0c-0.2-0.2-0.31-0.48-0.31-0.76c0-0.01,0-0.03,0-0.03l0.06-2.62h-0.01
						c0.01-0.08-0.03-0.16-0.09-0.2c-0.1-0.07-0.26-0.05-0.34,0.03c-0.81,1.04-1.7,1.96-2.67,2.75c-0.26,0.2-0.57,0.29-0.9,0.23
						c-0.34-0.05-0.64-0.26-0.83-0.56c-0.17-0.27-0.23-0.59-0.15-0.9c0.08-0.34,0.3-0.63,0.6-0.83c0.96-0.6,1.76-1.26,2.59-2.14
						c0.07-0.06,0.1-0.16,0.08-0.24c-0.03-0.1-0.14-0.19-0.23-0.19H8.69c-0.59,0-1.05-0.46-1.05-1.04s0.46-1.04,1.05-1.04h3.7
						c0.17,0,0.3-0.14,0.3-0.3v-3.03c0-0.63,0.51-1.15,1.13-1.15c0.63,0,1.15,0.51,1.15,1.15v3.03
						C14.96,19.52,15.09,19.65,15.26,19.65z"/>
				</g>
			</g>
		</g>
	</g>
	<g>
		<path d="M37.26,38.78V20.11c0-2.47,2-4.47,4.42-4.47c2,0,3.68,1.3,4.28,3.12c0,0.09,0.14,0.14,0.23,0.05
			c0.7-0.84,1.49-1.58,2.38-2.14c1.63-1.02,3.59-1.54,5.82-1.54c3.68,0,6.52,1.26,8.38,3.68c0.09,0.14,0.23,0.14,0.33,0
			c2-2.42,4.94-3.68,8.66-3.68c3.12,0,5.73,0.93,7.5,2.7c0.93,0.88,1.63,2,2.1,3.26c0.51,1.35,0.75,2.84,0.75,4.47v13.27
			c0,2.75-2.24,4.98-5.03,4.98c-2.75,0-4.98-2.24-4.98-4.98v-9.78c0-3.54-1.02-5.03-3.35-5.03c-1.35,0-2.37,0.56-3.07,1.68
			c-0.61,0.98-0.93,2.38-0.93,4.01v9.08c0,2.79-2.24,5.03-5.03,5.03c-2.79,0-5.03-2.24-5.03-5.03v-9.73c0-2.61-0.42-5.03-3.35-5.03
			c-2.1,0-3.26,1.49-3.91,3.17c-0.05,0.19-0.09,0.37-0.09,0.56v11.04c0,2.79-2.24,5.03-5.03,5.03
			C39.49,43.81,37.26,41.58,37.26,38.78z"/>
		<path d="M90.12,7.58c0-3.07,2.42-5.22,5.5-5.22s5.5,2.14,5.5,5.22c0,3.12-2.37,5.17-5.5,5.17C92.49,12.75,90.12,10.7,90.12,7.58z
			 M90.58,38.78V20.67c0-2.79,2.24-5.03,5.03-5.03c2.79,0,5.03,2.24,5.03,5.03v18.12c0,2.79-2.23,5.03-5.03,5.03
			C92.82,43.81,90.58,41.58,90.58,38.78z"/>
		<path d="M105.34,42.33c0.53-2.56,3.41-3.17,3.41-6.31V20.67c0-2.79,2.28-5.03,5.03-5.03c2.79,0,5.03,2.24,5.03,5.03v14.42
			c0,7.87-5.82,12.62-9.17,12.62C106.28,47.71,104.81,44.9,105.34,42.33z M108.28,7.58c0-2.98,2.37-5.22,5.5-5.22
			c3.12,0,5.5,2.1,5.5,5.22s-2.37,5.17-5.5,5.17C110.66,12.75,108.28,10.61,108.28,7.58z"/>
		<g>
			<path d="M137.58,44.33c-6.1,0-10.48-3.49-10.48-10.43V20.67c0-2.79,2.24-5.03,5.03-5.03s5.03,2.24,5.03,5.03v9.78
				c0,3.26,0.79,4.98,3.49,4.98c3.21,0,4.14-2.65,4.14-6.43v-8.34c0-2.79,2.24-5.03,5.03-5.03c2.79,0,5.03,2.24,5.03,5.03v18.72
				c0,2.42-2,4.42-4.42,4.42c-1.77,0-3.35-0.89-4.28-2.65c-0.09-0.09-0.23-0.14-0.33-0.05C143.86,43.25,140.84,44.33,137.58,44.33z"
				/>
		</g>
	</g>
</g>
</svg>
