<?xml version="1.0" encoding="utf-8"?>
<!-- Generator: Adobe Illustrator 28.1.0, SVG Export Plug-In . SVG Version: 6.00 Build 0)  -->
<svg version="1.1" id="Layer_1" xmlns="http://www.w3.org/2000/svg" xmlns:xlink="http://www.w3.org/1999/xlink" x="0px" y="0px"
	 viewBox="0 0 96.65 182.35" style="enable-background:new 0 0 96.65 182.35;" xml:space="preserve">
<style type="text/css">
	.st0{fill:#FFFFFF;}
	.st1{fill:#DDBFA6;}
	.st2{fill:url(#SVGID_1_);}
	.st3{fill:#F6F3EC;}
	.st4{fill:#DBD6CD;}
	.st5{fill:#906769;}
	.st6{fill:none;}
	.st7{fill:#E2E89D;}
	.st8{fill:#F1F4CE;}
	.st9{fill:#BCBEC0;}
	.st10{fill:#D1D3D4;}
	.st11{fill:#A6A198;}
	.st12{fill:#414042;}
	.st13{fill:#949598;}
	.st14{fill:#A7A9AB;}
	.st15{fill:#DEC0A6;}
	.st16{fill:#C0A788;}
	.st17{fill-rule:evenodd;clip-rule:evenodd;fill:#DEC0A6;}
	.st18{fill:#F2E7DA;}
	.st19{fill:#FEFEFE;}
	.st20{fill:#9B8579;}
	.st21{fill:#FFFFFF;stroke:#000000;stroke-width:0.5;stroke-linecap:round;stroke-linejoin:round;stroke-miterlimit:10;}
	.st22{stroke:#FFFFFF;stroke-width:0.5;stroke-miterlimit:10;}
	.st23{fill:#97867A;}
	.st24{fill:none;stroke:#DA3832;stroke-width:0.5;stroke-linecap:round;stroke-linejoin:round;stroke-miterlimit:10;}
	.st25{fill:#97867A;stroke:#97867A;stroke-width:0.5;stroke-linecap:round;stroke-linejoin:round;stroke-miterlimit:10;}
	.st26{fill:url(#SVGID_00000181088080124123523850000013596808370261245318_);}
	.st27{fill:url(#SVGID_00000000928965435646676980000005112740782739973011_);}
	.st28{fill:url(#SVGID_00000082342474936520309530000003790488331013418141_);}
	.st29{fill:url(#SVGID_00000096026143129576575030000011261376249294209949_);}
	.st30{fill:url(#SVGID_00000043445187631532876980000012498869941663800244_);}
	.st31{fill:url(#SVGID_00000159435386609059440020000014838292001805605514_);}
	.st32{fill:url(#SVGID_00000054966113261688945510000015856634272083558791_);}
	.st33{fill:url(#SVGID_00000119827489587068175760000011241549848316979386_);}
	.st34{fill:url(#SVGID_00000011717138103863386490000005007762311536710817_);}
	.st35{fill:url(#SVGID_00000016063265833374433400000009573103231661606020_);}
	.st36{fill:url(#SVGID_00000181078270477698613170000004918694079898242750_);}
	.st37{fill:url(#SVGID_00000098901195008686656460000003570609156957752970_);}
	.st38{fill:url(#SVGID_00000042707576523839595840000005448286769225813678_);}
	.st39{fill:url(#SVGID_00000147187601471449380830000013201669525153628850_);}
	.st40{fill:url(#SVGID_00000105429064176825653460000014102903177322755978_);}
	.st41{fill:url(#SVGID_00000177469588621639495250000005958210569934052244_);}
	.st42{fill:url(#SVGID_00000021827206891742942610000010659558737732501152_);}
	.st43{fill:url(#SVGID_00000142864830189224307780000007143841282984472764_);}
	.st44{fill:url(#SVGID_00000143615790976798370870000003938812946033677473_);}
	.st45{fill:url(#SVGID_00000149346820274590612720000014328938872189416355_);}
	.st46{fill:url(#SVGID_00000146493152206046665460000008829589721042984629_);}
	.st47{fill:url(#SVGID_00000176017250191030675960000011109342596469995687_);}
	.st48{fill:url(#SVGID_00000148654692781693204030000002643476428486708877_);}
	.st49{fill:url(#SVGID_00000023281543454088260870000008379566749955591349_);}
	.st50{fill:url(#SVGID_00000009551150481423859460000016085857258854901669_);}
	.st51{fill:url(#SVGID_00000140707434650805879550000012995197780432846467_);}
	.st52{fill:url(#SVGID_00000003095190684118849990000015811147915744193446_);}
	.st53{fill:url(#SVGID_00000050654034246918749220000013818311585695561906_);}
	.st54{fill:url(#SVGID_00000127005293360212806000000013385523840144216741_);}
	.st55{fill:url(#SVGID_00000124154501867662134100000009656645199366657973_);}
	.st56{fill:url(#SVGID_00000148639594014430534750000017688924250392319129_);}
	.st57{fill:url(#SVGID_00000020387215515924527380000006288653965364284293_);}
	.st58{fill:url(#SVGID_00000011026960246425799150000005429940262374080688_);}
	.st59{fill:url(#SVGID_00000046304761641750253530000001020220066127790229_);}
	.st60{fill:url(#SVGID_00000031196815851887591600000007887919112782630303_);}
	.st61{fill:url(#SVGID_00000017510991904801741880000006660579638133595312_);}
	.st62{fill:url(#SVGID_00000178163288816909935640000011358178951753489851_);}
	.st63{fill:url(#SVGID_00000165233307119009823410000017421928636535332232_);}
	.st64{fill:url(#SVGID_00000061451239140820444400000011409910762762280609_);}
	.st65{fill:url(#SVGID_00000036963347471753792220000016023490442386673028_);}
	.st66{fill:url(#SVGID_00000129913571431969168890000016035829627957295239_);}
	.st67{fill:url(#SVGID_00000001639872937765688590000001299923779910981809_);}
	.st68{fill:url(#SVGID_00000062169067275919991610000016226192300816640175_);}
	.st69{fill:url(#SVGID_00000124133652761187532290000007714154307046351751_);}
	.st70{fill:url(#SVGID_00000029022327957403568800000010351689928238770567_);}
	.st71{fill:url(#SVGID_00000164484316570529442730000009322983577608952718_);}
	.st72{fill:url(#SVGID_00000100346539589111587780000005077403094191051672_);}
	.st73{fill:url(#SVGID_00000021109871295878889220000002610864046566143162_);}
	.st74{fill:url(#SVGID_00000166646750758693566930000009964803857814706818_);}
	.st75{fill:url(#SVGID_00000176747959112676041710000017485062941819156909_);}
	.st76{fill:url(#SVGID_00000114768104923490444590000013168817423607817350_);}
	.st77{fill:url(#SVGID_00000050647015399122669380000005217553568270980253_);}
	.st78{fill:url(#SVGID_00000173864814531270264910000000741902494171754676_);}
	.st79{fill:url(#SVGID_00000103235913437656926140000009521483569716995491_);}
	.st80{fill:url(#SVGID_00000104705909061081902160000009093756624908331656_);}
	.st81{fill:url(#SVGID_00000070082771398414028740000011936635718417791915_);}
	.st82{fill:url(#SVGID_00000097463502413635007620000015712516093693061041_);}
	.st83{fill:url(#SVGID_00000049929830850273205640000004953453601339419281_);}
	.st84{fill:url(#SVGID_00000142146982272858887410000014250975227614799244_);}
	.st85{fill:url(#SVGID_00000103947998739505122250000017338316737171662770_);}
	.st86{fill:url(#SVGID_00000139979805857231532190000007692509391182478221_);}
	.st87{fill:url(#SVGID_00000053519691462727448530000011333908174989796789_);}
	.st88{fill:url(#SVGID_00000124853940210165345430000013314049928935052983_);}
	.st89{fill:url(#SVGID_00000135652818676023118870000003867603379635026352_);}
	.st90{fill:url(#SVGID_00000053507619771119733420000000347429876160056741_);}
	.st91{fill:url(#SVGID_00000179623551292389105440000007486235249371393412_);}
	.st92{fill:url(#SVGID_00000163032877605398589040000001203359575484196799_);}
	.st93{fill:url(#SVGID_00000023996622647646665820000003055646744894286265_);}
	.st94{fill:url(#SVGID_00000078042884200482574780000004392180587632841137_);}
	.st95{fill:url(#SVGID_00000001625762659880413260000003305180760463413149_);}
	.st96{fill:url(#SVGID_00000107587374855130616250000007529653533421237670_);}
	.st97{fill:url(#SVGID_00000116198848578582251800000004384469980128101775_);}
	.st98{fill:url(#SVGID_00000016783600163497234440000014984255152077340594_);}
	.st99{fill:url(#SVGID_00000049211372996856679360000001301822538012010117_);}
	.st100{fill:url(#SVGID_00000056425863895839557720000003328506435745432483_);}
	.st101{fill:url(#SVGID_00000152241781349343512670000000314637899281468568_);}
	.st102{fill:url(#SVGID_00000044861113786182194930000010807386020914033307_);}
	.st103{fill:url(#SVGID_00000067930754378684245900000011280658711659602567_);}
	.st104{fill:url(#SVGID_00000018223536163193610940000010389342781105388200_);}
	.st105{fill:url(#SVGID_00000062896480467172638980000015223933630760513689_);}
	.st106{fill:url(#SVGID_00000074412062586607374580000016413422376917167246_);}
	.st107{fill:url(#SVGID_00000152258300181876454100000006474075163316198041_);}
	.st108{fill:url(#SVGID_00000149344270866789749850000001619811587274097333_);}
	.st109{fill:url(#SVGID_00000104672307575442226240000000557003444499797914_);}
	.st110{fill:url(#SVGID_00000177463031098052531480000001011398159113380783_);}
	.st111{fill:url(#SVGID_00000035495553622371909340000009292234491612538003_);}
	.st112{fill:url(#SVGID_00000127026876848624568980000006079821051731210670_);}
	.st113{fill:url(#SVGID_00000009586383301985181300000009753031266988284085_);}
	.st114{fill:url(#SVGID_00000016044147702589325120000010209330554537512585_);}
	.st115{fill:url(#SVGID_00000072251541779409941990000005347170424835118747_);}
	.st116{fill:url(#SVGID_00000075143641719492642940000009768847933173312129_);}
	.st117{fill:url(#SVGID_00000126282061422315130690000014655424580880851591_);}
	.st118{fill:url(#SVGID_00000127738778547375439410000013528021804459200160_);}
	.st119{fill:url(#SVGID_00000014625106163867545670000002526637149721784723_);}
	.st120{fill:url(#SVGID_00000171700449401885648270000000281346301765048765_);}
	.st121{fill:url(#SVGID_00000160179959326756906450000014442354794927957380_);}
	.st122{fill:url(#SVGID_00000121243003178938078130000006645076679972973211_);}
	.st123{fill:url(#SVGID_00000071560576294100347440000010050222128536181689_);}
	.st124{fill:url(#SVGID_00000103242125774196385640000017177439988044624058_);}
	.st125{fill:url(#SVGID_00000002374512657019951270000008960142132394716033_);}
	.st126{fill:url(#SVGID_00000101080823652598119390000010971806677708228008_);}
	.st127{fill:url(#SVGID_00000005977928934413210950000006307759103143839378_);}
	.st128{fill:url(#SVGID_00000034070550632664506420000008903111962937588888_);}
	.st129{fill:url(#SVGID_00000121239991976258697050000000986609184936586399_);}
	.st130{fill:url(#SVGID_00000101064838317437831020000002895278606780216461_);}
	.st131{fill:url(#SVGID_00000129905347280607703690000011786949373146317965_);}
	.st132{fill:url(#SVGID_00000067217271315243156370000012813912220275389570_);}
	.st133{fill:url(#SVGID_00000000925300409639600880000000202261979152379529_);}
	.st134{fill:url(#SVGID_00000030444699304985023420000002432161924078545336_);}
	.st135{fill:url(#SVGID_00000150094286046893265370000011445321374295862952_);}
	.st136{fill:url(#SVGID_00000024685329004166602010000016700183389640660899_);}
	.st137{fill:url(#SVGID_00000113327354791313039130000010426290562869282953_);}
	.st138{fill:url(#SVGID_00000080167322770344880230000012278123032547033780_);}
	.st139{fill:url(#SVGID_00000094604240310976692180000012736285498174179233_);}
	.st140{fill:url(#SVGID_00000137093839858007906550000009656583339030885024_);}
	.st141{fill:url(#SVGID_00000035505849897513555440000006050720135729852586_);}
	.st142{fill:url(#SVGID_00000155837923384694661780000003188066079662379403_);}
	.st143{fill:url(#SVGID_00000133523151389433551590000012817525400635854736_);}
	.st144{fill:url(#SVGID_00000088828320087990806190000000332515073859348153_);}
	.st145{fill:url(#SVGID_00000124864944950602863570000001309992281361555881_);}
	.st146{fill:url(#SVGID_00000163757772756119719740000001474378319541732522_);}
	.st147{fill:url(#SVGID_00000159433012759781401830000012825923310823457168_);}
	.st148{fill:url(#SVGID_00000060026540342626618620000004170282474108604556_);}
	.st149{fill:url(#SVGID_00000064319058630665513560000011223296379338152332_);}
	.st150{fill:url(#SVGID_00000058552092622689971300000015911510719245822853_);}
	.st151{fill:url(#SVGID_00000043430070881363777090000018108018783954664887_);}
	.st152{fill:url(#SVGID_00000173865499984216746600000010137272538228432530_);}
	.st153{fill:url(#SVGID_00000045580919744866839680000013274968153086310321_);}
	.st154{fill:url(#SVGID_00000078018384459705746180000015933636073610194093_);}
	.st155{fill:url(#SVGID_00000021117357903445751370000007716797261998865051_);}
	.st156{fill:url(#SVGID_00000020399204625806355630000002265185379897093287_);}
	.st157{fill:url(#SVGID_00000016788211105912349930000008939932497214622346_);}
	.st158{fill:url(#SVGID_00000163070088581626752220000003597320877776806784_);}
	.st159{fill:url(#SVGID_00000167363526242095605000000007445671033785840265_);}
	.st160{fill:url(#SVGID_00000179614113332849098540000015710077030374229415_);}
	.st161{fill:url(#SVGID_00000075131047932389043140000005158487736241582506_);}
	.st162{fill:url(#SVGID_00000182530265511067917870000013955377098934041014_);}
	.st163{fill:url(#SVGID_00000173873726926663859530000009786378267659584685_);}
	.st164{fill:url(#SVGID_00000181046361684131135930000011960448772071929989_);}
	.st165{fill:url(#SVGID_00000086668380849839002710000008900242731917140385_);}
	.st166{fill:url(#SVGID_00000168816723835142479440000002172678979822558638_);}
	.st167{fill:url(#SVGID_00000108274965182266017570000014113867994599128205_);}
	.st168{fill:url(#SVGID_00000072253568112551831110000011758163442356911017_);}
	.st169{fill:url(#SVGID_00000175286844196879601540000009681361713903788972_);}
	.st170{fill:url(#SVGID_00000011727774642886061750000012122857031870909857_);}
	.st171{fill:url(#SVGID_00000088811702090187751120000003035502765679095230_);}
	.st172{fill:url(#SVGID_00000166643342594332875460000015120677979658443419_);}
	.st173{fill:url(#SVGID_00000167360732748401050170000000958477706630049670_);}
	.st174{fill:url(#SVGID_00000036240899798541263840000017347822777985569683_);}
	.st175{fill:url(#SVGID_00000018207987715981990580000005508063772660500910_);}
	.st176{fill:url(#SVGID_00000060000124456719103030000000141885410450015408_);}
	.st177{fill:url(#SVGID_00000043456605140205858390000018328005544194783886_);}
	.st178{fill:url(#SVGID_00000183244563113168908330000012494843272385954953_);}
	.st179{fill:url(#SVGID_00000103946998862671242180000007639306002178517917_);}
	.st180{fill:url(#SVGID_00000124858431905133683660000014654694520090632837_);}
	.st181{fill:url(#SVGID_00000096032097506228987610000015079710629852336807_);}
	.st182{fill:url(#SVGID_00000018204245086632556710000016100550189519051926_);}
	.st183{fill:url(#SVGID_00000137820863611478987230000016495499468267741572_);}
	.st184{fill:url(#SVGID_00000145040837590598704070000012213451947175292058_);}
	.st185{fill:url(#SVGID_00000021808175828231351170000013421811597538216624_);}
	.st186{fill:url(#SVGID_00000120556666602642978290000010774288928807079865_);}
	.st187{fill:url(#SVGID_00000005957159062416012320000006718449272242403737_);}
	.st188{fill:url(#SVGID_00000150818736100298636060000005099160592424983698_);}
	.st189{fill:url(#SVGID_00000009562198257845863000000003718197913180867488_);}
	.st190{fill:url(#SVGID_00000056412871812703459750000013118102939915999897_);}
	.st191{fill:url(#SVGID_00000174588888627312225930000011932938463701118340_);}
	.st192{fill:url(#SVGID_00000019668672981981938590000002300761047179961517_);}
	.st193{fill:url(#SVGID_00000070077351974512291040000009697089858148977043_);}
	.st194{fill:url(#SVGID_00000178167594336294025210000010996744778339430294_);}
	.st195{fill:url(#SVGID_00000158738230344097820210000009001950828293905827_);}
	.st196{fill:url(#SVGID_00000157292023812969486010000016053752481766364071_);}
	.st197{fill:url(#SVGID_00000116206004117853696140000000124512913370400950_);}
	.st198{fill:url(#SVGID_00000081621680620379976500000008972889405799902631_);}
	.st199{fill:url(#SVGID_00000077296810658381730610000000659219277172985477_);}
	.st200{fill:url(#SVGID_00000081617834385351880160000004346029948113408932_);}
	.st201{fill:url(#SVGID_00000056402015194191966810000003853935421220660388_);}
	.st202{fill:url(#SVGID_00000067229804677935422870000009636409360929682324_);}
	.st203{fill:url(#SVGID_00000126287994176492315820000004154053528287565742_);}
	.st204{fill:url(#SVGID_00000098908613369729627070000002545537743308988338_);}
	.st205{fill:url(#SVGID_00000023977107530806416520000005048454217866950835_);}
	.st206{fill:url(#SVGID_00000017515235564131027390000014514506391126574006_);}
	.st207{fill:url(#SVGID_00000104687648517415634600000014078847535180633012_);}
	.st208{fill:url(#SVGID_00000085939019783180903430000007984596499863670184_);}
	.st209{fill:url(#SVGID_00000085241278679806825240000015188764451004848540_);}
	.st210{fill:url(#SVGID_00000065045756522138120370000015475222330041163188_);}
	.st211{fill:url(#SVGID_00000088846853595446590730000008990924407030422956_);}
	.st212{fill:url(#SVGID_00000018915287851173398620000002088746185829115033_);}
	.st213{fill:url(#SVGID_00000107576647653714100580000016876701269567505853_);}
	.st214{fill:url(#SVGID_00000101816929996720782140000014557109756776744364_);}
	.st215{fill:url(#SVGID_00000170964207446068174320000017667413259063981187_);}
	.st216{fill:url(#SVGID_00000119805719074985311480000016392454569350638997_);}
	.st217{fill:url(#SVGID_00000060737592386834647360000008376882661786128052_);}
	.st218{fill:url(#SVGID_00000046332868105999574940000000620165623414716341_);}
	.st219{fill:url(#SVGID_00000030468897220252764060000009664707125841303724_);}
	.st220{fill:url(#SVGID_00000127723232688043554720000009055837742878213521_);}
	.st221{fill:url(#SVGID_00000021107159000340894130000018412410787372659608_);}
	.st222{fill:url(#SVGID_00000034770287272917326080000008777636068352880533_);}
	.st223{fill:url(#SVGID_00000176750224472681733820000009133766233124685475_);}
	.st224{fill:url(#SVGID_00000161603929260540610440000002363267633527289021_);}
	.st225{fill:url(#SVGID_00000140002006746703060600000012678680125732345003_);}
	.st226{fill:url(#SVGID_00000096760785646469072980000010878391685599054723_);}
	.st227{fill:url(#SVGID_00000070808090538467716450000013530866166919584151_);}
	.st228{fill:url(#SVGID_00000080197951363299264730000006281408472854865074_);}
	.st229{fill:url(#SVGID_00000183961118873609556540000007900757170692967356_);}
	.st230{fill:url(#SVGID_00000140006716920413723020000013306579132853509310_);}
	.st231{fill:url(#SVGID_00000040571762414739854460000004814020791883468427_);}
	.st232{fill:url(#SVGID_00000153682096938773596110000015465678802435931534_);}
	.st233{fill:url(#SVGID_00000103979620875897112220000002635562351292476298_);}
	.st234{fill:url(#SVGID_00000054981884023781339800000018086059386895214775_);}
	.st235{fill:url(#SVGID_00000070797720358885466530000004128318725649701787_);}
	.st236{fill:url(#SVGID_00000170964038248037568980000016616241658086220169_);}
	.st237{fill:url(#SVGID_00000182513600028336572720000006788442815214659975_);}
	.st238{fill:url(#SVGID_00000071539030902648445350000007118565708966564489_);}
	.st239{fill:url(#SVGID_00000139275214988579933710000008626555864837568700_);}
	.st240{fill:url(#SVGID_00000121965110399890514030000011367884409763031184_);}
	.st241{fill:url(#SVGID_00000105429049170964939810000016573516858928206473_);}
	.st242{fill:url(#SVGID_00000018237516138505399860000000021306303613988994_);}
	.st243{fill:url(#SVGID_00000094592804250900347090000015209513238825930680_);}
	.st244{fill:url(#SVGID_00000092453410009640708560000011179532036920231572_);}
	.st245{fill:url(#SVGID_00000129168866326414021030000000758378349003157897_);}
	.st246{fill:url(#SVGID_00000038385489682994299840000016097918090148440724_);}
	.st247{fill:url(#SVGID_00000129169178305236168130000017751901353799941548_);}
	.st248{fill:url(#SVGID_00000158027791776382628880000015354086547029172616_);}
	.st249{fill:url(#SVGID_00000000218576264957072920000010390587448641198504_);}
	.st250{fill:url(#SVGID_00000170957703879060756820000007141284546900192682_);}
	.st251{fill:url(#SVGID_00000079477051918917892020000000612864520061861793_);}
	.st252{fill:url(#SVGID_00000030481678649436720630000014363699526226325183_);}
	.st253{fill:url(#SVGID_00000047047804890131234110000009901011095592722836_);}
	.st254{fill:url(#SVGID_00000007412776116789932410000003959087372943448461_);}
	.st255{fill:url(#SVGID_00000109003353262974423270000011488384851750210436_);}
	.st256{fill:url(#SVGID_00000119088237371529368470000001275055794499189894_);}
	.st257{fill:url(#SVGID_00000088122052373763371880000000493258500119688639_);}
	.st258{fill:url(#SVGID_00000137816372015980901420000001847375904182118061_);}
	.st259{fill:url(#SVGID_00000147205726764753264960000017682950218286993546_);}
	.st260{fill:url(#SVGID_00000150092579567392000600000014431588273224399024_);}
	.st261{fill:url(#SVGID_00000013162012555381707560000007237920999895831456_);}
	.st262{fill:url(#SVGID_00000109712807555267541540000011081672926007307424_);}
	.st263{fill:url(#SVGID_00000085235798697184612970000005979296905894129331_);}
	.st264{fill:url(#SVGID_00000124145511897100906630000014745134395388659626_);}
	.st265{fill:url(#SVGID_00000133514619455119215290000004610897857918092726_);}
	.st266{fill:url(#SVGID_00000183213007290201741380000001810855987676266941_);}
	.st267{fill:url(#SVGID_00000081637093716500131350000010415986442604745100_);}
	.st268{fill:url(#SVGID_00000100343980113915039660000016633326259535797380_);}
	.st269{fill:url(#SVGID_00000089551262829525625750000012352672090840401320_);}
	.st270{fill:url(#SVGID_00000044874345916979104780000012121753568310627764_);}
	.st271{fill:url(#SVGID_00000045576958393179904130000003987410070988787859_);}
	.st272{fill:url(#SVGID_00000028325233948575645720000017970181758999277967_);}
	.st273{fill:url(#SVGID_00000084529475308667515780000014848461971247679383_);}
	.st274{fill:url(#SVGID_00000133494763830894388770000005667596439326067348_);}
	.st275{fill:url(#SVGID_00000164484601505310634720000015017083879127325338_);}
	.st276{fill:url(#SVGID_00000111163963539838737700000011509497701361386133_);}
	.st277{fill:url(#SVGID_00000069371426367638680560000005626891782848418178_);}
	.st278{fill:url(#SVGID_00000114763784117884065500000002172574130002983568_);}
	.st279{fill:url(#SVGID_00000110453349451487883000000017539776072211894691_);}
	.st280{fill:url(#SVGID_00000181801517323263706330000013344050497646556339_);}
	.st281{fill:url(#SVGID_00000080198059724909648240000011042757474407989180_);}
	.st282{fill:url(#SVGID_00000022533086072219636480000012826029008274789274_);}
	.st283{fill:url(#SVGID_00000150824777474517915980000009510533476794749066_);}
	.st284{fill:url(#SVGID_00000140736949052229466390000012118162746930027148_);}
	.st285{fill:url(#SVGID_00000001642893841826670190000017179612915479285660_);}
	.st286{fill:url(#SVGID_00000101802749028977246010000006876801381091654568_);}
	.st287{fill:url(#SVGID_00000103265422610753162240000016720833706502857864_);}
	.st288{fill:url(#SVGID_00000077288613745003059480000000535365061571825308_);}
	.st289{fill:url(#SVGID_00000176024219793766690610000001806075101726748334_);}
	.st290{fill:url(#SVGID_00000098215214185766300480000005693461414377400488_);}
	.st291{fill:url(#SVGID_00000015320183291387668000000002309371461147435144_);}
	.st292{fill:url(#SVGID_00000155835880288556201840000002554271048272909721_);}
	.st293{fill:url(#SVGID_00000010277955320894351550000010421925482249225862_);}
	.st294{fill:url(#SVGID_00000092433354041294236600000010079003705624253325_);}
	.st295{fill:url(#SVGID_00000126314205012721756180000017784092813673691320_);}
	.st296{fill:url(#SVGID_00000068666200607185883740000000054066869063240889_);}
	.st297{fill:url(#SVGID_00000021102463080552411780000012485138398581317282_);}
	.st298{fill:url(#SVGID_00000042695685507152677150000014492325722548443573_);}
	.st299{fill:url(#SVGID_00000142893317342658500450000009389876353625826744_);}
	.st300{fill:url(#SVGID_00000053509347481134507390000017378362436227416472_);}
	.st301{fill:url(#SVGID_00000180336429784314099750000005226518705926696066_);}
	.st302{fill:url(#SVGID_00000107556397490256839100000010048703538579364232_);}
	.st303{fill:url(#SVGID_00000009570296972888164420000011801967057184944000_);}
	.st304{fill:url(#SVGID_00000163758669675741824000000016495747574509250486_);}
	.st305{fill:url(#SVGID_00000060020617542593324160000003828704887425636508_);}
	.st306{fill:url(#SVGID_00000160170862895537699550000003507317771852331196_);}
	.st307{fill:url(#SVGID_00000096776170193902026100000014203197473320104856_);}
	.st308{fill:url(#SVGID_00000038389422485404306420000000218634711585372317_);}
	.st309{fill:url(#SVGID_00000122711722160831159840000007312045409188427690_);}
	.st310{fill:url(#SVGID_00000102502051804567027520000015902731433115788942_);}
	.st311{fill:url(#SVGID_00000141423570819026539340000011778591015230949507_);}
	.st312{fill:url(#SVGID_00000169549477029860349570000003939692625453642655_);}
	.st313{fill:url(#SVGID_00000016045590874937127000000004327405811851949971_);}
	.st314{fill:url(#SVGID_00000135653605504445844160000003760072474299927479_);}
	.st315{fill:url(#SVGID_00000085944440774538641360000010503532458877534617_);}
	.st316{fill:url(#SVGID_00000044876433841867455650000003717703839876822188_);}
	.st317{fill:url(#SVGID_00000149347518141982652680000016015410777933081252_);}
	.st318{fill:url(#SVGID_00000020374603182609526640000001631805104165328266_);}
	.st319{fill:url(#SVGID_00000097481480340727968250000011916977926777436343_);}
	.st320{fill:url(#SVGID_00000127731602194009341410000006208463829930280624_);}
	.st321{fill:url(#SVGID_00000024719992413839849690000004041322693481018002_);}
	.st322{fill:url(#SVGID_00000010290610293991345410000001602648732759542660_);}
	.st323{fill:url(#SVGID_00000129187263369894618960000001035191475051070604_);}
	.st324{fill:url(#SVGID_00000111150698490594075340000008499680192400450480_);}
	.st325{fill:url(#SVGID_00000059284997004312675890000015147126163552505234_);}
	.st326{fill:url(#SVGID_00000010281733856950122270000005886221687378900868_);}
	.st327{fill:url(#SVGID_00000134960663610486800030000004248111112530328733_);}
	.st328{fill:url(#SVGID_00000105427462007764111440000000443684716479746688_);}
	.st329{fill:url(#SVGID_00000114764669535344642640000017704114316556090500_);}
	.st330{fill:url(#SVGID_00000116935124320892629220000009344425355465486477_);}
	.st331{fill:url(#SVGID_00000145018254060192307660000015718174075629047179_);}
	.st332{fill:url(#SVGID_00000073702010528220926680000015370479069748695433_);}
	.st333{fill:url(#SVGID_00000003094293769935694870000015761164276658381442_);}
	.st334{fill:url(#SVGID_00000019675039748981831140000013904858309859058563_);}
	.st335{fill:url(#SVGID_00000022532055293719402730000004744801362252119469_);}
	.st336{fill:url(#SVGID_00000135680628431086326110000004111721065995102630_);}
	.st337{fill:url(#SVGID_00000138544167499768658780000014000861510280020131_);}
	.st338{fill:url(#SVGID_00000116213680704597992200000010444467284819753094_);}
	.st339{fill:url(#SVGID_00000085232754373961166700000010259756266750013092_);}
	.st340{fill:url(#SVGID_00000158720248444485997750000004699703867139086508_);}
	.st341{fill:url(#SVGID_00000111906782991712786300000000079238332255105200_);}
	.st342{fill:url(#SVGID_00000085952826324918222000000018167571897344952458_);}
	.st343{fill:url(#SVGID_00000054955268320180508290000006541497981058470561_);}
	.st344{fill:url(#SVGID_00000091737374607834914710000003413577697932189609_);}
	.st345{fill:url(#SVGID_00000163072542321224008950000011286110139314959790_);}
	.st346{fill:url(#SVGID_00000018219951645024295680000008529930973906046644_);}
	.st347{fill:url(#SVGID_00000068649984936778863800000006285606685054369204_);}
	.st348{fill:url(#SVGID_00000097481227133552185060000014744219644765085623_);}
	.st349{fill:url(#SVGID_00000057832625283380686120000001902549625336878210_);}
	.st350{fill:url(#SVGID_00000034047511435902940390000004444210029212926087_);}
	.st351{fill:url(#SVGID_00000030459114720049858570000008871312209745076405_);}
	.st352{fill:url(#SVGID_00000119093027180794975730000007214671127790859160_);}
	.st353{fill:url(#SVGID_00000089536628495158995470000002510050991792734395_);}
	.st354{fill:url(#SVGID_00000059297493412166132660000001349725501454761094_);}
	.st355{fill:url(#SVGID_00000098200646724387483050000006089510197282809491_);}
	.st356{fill:url(#SVGID_00000154423636921472337190000012671501645604743833_);}
	.st357{fill:url(#SVGID_00000106863429004067720040000007307567258154647181_);}
	.st358{fill:url(#SVGID_00000104703960708332208400000004939343325062741901_);}
	.st359{fill:url(#SVGID_00000124856510113525845700000007934352771669770932_);}
	.st360{fill:url(#SVGID_00000163070590610885084980000001307111550288571295_);}
	.st361{fill:url(#SVGID_00000001650432105994938090000017310263795936557216_);}
	.st362{fill:url(#SVGID_00000159439109526295256170000009191476081995328902_);}
	.st363{fill:url(#SVGID_00000090288498219993396730000005830121048503774897_);}
	.st364{fill:url(#SVGID_00000044891028233885618230000017977102739661829278_);}
	.st365{fill:url(#SVGID_00000037655237218142380250000004629300831285594812_);}
	.st366{fill:url(#SVGID_00000052079519334304413360000002020456201454626202_);}
	.st367{fill:url(#SVGID_00000005266791401959250220000003578492054475180958_);}
	.st368{fill:url(#SVGID_00000040559859712950617200000016960308430088733602_);}
	.st369{fill:url(#SVGID_00000121245528860444840530000008379002636041741447_);}
	.st370{fill:url(#SVGID_00000061459703185073121500000011265567172308713876_);}
	.st371{fill:url(#SVGID_00000047052914785116632900000015352940567803141024_);}
	.st372{fill:url(#SVGID_00000103977669983330119610000004397676693836607378_);}
	.st373{fill:url(#SVGID_00000055706665098245147950000002048571736743628175_);}
	.st374{fill:url(#SVGID_00000038394680076525020860000003168465150706042498_);}
	.st375{fill:url(#SVGID_00000132082649966195587470000010703866864302079142_);}
	.st376{fill:url(#SVGID_00000098194037108384141380000012584283829494521010_);}
	.st377{fill:url(#SVGID_00000041259783563333783900000004143415335858069908_);}
	.st378{fill:url(#SVGID_00000044880583195235044660000007462809963748444080_);}
	.st379{fill:url(#SVGID_00000052825665734860139930000012665252359859334046_);}
	.st380{fill:url(#SVGID_00000139287694729734727920000005891608275152359346_);}
	.st381{fill:url(#SVGID_00000020370957274764232830000006974557227090080142_);}
	.st382{fill:url(#SVGID_00000094575762489545227310000005756071622630607006_);}
	.st383{fill:url(#SVGID_00000119816804269352255940000003213149976005612693_);}
	.st384{fill:url(#SVGID_00000152980266819047656630000007993267622026516905_);}
	.st385{fill:url(#SVGID_00000130627301509451837950000008514939977697410457_);}
	.st386{fill:url(#SVGID_00000155846651596554023760000010560594445135239064_);}
	.st387{fill:url(#SVGID_00000026136610996082449940000000399758915313211299_);}
	.st388{fill:url(#SVGID_00000006702352630226718600000002582981623165303722_);}
	.st389{fill:url(#SVGID_00000016051042037596501590000000597041762879520939_);}
	.st390{fill:url(#SVGID_00000005258129039520567410000004041225660951608749_);}
	.st391{fill:url(#SVGID_00000027596921078358502560000008363211805193196218_);}
	.st392{fill:url(#SVGID_00000176032261754334136900000012079614381154286746_);}
	.st393{fill:url(#SVGID_00000080203468913990895010000000292322409444531134_);}
	.st394{fill:url(#SVGID_00000023282489820953165080000011092596655236462518_);}
	.st395{fill:url(#SVGID_00000031165045621804265130000000626463649692104098_);}
	.st396{fill:url(#SVGID_00000005264278294197315900000014941930546274298036_);}
	.st397{fill:url(#SVGID_00000026865724102581373480000006213957643450592389_);}
	.st398{fill:url(#SVGID_00000098940153738046504840000005547733298957497517_);}
	.st399{fill:url(#SVGID_00000156560498108543167550000010658294770579078025_);}
	.st400{fill:url(#SVGID_00000124136988253156862840000006223191056887068546_);}
	.st401{fill:url(#SVGID_00000170240376514253820650000009119401931589326520_);}
	.st402{fill:url(#SVGID_00000175287966932824707590000006605448137449267103_);}
	.st403{fill:url(#SVGID_00000003078588889762052920000008824303974376914100_);}
	.st404{fill:url(#SVGID_00000016049403849473882140000015192482582843523713_);}
	.st405{fill:url(#SVGID_00000137123036082144918330000006964922327913722511_);}
	.st406{fill:url(#SVGID_00000171705083460405239470000001933778470394010555_);}
	.st407{fill:url(#SVGID_00000124849821546591472430000008499529613122700218_);}
	.st408{fill:url(#SVGID_00000095309799609626394230000006336645120252282559_);}
	.st409{fill:url(#SVGID_00000127019916680226254630000006188321602160963718_);}
	.st410{fill:url(#SVGID_00000085930854573775592620000003182999205407003543_);}
	.st411{fill:url(#SVGID_00000096756582483142773810000007565077287258855072_);}
	.st412{fill:url(#SVGID_00000047051460697218854130000010966790542742616464_);}
	.st413{fill:url(#SVGID_00000168090281368611217950000007968543422137474744_);}
	.st414{fill:url(#SVGID_00000015334762864426798500000015094136339631306370_);}
	.st415{fill:url(#SVGID_00000168815934100123414770000018419595035147062709_);}
	.st416{fill:url(#SVGID_00000121252300842557211470000018093435728398777737_);}
	.st417{fill:url(#SVGID_00000043430309002084673260000010631583950445192628_);}
	.st418{fill:url(#SVGID_00000162333122063987145170000007312511648920704647_);}
	.st419{fill:url(#SVGID_00000121991974548410325560000015648813041140132513_);}
	.st420{fill:url(#SVGID_00000065793920367577465040000015955268019372347553_);}
	.st421{fill:url(#SVGID_00000131358909570511121890000005612595230156351375_);}
	.st422{fill:url(#SVGID_00000031916283266794750490000006222505752385520276_);}
	.st423{fill:url(#SVGID_00000005965060817726444150000007125582959972188320_);}
	.st424{fill:url(#SVGID_00000121980495191862674080000004826573313258824870_);}
	.st425{fill:url(#SVGID_00000022522619838378352120000017510906350295504546_);}
	.st426{fill:url(#SVGID_00000057828213086169633090000000118345762276866453_);}
	.st427{fill:url(#SVGID_00000048459050422306207590000014332656121956261809_);}
	.st428{fill:url(#SVGID_00000159470643542380798790000008582437977506048398_);}
	.st429{fill:url(#SVGID_00000166671773878148352470000006004353745562052520_);}
	.st430{fill:url(#SVGID_00000182518433737953311910000009824634945094363826_);}
	.st431{fill:url(#SVGID_00000080202298454570646680000007137522191415660169_);}
	.st432{fill:url(#SVGID_00000097476520743951384090000010522686152204463246_);}
	.st433{fill:url(#SVGID_00000176745186555804959050000015586755681472520355_);}
	.st434{fill:url(#SVGID_00000116197297147223648010000014861275843485941172_);}
	.st435{fill:url(#SVGID_00000029730090214837609520000012493634601292173707_);}
	.st436{fill:url(#SVGID_00000094612909407725059010000013791126107267109528_);}
	.st437{fill:url(#SVGID_00000179638759841308958050000004456449440100115853_);}
	.st438{fill:url(#SVGID_00000130647202214310009520000015321047717895183294_);}
	.st439{fill:url(#SVGID_00000163757013142759355920000000856631689654036921_);}
	.st440{fill:url(#SVGID_00000006669412548024132820000009044799229436199562_);}
	.st441{fill:url(#SVGID_00000125587446154154706350000006308601510320201618_);}
	.st442{fill:url(#SVGID_00000007422614127854576130000011482414185424429958_);}
	.st443{fill:url(#SVGID_00000176033670459254305160000003108833948890902402_);}
	.st444{fill:url(#SVGID_00000012446557370230511220000009196572810885984164_);}
	.st445{fill:url(#SVGID_00000101103746343767341480000008815335983387740810_);}
	.st446{fill:url(#SVGID_00000001642816857781920840000015707077702284900229_);}
	.st447{fill:url(#SVGID_00000093167363836128017530000016193371518278632882_);}
	.st448{fill:url(#SVGID_00000129915004354074238280000017454775564051222447_);}
	.st449{fill:url(#SVGID_00000044159284408838091360000011817590751239924113_);}
	.st450{fill:url(#SVGID_00000167370365669143608230000003308074509301944706_);}
	.st451{fill:url(#SVGID_00000008866274846545422050000001565049383674337420_);}
	.st452{fill:url(#SVGID_00000105400104662091940220000002526173116290925460_);}
	.st453{stroke:#FFFFFF;stroke-width:0.25;stroke-miterlimit:10;}
	.st454{fill:url(#SVGID_00000038387431156934425820000009670794108227220099_);}
	.st455{fill:none;stroke:#DEC0A6;stroke-width:0.25;stroke-miterlimit:10;}
	.st456{fill:#E6E7E8;}
	.st457{fill:#659E5D;}
	.st458{fill:#FCFCFB;}
	.st459{fill:#A27D56;}
	.st460{fill:url(#SVGID_00000181782865324844497520000016293908388612885433_);}
	.st461{fill:url(#SVGID_00000098929023180633469790000007713498441712098457_);}
	.st462{fill:#7AA759;}
	.st463{fill:#5B884A;}
	.st464{fill:#9DC374;}
	.st465{fill:#C6D289;}
	.st466{fill:#F0EFED;}
	.st467{fill:#374B31;}
	.st468{fill:#845F41;}
	.st469{fill:url(#SVGID_00000175289783970557120420000007427721836991730851_);}
	.st470{fill:none;stroke:#DA3832;stroke-miterlimit:10;}
	.st471{fill:none;stroke:#000000;stroke-miterlimit:10;}
	.st472{fill:#DA3832;}
	.st473{fill:none;stroke:#D73832;stroke-miterlimit:10;}
	.st474{fill:#D73832;}
	.st475{fill:#573A4E;}
	.st476{fill:#8F6769;}
	.st477{stroke:#000000;stroke-width:0.5;stroke-linecap:round;stroke-linejoin:round;stroke-miterlimit:10;}
	.st478{stroke:#000000;stroke-width:0.25;stroke-linecap:round;stroke-linejoin:round;stroke-miterlimit:10;}
	.st479{fill:#8F6769;stroke:#000000;stroke-width:0.5;stroke-linecap:round;stroke-linejoin:round;stroke-miterlimit:10;}
	.st480{stroke:#000000;stroke-linecap:round;stroke-linejoin:round;stroke-miterlimit:10;}
	.st481{fill:#A8A9AB;}
	.st482{fill:none;stroke:#D73832;stroke-width:0.5;stroke-linecap:round;stroke-linejoin:round;stroke-miterlimit:10;}
	.st483{fill:#FFFFFF;stroke:#FFFFFF;stroke-width:0.5;stroke-miterlimit:10;}
	.st484{fill:#D73832;stroke:#D73832;stroke-linecap:round;stroke-linejoin:round;stroke-miterlimit:10;}
	.st485{fill:#374A31;}
	.st486{fill:#ABC878;}
	.st487{fill:#D7CEC6;}
	.st488{fill:#84B060;}
	.st489{fill:#668C4B;}
	.st490{fill:#DDBFA6;stroke:#DDBFA6;stroke-width:0.5;stroke-linecap:round;stroke-linejoin:round;stroke-miterlimit:10;}
	.st491{fill-rule:evenodd;clip-rule:evenodd;fill:#DDBFA6;}
	.st492{fill:#5D884A;}
	.st493{fill:#C6D189;}
	.st494{fill:#7BA658;}
	.st495{fill:#9FC274;}
	.st496{fill:none;stroke:#000000;stroke-width:0.1;stroke-linecap:round;stroke-linejoin:round;stroke-miterlimit:10;}
	.st497{fill:#A17D56;}
	.st498{fill:#835F41;}
	.st499{fill:none;stroke:#000000;stroke-width:1.5;stroke-linecap:round;stroke-linejoin:round;stroke-miterlimit:10;}
	.st500{fill:none;stroke:#D73832;stroke-width:5;stroke-linecap:round;stroke-linejoin:round;}
	.st501{fill-rule:evenodd;clip-rule:evenodd;}
	.st502{fill:#679D5D;}
	.st503{fill:#BFA788;}
	.st504{fill:#9AC455;}
	.st505{fill:#D8DE50;}
	.st506{fill:none;stroke:#000000;stroke-width:2;stroke-linecap:round;stroke-linejoin:round;stroke-miterlimit:10;}
	.st507{fill:none;stroke:#DDBFA6;stroke-width:0.25;stroke-miterlimit:10;}
	.st508{fill:#86B455;}
	.st509{fill:#FEFEFD;}
	.st510{fill:none;stroke:#D73832;stroke-width:0.5;stroke-miterlimit:10;}
	.st511{fill:url(#SVGID_00000179615354531277080940000004593958432454812081_);}
	.st512{fill:#BD9C72;}
	.st513{stroke:#000000;stroke-miterlimit:10;}
	.st514{fill:none;stroke:#DA3832;stroke-width:5;stroke-linecap:round;stroke-linejoin:round;}
	.st515{fill:none;stroke:#DA3832;stroke-width:5;stroke-linecap:round;stroke-linejoin:round;stroke-dasharray:11.5144,11.5144;}
	.st516{fill:none;stroke:#DA3832;stroke-width:5;stroke-linecap:round;stroke-linejoin:round;stroke-dasharray:12,12;}
	.st517{fill:none;stroke:#DA3832;stroke-width:5;stroke-linecap:round;stroke-linejoin:round;stroke-dasharray:11.5556,11.5556;}
	.st518{stroke:#000000;stroke-width:0.5;stroke-miterlimit:10;}
	.st519{stroke:#000000;stroke-width:0.25;stroke-miterlimit:10;}
	.st520{fill:url(#SVGID_00000106866411410108516800000002917897003334973104_);}
	.st521{fill:url(#SVGID_00000155843099323804562940000011577549152078015123_);}
</style>
<g>
	<g>
		<g>
			<ellipse class="st13" cx="36.26" cy="177.96" rx="19.56" ry="4.39"/>
		</g>
		<g>
			<g>
				<g>
					<path d="M35.17,65.69c0.02-3.95-0.98-7.57-1.39-11.28c-0.29-2.61-0.75-5.23-1.2-7.82c-0.62-3.55-1.29-7.08-1.75-10.65
						c-0.4-3.1-1.07-6.17-1.54-9.27c-0.41-2.7-0.68-5.43-1.06-8.14c-0.24-1.66-0.66-3.3-0.87-4.97C26.9,9.87,26,6.23,25.83,2.5
						c-0.04-0.92-0.81-2.03,0.74-2.43c0.4-0.1,0.76-0.14,1.23,0.18c5.01,3.46,8.13,8.31,10.38,13.83c1.7,4.18,3.63,8.28,5.04,12.58
						c0.1,0.3,0.11,0.85,0.55,0.75c0.38-0.09,0.66-0.42,0.71-0.98c0.19-2.36,0.87-4.63,1.35-6.95c0.44-2.17,0.75-4.36,1.1-6.55
						c0.13-0.83,0.47-1.65,1.24-1.84c1-0.24,1.26,0.7,1.49,1.48c0.07,0.24,0.18,0.47,0.22,0.72c0.38,2.75,0.75,5.51,1.13,8.27
						c0.53,3.77,0.8,7.57,1.29,11.33c0.32,2.48,0.4,4.99,0.71,7.47c0.29,2.37,0.51,4.81,0.42,7.23c-0.02,0.5-0.05,0.98,0.08,1.45
						c0.49,1.76-0.11,3.52,0.13,5.31c0.59,4.39,0.62,8.82,0.85,13.24c0.16,3.11,0.48,6.24,0.56,9.35c0.06,2.3,0.23,4.59,0.2,6.9
						c-0.05,3.52,0.19,7.04,0.28,10.55c0.06,2.25,0.12,4.51,0.12,6.76c0,2.53-0.17,5.06-0.05,7.58c0.11,2.35-0.1,4.69-0.13,7.03
						c-0.04,2.47-0.1,4.9,0.57,7.37c1.34,4.97,2.38,10.02,3.48,15.05c0.38,1.77-0.99,3.33-2.83,3.32c-0.98,0-1.82,0.17-2.66,0.75
						c-1.3,0.91-2.84,0.9-4.33,0.65c-1.23-0.21-2.14-0.74-2.37-2.29c-0.71-4.78-1.62-9.53-2.46-14.3c-0.07-0.39-0.23-0.77-0.32-1.16
						c-2.15-8.72-5.41-17.04-8.94-25.27c-5.07-11.85-8.84-24.18-13.35-36.24c-2.15-5.75-3.71-11.69-5.86-17.43
						c-0.14-0.38-0.26-0.77-0.31-1.16C16,44.3,15.6,43.5,16.33,42.83c0.87-0.8,1.88-0.26,2.46,0.16c1.58,1.14,3.06,2.42,4.3,3.98
						c2.44,3.06,4.43,6.42,6.63,9.64c0.59,0.86,0.99,1.86,1.47,2.8C32.33,61.61,33.61,63.71,35.17,65.69z M47.75,85.43
						c0.46-0.71,0.46-1.48,0.35-2.3c-0.28-2.05-0.43-4.12-0.52-6.17c-0.14-2.99-0.3-5.97-0.66-8.93c-0.26-2.1-0.36-4.23-0.5-6.33
						c-0.23-3.33-0.62-6.65-0.83-9.98c-0.14-2.12-0.37-4.21-0.68-6.32c-0.39-2.62-0.42-5.3-0.86-7.92
						c-0.16-0.98-0.71-1.91-0.83-2.89c-0.33-2.72-1.07-5.34-1.96-7.89c-1.44-4.1-3.1-8.11-5.18-11.96c-1.3-2.4-2.59-4.84-4.01-7.15
						c-0.64-1.04-1.5-2.17-2.57-3c-0.31-0.24-0.51-0.44-0.89-0.21c-0.3,0.18-0.73,0.35-0.53,0.77c0.5,1.03,0.05,2.16,0.48,3.22
						c0.38,0.92,0.72,1.95,0.69,2.91c-0.09,2.86,0.99,5.53,1.15,8.33c0.11,1.79,0.76,3.52,0.94,5.27c0.38,3.82,1.02,7.6,1.53,11.4
						c0.1,0.75,0.4,1.43,0.48,2.19c0.27,2.59,0.61,5.18,1.07,7.74c0.32,1.8,0.69,3.62,0.93,5.41c0.4,2.96,0.99,5.89,1.42,8.85
						c0.44,3.06,0.62,6.19,1.58,9.18c0.36,1.12-0.1,2.54,0.83,3.4c0.92,0.85,1.22,1.93,1.64,2.97c1.54,3.86,3.04,7.73,4.55,11.59
						c0.05-2.14-0.09-4.22-0.71-6.27c-0.31-1-0.83-1.97-0.91-3.02c-0.19-2.32-0.61-4.57-1.39-6.79c-0.81-2.29-1.49-4.63-1.81-7.06
						c-0.11-0.83,0.34-1.11,0.99-1.21c0.66-0.1,1.22,0.12,1.31,0.88c0.05,0.38-0.12,0.82-0.01,1.17c1.06,3.26,1.64,6.63,2.37,9.97
						C45.96,78.7,46.81,82.09,47.75,85.43c0.01,0.05,0.01,0.09,0.01,0.14C47.75,85.53,47.75,85.48,47.75,85.43z M18.53,45.14
						c-0.27,0.86,0.1,1.39,0.29,1.94c1.43,4.13,3.21,8.11,4.35,12.38c1.31,4.9,3.42,9.58,4.93,14.46
						c1.73,5.56,4.28,10.84,6.07,16.41c1.76,5.5,4.52,10.61,6.33,16.11c1.78,5.43,4.14,10.62,5.27,16.32
						c0.76,3.81,1.65,7.65,2.54,11.46c0.4,1.73,0.75,3.47,0.65,5.26c-0.03,0.44,0.11,0.97,0.5,1.21c1.29,0.8,2.5,0.2,3.71-0.31
						c1.07-0.45,1.39-1.43,1.18-2.32c-0.61-2.51-0.83-5.07-1.32-7.58c-0.66-3.35-1.39-6.69-1.97-10.06
						c-0.66-3.89-1.58-7.74-2.39-11.59c-0.8-3.77-1.83-7.51-2.71-11.27c-0.83-3.54-2.21-6.93-3.2-10.44
						c-1.17-4.14-3.06-8.09-4.64-12.11c-0.09-0.23-0.16-0.49-0.31-0.69c-1.98-2.71-3.35-5.78-5.32-8.53
						c-1.85-2.58-3.33-5.5-4.87-8.31c-1.63-2.98-3.4-5.82-5.46-8.48C21.11,47.67,20.18,46.12,18.53,45.14z M48.85,21.96
						c-0.36-0.36-0.13-1.26-0.82-1.21c-0.71,0.05-0.47,0.77-0.55,1.31c-0.3,1.96-0.49,4-1.18,5.83c-1.26,3.32-0.98,6.65-0.21,9.87
						c0.63,2.63,0.75,5.29,1.03,7.92c0.3,2.92,0.48,5.87,0.94,8.78c0.31,1.94,0.35,3.94,0.41,5.87c0.06,2.11,0.45,4.19,0.53,6.29
						c0.11,2.82,0.28,5.66,0.71,8.49c0.23,1.51,0.28,3.15,0.57,4.65c0.41,2.15-0.16,4.22,0.13,6.34c0.35,2.51,0.36,5.07,0.68,7.59
						c0.26,2,0.17,4.02,0.4,6.02c0.09,0.81,0.28,1.7,0.22,2.61c-0.11,1.54-0.12,3.2,0.15,4.66c0.63,3.36,0.1,6.82,1.11,10.11
						c0.09,0.29-0.52,0.86,0.28,0.84c0.54-0.01,0.52-0.52,0.47-0.93c-0.19-1.71,0.15-3.41,0.01-5.15c-0.11-1.33-0.2-2.79-0.05-4.18
						c0.22-2.16,0.36-4.43,0.06-6.46c-0.48-3.26-0.36-6.46-0.3-9.7c0.05-2.35,0.17-4.78-0.16-7.03c-0.52-3.49-0.28-6.96-0.46-10.42
						c-0.2-3.86-0.35-7.74-0.52-11.61c-0.09-2.02-0.39-4.02-0.48-6.02c-0.12-2.84-0.14-5.67-0.41-8.5
						c-0.27-2.82-0.37-5.67-0.41-8.52c-0.05-3.53-0.82-7.01-1.02-10.56C49.85,26.61,49.62,24.2,48.85,21.96z M56.78,139.35
						c0.75-1.45-1.53-12.97-2.74-14.21C54.85,130.08,55.44,134.78,56.78,139.35z"/>
				</g>
			</g>
			<g>
				<g>
					<path class="st457" d="M18.53,45.14c1.65,0.99,2.58,2.53,3.63,3.88c2.06,2.66,3.83,5.5,5.46,8.48
						c1.53,2.81,3.02,5.73,4.87,8.31c1.97,2.75,3.34,5.82,5.32,8.53c0.15,0.2,0.22,0.45,0.31,0.69c1.58,4.03,3.47,7.97,4.64,12.11
						c0.99,3.51,2.36,6.9,3.2,10.44c0.89,3.77,1.92,7.5,2.71,11.27c0.81,3.85,1.73,7.7,2.39,11.59c0.57,3.37,1.31,6.71,1.97,10.06
						c0.49,2.51,0.71,5.07,1.32,7.58c0.21,0.89-0.11,1.87-1.18,2.32c-1.21,0.51-2.42,1.11-3.71,0.31c-0.4-0.25-0.53-0.78-0.5-1.21
						c0.1-1.8-0.24-3.53-0.65-5.26c-0.89-3.81-1.79-7.65-2.54-11.46c-1.13-5.7-3.49-10.89-5.27-16.32
						c-1.81-5.51-4.56-10.61-6.33-16.11c-1.78-5.56-4.34-10.84-6.07-16.41c-1.52-4.88-3.62-9.56-4.93-14.46
						c-1.14-4.27-2.92-8.25-4.35-12.38C18.63,46.52,18.26,45.99,18.53,45.14z"/>
				</g>
			</g>
			<g>
				<g>
					<path class="st457" d="M47.76,85.44c-0.95-3.35-1.8-6.74-2.54-10.13c-0.73-3.34-1.31-6.71-2.37-9.97
						c-0.11-0.35,0.06-0.78,0.01-1.17c-0.1-0.77-0.65-0.98-1.31-0.88c-0.65,0.1-1.09,0.38-0.99,1.21c0.32,2.43,1,4.77,1.81,7.06
						c0.78,2.21,1.2,4.46,1.39,6.79c0.08,1.04,0.6,2.01,0.91,3.02c0.63,2.05,0.77,4.12,0.71,6.27c-1.51-3.87-3.01-7.74-4.55-11.59
						c-0.42-1.05-0.73-2.12-1.64-2.97c-0.93-0.86-0.47-2.28-0.83-3.4c-0.96-2.98-1.14-6.12-1.58-9.18
						c-0.43-2.95-1.02-5.89-1.42-8.85c-0.24-1.79-0.61-3.61-0.93-5.41c-0.46-2.56-0.79-5.15-1.07-7.74
						c-0.08-0.77-0.38-1.45-0.48-2.19c-0.51-3.8-1.15-7.58-1.53-11.4c-0.17-1.75-0.83-3.47-0.94-5.27
						c-0.16-2.81-1.25-5.48-1.15-8.33c0.03-0.97-0.31-2-0.69-2.91c-0.44-1.06,0.01-2.19-0.48-3.22c-0.2-0.42,0.22-0.59,0.53-0.77
						c0.38-0.22,0.57-0.03,0.89,0.21c1.07,0.83,1.93,1.96,2.57,3c1.42,2.32,2.71,4.75,4.01,7.15c2.09,3.85,3.75,7.86,5.18,11.96
						c0.89,2.55,1.63,5.17,1.96,7.89c0.12,0.98,0.66,1.91,0.83,2.89c0.44,2.62,0.47,5.3,0.86,7.92c0.31,2.1,0.55,4.2,0.68,6.32
						c0.21,3.33,0.6,6.65,0.83,9.98c0.15,2.1,0.25,4.22,0.5,6.33c0.36,2.96,0.52,5.95,0.66,8.93c0.1,2.05,0.24,4.12,0.52,6.17
						C48.21,83.95,48.21,84.72,47.76,85.44L47.76,85.44z"/>
				</g>
			</g>
			<g>
				<g>
					<path class="st457" d="M48.85,21.96c0.78,2.24,1.01,4.65,1.13,6.89c0.19,3.55,0.97,7.03,1.02,10.56
						c0.04,2.85,0.14,5.69,0.41,8.52c0.27,2.84,0.29,5.67,0.41,8.5c0.08,2,0.39,4.01,0.48,6.02c0.17,3.87,0.32,7.74,0.52,11.61
						c0.18,3.46-0.06,6.93,0.46,10.42c0.33,2.25,0.21,4.68,0.16,7.03c-0.06,3.24-0.18,6.43,0.3,9.7c0.3,2.03,0.16,4.3-0.06,6.46
						c-0.14,1.39-0.06,2.85,0.05,4.18c0.14,1.74-0.2,3.44-0.01,5.15c0.05,0.41,0.07,0.91-0.47,0.93c-0.8,0.02-0.19-0.55-0.28-0.84
						c-1.01-3.29-0.49-6.75-1.11-10.11c-0.27-1.46-0.26-3.13-0.15-4.66c0.06-0.91-0.13-1.8-0.22-2.61c-0.22-2.01-0.14-4.02-0.4-6.02
						c-0.32-2.52-0.33-5.08-0.68-7.59c-0.29-2.11,0.28-4.19-0.13-6.34c-0.29-1.5-0.34-3.13-0.57-4.65c-0.43-2.83-0.6-5.67-0.71-8.49
						c-0.08-2.11-0.47-4.18-0.53-6.29c-0.06-1.93-0.1-3.93-0.41-5.87c-0.46-2.91-0.63-5.85-0.94-8.78c-0.27-2.63-0.4-5.29-1.03-7.92
						c-0.77-3.23-1.06-6.56,0.21-9.87c0.7-1.83,0.88-3.87,1.18-5.83c0.08-0.54-0.15-1.26,0.55-1.31
						C48.71,20.7,48.49,21.6,48.85,21.96z"/>
				</g>
			</g>
			<g>
				<g>
					<path d="M69.12,46.74c0.91-0.92,1.05-2.09,1.46-3.09c1.16-2.81,2.23-5.67,3.66-8.36c1.23-2.32,2.38-4.67,3.74-6.94
						c1.03-1.71,2.2-3.31,3.46-4.8c1.17-1.39,2.59-2.67,4.26-3.53c0.6-0.31,1.17-0.94,2.02-0.27c0.86,0.68,0.73,1.72,0.46,2.27
						c-0.87,1.82-0.63,3.8-1.1,5.67c-0.39,1.53-0.67,3.14-0.94,4.73c-0.49,2.91-0.98,5.82-1.52,8.72c-0.78,4.24-1.59,8.47-2.4,12.7
						c-0.6,3.17-1.16,6.36-1.84,9.51c-0.78,3.6-1.04,7.28-1.86,10.86c-0.62,2.69-0.85,5.45-1.6,8.12c-0.2,0.69-0.17,1.44-0.26,2.26
						c0.83-0.03,1.22-0.59,1.43-1.05c0.81-1.81,2.17-3.28,3.11-4.99c1.26-2.28,2.68-4.45,4.14-6.6c1.6-2.36,3.25-4.68,5.4-6.61
						c1.16-1.04,2.14-2.31,3.75-2.68c0.54-0.12,1.14-0.65,1.64,0.02c0.44,0.59,0.69,1.24,0.4,2.02c-0.62,1.68-1.24,3.36-1.82,5.06
						c-1.27,3.69-2.72,7.32-4.1,10.97c-2.06,5.45-4,10.95-6.23,16.34c-1.41,3.4-2.74,6.83-4.06,10.26c-1.27,3.3-2.57,6.6-4,9.82
						c-1.86,4.21-3.87,8.35-5.63,12.6c-1.3,3.14-2.59,6.27-3.44,9.59c-0.55,2.17-1.27,4.31-1.86,6.48
						c-0.64,2.38-1.25,4.77-1.75,7.18c-0.49,2.36-1.13,4.69-1.27,7.12c-0.03,0.53-0.56,1-1.09,1.14c-1.88,0.5-3.82,1.11-5.57-0.31
						c-1.19-0.97-2.73-0.44-4-1.2c-1.37-0.81-1.67-1.43-1.34-3.06c0.9-4.55,2.25-9,3.5-13.44c1.04-3.7,1.04-7.33,1.1-11.03
						c0.05-2.77-0.12-5.56,0.13-8.31c0.48-5.29,0.41-10.6,0.84-15.89c0.36-4.36,0.4-8.77,0.68-13.14c0.22-3.49,0.64-6.98,0.87-10.46
						c0.22-3.27,0.54-6.54,0.8-9.8c0.24-2.95,0.35-5.93,0.74-8.88c0.4-2.99,0.58-6.02,0.89-9.02c0.2-1.94,0.46-3.88,0.71-5.82
						c0.39-2.99,0.75-5.99,1.2-8.98c0.36-2.39,0.81-4.77,1.29-7.14c0.25-1.23,0.65-2.43,0.93-3.65c0.15-0.62,0.4-1.2,1.07-1.15
						c0.61,0.04,1.14,0.44,1.2,1.16c0.39,4.74,2.03,9.28,2.21,14.05C68.57,45.69,68.64,46.21,69.12,46.74z M55.4,144.59
						c-0.57,2.4-1.13,4.8-1.72,7.19c-0.42,1.7-0.9,3.39-1.32,5.09c-0.17,0.67,0.46,1.38,0.85,1.02c0.21-0.19,0.4-0.47,0.45-0.73
						c0.53-2.77,1.01-5.55,1.55-8.32c0.26-1.36,0.63-2.7,0.95-4.05c0.03-0.44-0.03-0.96-0.49-1.03
						C55.42,143.72,55.29,144.24,55.4,144.59z M59.42,159.78c1,0.01,1.4-0.88,1.43-1.68c0.1-2.14,0.49-4.2,0.99-6.27
						c1.18-4.9,2.35-9.81,3.9-14.62c0.77-2.38,1.64-4.71,2.62-7.02c0.74-1.74,1.39-3.56,2.05-5.35c0.7-1.9,1.87-3.6,2.51-5.43
						c1.12-3.18,2.76-6.08,4.03-9.17c1.09-2.65,2.48-5.18,3.39-7.92c0.4-1.2,0.87-2.38,1.38-3.54c0.53-1.21,1.15-2.44,1.51-3.66
						c0.91-3.09,2.33-5.98,3.33-9.02c0.49-1.49,1.6-2.95,1.65-4.34c0.07-2.19,0.88-4.09,1.7-5.88c1.39-3.04,2-6.42,3.89-9.24
						c0.21-0.31,0.31-0.83-0.04-1.12c-0.32-0.26-0.63,0.09-0.94,0.25c-1.27,0.66-1.71,2.02-2.59,2.99c-2.19,2.42-4,5.14-5.63,7.91
						c-1.2,2.05-2.63,3.97-3.77,6.07c-0.36,0.66-0.6,1.43-1.11,2.05c-2.17,2.68-3.95,5.62-5.62,8.63c-2.41,4.34-4.1,9.02-5.83,13.65
						c-1.41,3.74-2.5,7.6-3.67,11.43c-0.84,2.73-1.85,5.45-2.29,8.25c-0.55,3.49-1.83,6.78-2.35,10.28
						c-0.42,2.79-1.5,5.46-1.96,8.28c-0.63,3.8-1.63,7.54-2.17,11.36C55.47,158.94,57.12,160.43,59.42,159.78z M63.26,104.61
						c1.01-1.71,1.17-3.5,1.69-5.19c1.64-5.3,2.28-10.86,4.36-16.06c0.31-0.77,0.52-1.24,1.2-0.99c0.78,0.29,1.21,1.21,0.7,1.86
						c-1.03,1.29-0.79,2.9-1.29,4.32c-0.93,2.66-1.4,5.5-2.23,8.22c-0.56,1.83-0.94,3.73-1.15,5.63c-0.05,0.49-0.86,1.52,0.05,1.63
						c0.75,0.09,1.22-1.08,1.37-1.83c0.47-2.39,1.98-4.3,2.82-6.53c0.93-2.47,2.73-4.61,3.09-7.35c0.08-0.64,0.14-1.28,0.25-1.91
						c0.43-2.52,0.89-5.04,1.3-7.56c0.44-2.67,0.8-5.35,1.27-8.01c0.51-2.87,1.39-5.65,1.87-8.54c0.78-4.71,1.68-9.4,2.63-14.08
						c0.61-2.98,1.1-5.98,1.81-8.95c0.77-3.24,0.97-6.6,1.63-9.87c0.24-1.21-0.06-2.49,0.6-3.63c0.55-0.97,0.66-2.04,0.29-3.09
						c-1,0.61-1.96,1.22-2.57,2.21c-0.97,1.59-2.09,3.08-3.02,4.7c-3.63,6.32-7.02,12.75-9.28,19.7c-1.19,3.64-2.15,7.33-2.54,11.17
						c-0.24,2.34-0.57,4.67-0.96,6.98c-0.3,1.79-0.35,3.6-0.64,5.4c-0.5,3.09-0.68,6.23-1.03,9.35c-0.29,2.59-0.73,5.17-0.93,7.76
						c-0.27,3.53-0.47,7.05-1.16,10.54C63.11,101.83,63.28,103.24,63.26,104.61z M57.3,136.77c0.96-3.86,0.87-7.61,1.42-11.27
						c0.26-1.76,0.14-3.52,0.46-5.26c0.38-2.08,0.73-4.17,0.65-6.3c-0.08-2.11,0.34-4.23,0.63-6.24c0.26-1.86,0.33-3.85,0.84-5.74
						c0.35-1.29,0.35-2.8,0.44-4.21c0.16-2.55,0.47-5.07,0.75-7.6c0.39-3.51,0.77-7.02,1.14-10.54c0.18-1.71,0.18-3.48,0.51-5.13
						c0.59-3,0.86-6.03,1.16-9.04c0.29-2.95,0.91-5.84,1.43-8.74c0.58-3.26,1.12-6.52,0.3-9.76c-0.68-2.72-1.06-5.53-2.12-8.23
						c-1.1,2.67-1.46,5.48-1.61,8.25c-0.16,2.91-0.84,5.73-1.13,8.61c-0.2,2.02-0.28,4.11-0.48,6.13c-0.31,3.11-1.43,6.18-0.87,9.38
						c0.01,0.04-0.05,0.09-0.06,0.13c-0.94,3.11-0.2,6.36-0.84,9.51c-0.36,1.8-0.22,3.69-0.41,5.53c-0.41,4-0.49,8.03-0.76,12.03
						c-0.11,1.65-0.07,3.34-0.39,4.96c-0.47,2.39-0.48,4.83-0.43,7.2c0.06,2.77-0.66,5.45-0.48,8.22c0.16,2.54-0.43,5.06-0.55,7.61
						c-0.09,1.9-0.13,3.8-0.15,5.7C56.73,133.51,56,135.12,57.3,136.77z"/>
				</g>
			</g>
			<g>
				<path class="st457" d="M39.19,86.65c0,0.05,0,0.09,0,0.14C39.2,86.75,39.2,86.7,39.19,86.65C39.2,86.66,39.19,86.65,39.19,86.65
					z"/>
			</g>
			<g>
				<g>
					<path class="st457" d="M59.42,159.78c-2.3,0.65-3.95-0.85-3.62-3.11c0.55-3.82,1.55-7.56,2.17-11.36
						c0.47-2.82,1.54-5.49,1.96-8.28c0.53-3.5,1.8-6.79,2.35-10.28c0.44-2.8,1.45-5.52,2.29-8.25c1.17-3.83,2.27-7.69,3.67-11.43
						c1.74-4.63,3.42-9.3,5.83-13.65c1.67-3,3.45-5.95,5.62-8.63c0.51-0.63,0.75-1.39,1.11-2.05c1.14-2.1,2.57-4.02,3.77-6.07
						c1.63-2.77,3.44-5.5,5.63-7.91c0.89-0.98,1.32-2.34,2.59-2.99c0.31-0.16,0.63-0.5,0.94-0.25c0.35,0.29,0.25,0.81,0.04,1.12
						c-1.89,2.83-2.49,6.2-3.89,9.24c-0.82,1.79-1.62,3.69-1.7,5.88c-0.05,1.39-1.15,2.85-1.65,4.34c-1.01,3.04-2.43,5.92-3.33,9.02
						c-0.36,1.22-0.98,2.45-1.51,3.66c-0.51,1.16-0.98,2.34-1.38,3.54c-0.9,2.74-2.3,5.26-3.39,7.92c-1.27,3.09-2.91,5.99-4.03,9.17
						c-0.64,1.83-1.82,3.53-2.51,5.43c-0.66,1.79-1.31,3.61-2.05,5.35c-0.98,2.31-1.85,4.64-2.62,7.02
						c-1.55,4.81-2.71,9.71-3.9,14.62c-0.5,2.07-0.88,4.13-0.99,6.27C60.82,158.9,60.42,159.79,59.42,159.78z"/>
				</g>
			</g>
			<g>
				<g>
					<path class="st457" d="M63.26,104.61c0.03-1.37-0.15-2.78,0.11-4.11c0.68-3.49,0.89-7.01,1.16-10.54
						c0.2-2.6,0.64-5.17,0.93-7.76c0.35-3.12,0.54-6.26,1.03-9.35c0.29-1.8,0.33-3.61,0.64-5.4c0.39-2.31,0.73-4.64,0.96-6.98
						c0.39-3.83,1.35-7.52,2.54-11.17c2.27-6.96,5.65-13.39,9.28-19.7c0.93-1.62,2.05-3.11,3.02-4.7c0.61-0.99,1.57-1.6,2.57-2.21
						c0.37,1.05,0.26,2.11-0.29,3.09c-0.65,1.15-0.35,2.43-0.6,3.63c-0.66,3.27-0.86,6.63-1.63,9.87c-0.7,2.97-1.2,5.97-1.81,8.95
						c-0.95,4.68-1.86,9.37-2.63,14.08c-0.48,2.89-1.36,5.67-1.87,8.54c-0.47,2.66-0.83,5.34-1.27,8.01
						c-0.41,2.52-0.87,5.04-1.3,7.56c-0.11,0.63-0.17,1.27-0.25,1.91c-0.36,2.74-2.16,4.88-3.09,7.35
						c-0.84,2.23-2.34,4.14-2.82,6.53c-0.15,0.76-0.62,1.92-1.37,1.83c-0.91-0.11-0.11-1.14-0.05-1.63c0.21-1.9,0.6-3.8,1.15-5.63
						c0.83-2.73,1.3-5.56,2.23-8.22c0.5-1.42,0.27-3.02,1.29-4.32c0.51-0.64,0.08-1.57-0.7-1.86c-0.68-0.25-0.89,0.22-1.2,0.99
						c-2.08,5.19-2.72,10.76-4.36,16.06C64.43,101.11,64.27,102.9,63.26,104.61z"/>
				</g>
			</g>
			<g>
				<g>
					<path class="st457" d="M57.3,136.77c-1.3-1.65-0.57-3.26-0.55-4.78c0.02-1.9,0.06-3.81,0.15-5.7c0.12-2.55,0.72-5.07,0.55-7.61
						c-0.18-2.77,0.54-5.45,0.48-8.22c-0.05-2.37-0.05-4.81,0.43-7.2c0.32-1.62,0.28-3.31,0.39-4.96c0.27-4.01,0.35-8.03,0.76-12.03
						c0.19-1.84,0.04-3.74,0.41-5.53c0.64-3.15-0.1-6.41,0.84-9.51c0.01-0.05,0.07-0.09,0.06-0.13c-0.56-3.19,0.56-6.26,0.87-9.38
						c0.2-2.02,0.29-4.11,0.48-6.13c0.28-2.88,0.97-5.7,1.13-8.61c0.15-2.77,0.51-5.57,1.61-8.25c1.06,2.69,1.44,5.5,2.12,8.23
						c0.81,3.24,0.27,6.5-0.3,9.76c-0.52,2.9-1.14,5.79-1.43,8.74c-0.3,3.02-0.57,6.04-1.16,9.04c-0.32,1.64-0.32,3.42-0.51,5.13
						c-0.38,3.51-0.75,7.02-1.14,10.54c-0.28,2.53-0.59,5.05-0.75,7.6c-0.09,1.41-0.09,2.92-0.44,4.21
						c-0.51,1.9-0.58,3.89-0.84,5.74c-0.28,2.01-0.7,4.14-0.63,6.24c0.08,2.13-0.27,4.22-0.65,6.3c-0.32,1.74-0.19,3.5-0.46,5.26
						C58.17,129.16,58.26,132.91,57.3,136.77z"/>
				</g>
			</g>
			<g>
				<path class="st458" d="M56.15,144.79c-0.32,1.35-0.68,2.69-0.95,4.05c-0.54,2.77-1.02,5.55-1.55,8.32
					c-0.05,0.27-0.25,0.54-0.45,0.73c-0.39,0.36-1.02-0.35-0.85-1.02c0.43-1.7,0.9-3.39,1.32-5.09c0.59-2.39,1.15-4.79,1.72-7.19
					C55.63,144.76,55.87,144.88,56.15,144.79z"/>
			</g>
			<g>
				<path class="st457" d="M56.15,144.79c-0.29,0.09-0.53-0.03-0.75-0.19c-0.11-0.36,0.02-0.88,0.26-0.84
					C56.13,143.83,56.18,144.34,56.15,144.79z"/>
			</g>
		</g>
		<g>
			<g>
				<path class="st459" d="M73.09,126.63c-7.94-2.21-16.25-3.45-24.75-3.63c-0.8-0.02-1.48,0.56-1.51,1.27
					c-0.03,0.71,0.59,1.29,1.37,1.31c8.29,0.17,16.4,1.38,24.14,3.52c0.73,0.2,1.49-0.18,1.71-0.85
					C74.27,127.57,73.84,126.84,73.09,126.63z"/>
			</g>
			<g>
				<path class="st459" d="M69.81,131.55c-7.56-1.94-15.47-2.97-23.55-2.97c-0.77,0-1.39,0.58-1.39,1.3c0,0.71,0.61,1.28,1.34,1.28
					c7.87,0,15.58,1,22.94,2.89c0.69,0.18,1.4-0.22,1.6-0.91C70.95,132.44,70.53,131.73,69.81,131.55z"/>
			</g>
			<g>
				<path class="st459" d="M47.05,128.34c8.09,0.08,16,1.17,23.55,3.17c0.71,0.19,1.45-0.2,1.65-0.88c0.2-0.68-0.22-1.4-0.95-1.6
					c-7.76-2.06-15.87-3.18-24.16-3.27c-0.79-0.01-1.44,0.57-1.45,1.28C45.68,127.76,46.29,128.34,47.05,128.34z"/>
			</g>
			<g>
				<g>
					<path d="M73.64,126.22c-0.07-0.07-0.16-0.13-0.28-0.16c-7.83-2.18-16.01-3.44-24.38-3.67c-0.59-0.02-1.17-0.04-1.72,0.23
						c-1.11,0.56-1.37,1.79-0.8,2.66c-0.26,0.07-0.51,0.18-0.74,0.37c-0.92,0.76-0.85,1.78-0.27,2.48
						c-0.07,0.02-0.14,0.05-0.21,0.09c-1.32,0.73-1.31,2.52-0.08,3.26c0.9,0.53,2.45,0.29,3.44,0.32c4.85,0.13,9.63,0.63,14.29,1.49
						c1.89,0.35,3.76,0.76,5.61,1.22c0.65,0.17,1.28,0.3,1.91-0.03c0.99-0.51,1.22-1.5,0.87-2.33c0.07-0.01,0.14-0.01,0.22-0.03
						c1.1-0.28,1.67-1.39,1.38-2.38c0.26-0.01,0.52-0.04,0.78-0.16C75.23,128.88,75,127.02,73.64,126.22z M48.25,123.62
						c0.07-0.04,0.27,0.02,0.35,0.01c0.49-0.08,1.1,0.03,1.59,0.05c4.29,0.17,8.52,0.62,12.68,1.32c3.37,0.57,6.7,1.31,9.95,2.21
						c0,0,0.02,1.22-0.38,1.28c-0.12,0.02-0.37-0.1-0.48-0.13c-0.58-0.16-1.16-0.31-1.74-0.45c-1.86-0.47-3.75-0.88-5.65-1.24
						c-4.32-0.81-8.73-1.35-13.19-1.58c-0.67-0.04-1.34-0.07-2.01-0.09c-0.2-0.01-0.84,0.07-1.01-0.03
						C48.28,124.9,48.18,123.66,48.25,123.62z M70.82,130.93c-0.07,0.03-0.24-0.08-0.31-0.08c-0.46-0.03-1-0.25-1.44-0.37
						c-3.9-0.96-7.88-1.67-11.93-2.14c-3.28-0.38-6.61-0.58-9.97-0.62c0,0-0.33-1.18,0.04-1.33c0.12-0.05,0.39,0.01,0.51,0.01
						c0.61,0.01,1.22,0.02,1.82,0.05c1.95,0.07,3.88,0.19,5.8,0.37c4.36,0.41,8.66,1.11,12.86,2.09c0.63,0.15,1.25,0.3,1.88,0.46
						c0.19,0.05,0.8,0.1,0.94,0.24C71.08,129.67,70.9,130.9,70.82,130.93z M69.24,133.42c-0.11,0.02-0.35-0.09-0.46-0.12
						c-0.55-0.14-1.1-0.27-1.65-0.4c-1.77-0.41-3.56-0.77-5.37-1.07c-4.1-0.69-8.29-1.12-12.54-1.25c-0.64-0.02-1.27-0.04-1.91-0.04
						c-0.2-0.01-0.79,0.09-0.96-0.01c-0.08-0.05-0.22-1.28-0.15-1.33c0.06-0.04,0.26,0.02,0.33,0c0.46-0.09,1.04,0.01,1.51,0.02
						c4.07,0.08,8.1,0.42,12.05,1.01c3.21,0.48,6.37,1.12,9.47,1.91C69.58,132.13,69.62,133.35,69.24,133.42z"/>
				</g>
			</g>
		</g>
		<g>
			<g>
				<g>
					<path d="M1.65,132.43c0.32,0.29,0.59,0.41,0.72,0.92c0.13,0.51,0.32,1.24,0.7,1.98c0.39,0.84,1.35,1.54,2.27,1.63
						c0.85,0.08,1.1-0.07,1.72,0.42c0.61,0.47,1.32,3.71,4.23,4.69s6.32,0.25,6.32,0.25l-0.02-2.47c-2.84,0.54-4.51,1-6.21,0
						c-1.69-0.99-2.24-3.02-1.69-3.09c1.5-0.19,2.14-1.27,2.41-2.65c0.08-0.42,0.04-2.3,0.43-2.56c1.06-0.69,1.02-2.62-0.09-3.27
						c-0.45-0.27-0.57-0.57-0.58-1.02c-0.02-0.54-0.09-1.08-0.11-1.62c-0.03-0.77-0.59-1.37-1.33-1.42
						c-2.54-0.17-4.92-0.18-7.41,0.33c-0.69,0.14-1.14,0.93-1.06,1.73c0.05,0.51,0.02,1.02,0.03,1.53c0,0.22-0.31,0.44-0.49,0.64
						C0.75,129.36,0.75,131.6,1.65,132.43z M6.45,127.24c0.02-0.3-4-0.49-3.68-1.63c0.32-2.02,8.3-1.53,8.55-0.38
						c0.34,1.59-3.07,1.87-3.07,2.08c0,0.21,2.18-0.06,2.95-0.26c0.06,0.51,0.43,0.8-0.04,1.21c-0.95,0.84-0.84,2.1,0.06,3.01
						c0.23,0.23,0.31,0.44,0.31,0.74c-0.01,0.86-0.12,1.7-0.41,2.51c-0.15,0.41-0.37,0.7-0.78,0.93c-1.33,0.72-2.75,0.7-4.17,0.61
						c-1.8-0.11-2.2-0.45-2.7-2.16c-0.3-1.02-0.21-1.28-0.13-2.34c0.04-0.53-0.04-1.84-0.27-2.28c-0.45-0.86-0.31-1.56-0.3-2.48
						C4.7,127.34,6.43,127.54,6.45,127.24z"/>
					<path d="M14.79,143.08c-1.12,0-2.42-0.12-3.66-0.54c-2.29-0.77-3.32-2.79-3.94-4c-0.16-0.31-0.35-0.69-0.44-0.77
						c-0.33-0.26-0.46-0.26-0.88-0.28c-0.17-0.01-0.35-0.01-0.59-0.04c-1.09-0.11-2.21-0.92-2.67-1.92
						c-0.42-0.8-0.62-1.62-0.73-2.07c-0.06-0.25-0.15-0.32-0.36-0.49c-0.07-0.06-0.14-0.12-0.21-0.18l0,0
						c-1.13-1.04-1.08-3.58-0.22-4.65c0.07-0.08,0.14-0.15,0.21-0.22c0.06-0.06,0.16-0.15,0.18-0.19l-0.02-0.39
						c0-0.34,0-0.68-0.03-1.01c-0.1-1.08,0.55-2.08,1.46-2.27c2.71-0.56,5.23-0.49,7.55-0.34c1,0.06,1.75,0.86,1.8,1.9
						c0.01,0.25,0.03,0.51,0.05,0.76c0.02,0.29,0.05,0.57,0.06,0.86c0.01,0.34,0.08,0.45,0.34,0.61c0.67,0.4,1.09,1.17,1.11,2.05
						c0.02,0.88-0.35,1.65-1,2.07c-0.07,0.15-0.13,1.12-0.15,1.53c-0.02,0.31-0.04,0.57-0.06,0.7c-0.34,1.74-1.21,2.75-2.6,3.01
						c0.05,0.45,0.54,1.55,1.65,2.19c1.38,0.81,2.78,0.53,5.11,0.08l1.33-0.26l0.03,3.48l-0.4,0.09
						C17.64,142.83,16.41,143.08,14.79,143.08z M6.66,136.6c0.21,0.07,0.44,0.18,0.71,0.39c0.26,0.2,0.44,0.56,0.72,1.1
						c0.58,1.14,1.46,2.86,3.37,3.5c2.18,0.73,4.7,0.45,5.66,0.3l-0.01-1.45l-0.16,0.03c-2.47,0.48-4.1,0.8-5.81-0.2
						c-1.56-0.91-2.29-2.59-2.12-3.4c0.04-0.22,0.16-0.39,0.32-0.5C8.44,136.62,7.55,136.63,6.66,136.6z M10.8,135.76
						c-0.07,0.05-0.15,0.1-0.23,0.14c-0.26,0.14-0.53,0.26-0.79,0.35C10.19,136.18,10.53,136.02,10.8,135.76z M3.24,127.45
						c-0.02,0.6-0.02,1.06,0.26,1.61c0.31,0.6,0.36,2.09,0.33,2.55L3.8,132c-0.06,0.73-0.08,0.98,0.15,1.77
						c0.44,1.52,0.67,1.7,2.25,1.8c1.36,0.08,2.69,0.11,3.9-0.55c0.28-0.15,0.44-0.34,0.55-0.66c0.25-0.69,0.37-1.44,0.38-2.35
						c0-0.15-0.02-0.24-0.16-0.38c-0.59-0.59-0.9-1.31-0.87-2.04c0.02-0.65,0.31-1.24,0.83-1.7c0.06-0.08,0.03-0.18,0-0.25
						c-0.83,0.16-2.47,0.41-2.87,0.1l-0.19-0.15l-0.02-0.27c-0.01-0.45,0.37-0.55,0.95-0.69c0.74-0.19,2.29-0.59,2.14-1.29
						c-0.38-0.43-4.17-0.95-6.47-0.32c-0.65,0.18-1.05,0.43-1.09,0.67c0.15,0.34,1.69,0.64,2.27,0.76c0.97,0.19,1.46,0.29,1.42,0.83
						l-0.02,0.24l-0.23,0.2C6.17,128.09,4.33,127.72,3.24,127.45z M2.26,128.38c-0.08,0.11-0.18,0.2-0.26,0.28
						c-0.05,0.05-0.1,0.09-0.14,0.14c-0.55,0.68-0.57,2.62,0.13,3.27l0,0c0.06,0.06,0.12,0.1,0.17,0.15
						c0.21,0.17,0.44,0.37,0.6,0.74c-0.02-0.33,0-0.63,0.04-1.03l0.03-0.39c0.04-0.56-0.06-1.72-0.21-2.01
						C2.4,129.11,2.3,128.74,2.26,128.38z M11.73,128.36c-0.06,0.09-0.14,0.19-0.25,0.29c-0.31,0.27-0.48,0.61-0.5,0.99
						c-0.01,0.44,0.19,0.91,0.58,1.3c0.19,0.19,0.31,0.38,0.38,0.59c0.08-0.16,0.18-0.29,0.31-0.37c0.35-0.23,0.55-0.69,0.54-1.21
						c-0.01-0.53-0.25-1-0.62-1.21C11.99,128.61,11.85,128.48,11.73,128.36z"/>
				</g>
			</g>
			<g>
				<g>
					<path d="M9.53,115.88c0.38-0.02,0.86-1.01,0.82-1.64c-0.02-0.39-0.22-0.73-0.61-0.63C8.89,113.85,9.08,115.9,9.53,115.88z"/>
					<path d="M9.52,116.38c-0.22,0-0.69-0.12-0.84-1.04c-0.15-0.93,0.12-1.98,0.92-2.21c0.28-0.08,0.56-0.03,0.79,0.13
						c0.27,0.19,0.43,0.53,0.46,0.95c0.04,0.58-0.25,1.37-0.64,1.81c-0.2,0.22-0.42,0.34-0.65,0.35l-0.02-0.5l0.02,0.5
						C9.54,116.38,9.54,116.38,9.52,116.38z M9.81,114.08c0.02,0.05-0.03,0.11-0.07,0.23c-0.08,0.23-0.09,0.51-0.07,0.74
						c0.11-0.24,0.21-0.54,0.19-0.77C9.84,114.17,9.82,114.11,9.81,114.08z"/>
				</g>
			</g>
			<g>
				<g>
					<path d="M5.27,115.33c-0.71,0.09-0.4,0.8-0.39,1.28c0,0.14,0.03,0.28,0.07,0.42c0.09,0.31,0.23,0.63,0.61,0.59
						c0.42-0.05,0.39-0.42,0.39-0.73C5.96,116.74,6.01,115.23,5.27,115.33z"/>
					<path d="M5.49,118.12c-0.48,0-0.82-0.32-1.02-0.94c-0.06-0.2-0.09-0.39-0.09-0.56c0-0.09-0.02-0.19-0.03-0.29
						c-0.05-0.34-0.11-0.77,0.16-1.12c0.16-0.21,0.39-0.33,0.7-0.37c0.28-0.04,0.54,0.04,0.75,0.23c0.45,0.4,0.52,1.22,0.5,1.83
						c-0.01,0.34-0.02,1.12-0.84,1.21C5.57,118.11,5.53,118.12,5.49,118.12z M5.3,115.83c-0.02,0-0.03,0.01-0.03,0.01
						c0.02,0.02,0.05,0.22,0.07,0.35c0.02,0.14,0.04,0.29,0.04,0.41c0,0.08,0.02,0.17,0.05,0.27c0.01,0.03,0.02,0.06,0.03,0.09
						c0,0,0,0,0-0.01C5.47,116.31,5.37,115.94,5.3,115.83z"/>
				</g>
			</g>
			<g>
				<g>
					<path d="M0.51,114.83c0.07,0.72,0.62,1.44,1.05,1.35c0.35-0.07,0.48-0.35,0.37-0.64c-0.21-0.54-0.16-1.33-0.95-1.44
						C0.54,114.05,0.46,114.45,0.51,114.83z"/>
					<path d="M1.49,116.69c-0.17,0-0.39-0.05-0.63-0.23c-0.44-0.33-0.78-0.96-0.84-1.57c-0.06-0.45,0.04-0.81,0.27-1.04
						c0.19-0.19,0.46-0.27,0.76-0.23c0.94,0.12,1.13,0.92,1.25,1.39c0.03,0.13,0.06,0.25,0.1,0.36c0.11,0.28,0.1,0.58-0.04,0.83
						c-0.14,0.25-0.39,0.42-0.7,0.48C1.61,116.68,1.55,116.69,1.49,116.69z M1,114.62c0,0.04,0,0.08,0.01,0.14l0,0.02
						c0.05,0.48,0.37,0.88,0.5,0.91c-0.11-0.12-0.15-0.28-0.19-0.45C1.21,114.79,1.16,114.67,1,114.62z"/>
				</g>
			</g>
			<g>
				<g>
					<path d="M5.49,121.71c-0.13-0.5-0.41-0.92-0.77-1.27c-0.17-0.16-0.38-0.25-0.61-0.08c-0.23,0.16-0.2,0.39-0.11,0.61
						c0.17,0.45,0.42,0.86,0.75,1.21c0.16,0.17,0.36,0.31,0.6,0.16C5.56,122.18,5.52,121.94,5.49,121.71z"/>
					<path d="M5.13,122.89c-0.22,0-0.49-0.09-0.76-0.38c-0.37-0.4-0.66-0.86-0.85-1.37c-0.25-0.67,0.07-1.04,0.29-1.19
						c0.39-0.28,0.88-0.23,1.25,0.14c0.46,0.45,0.76,0.95,0.91,1.5l0.01,0.06l-0.5,0.06l0.5-0.05c0.03,0.25,0.1,0.78-0.38,1.09
						C5.53,122.79,5.36,122.88,5.13,122.89z M4.54,120.97c0.11,0.23,0.24,0.45,0.4,0.66C4.85,121.4,4.72,121.18,4.54,120.97z"/>
				</g>
			</g>
			<g>
				<g>
					<path d="M8.92,119.37c-0.01-0.45-0.17-0.77-0.54-0.69c-0.71,0.15-0.58,0.8-0.63,1.31c-0.04,0.33,0.18,0.58,0.52,0.51
						C8.94,120.37,8.84,119.76,8.92,119.37z"/>
					<path d="M8.17,121.01c-0.23,0-0.45-0.08-0.61-0.23c-0.22-0.2-0.33-0.51-0.3-0.84c0.01-0.08,0.01-0.17,0.01-0.26
						c0.02-0.45,0.04-1.29,1.01-1.49c0.27-0.05,0.53,0,0.74,0.16c0.25,0.2,0.39,0.55,0.4,1.01l0,0.06l-0.01,0.05
						c-0.01,0.06-0.02,0.13-0.03,0.2c-0.04,0.37-0.12,1.14-1.02,1.32C8.3,121,8.23,121.01,8.17,121.01z M8.4,119.19
						c-0.09,0.04-0.12,0.12-0.13,0.52c0,0.09-0.01,0.19-0.01,0.28c0.08-0.03,0.1-0.11,0.13-0.42c0.01-0.08,0.02-0.16,0.03-0.24
						C8.42,119.27,8.41,119.22,8.4,119.19z"/>
				</g>
			</g>
		</g>
		<g>
			<path class="st3" d="M37.09,92.32c3.62,1.08,6.49,3.28,8.96,6.06c0.07,0.08,0.18,0.14,0.26,0.21c0.54,0.7,1.11,1.37,1.62,2.09
				c3.03,4.29,5.2,9.03,6.78,14.01c3.27,10.26,3.88,20.76,2.36,31.4c-0.72,5-2.21,9.76-4.57,14.23c-2,3.79-5,6.36-9.23,7.38
				c-2.26,0.55-4.56,0.62-6.87,0.59c-5.64-0.07-9.92-2.42-12.82-7.35c-3.26-5.54-5.11-11.51-5.97-17.84
				c-0.03-0.22-0.35-4.45-0.37-4.74c-0.63-7.61-0.4-15.2,0.94-22.72c0.88-4.95,2.16-9.8,4.89-14.11
				C26.34,96.37,30.61,92.65,37.09,92.32z"/>
		</g>
		<g>
			<path class="st4" d="M40.61,163.99c-6.41,0.88-14.73-0.98-18.54-16.36s-4.18-40.88,6.46-52.45c-2.25,1.61-4.11,3.81-5.72,6.36
				c-2.72,4.31-4,9.16-4.89,14.11c-1.34,7.52-1.57,15.11-0.94,22.72c0.02,0.28,0.34,4.51,0.37,4.74c0.86,6.33,2.71,12.3,5.97,17.84
				c2.9,4.93,7.17,7.28,12.82,7.35c2.31,0.03,4.61-0.04,6.87-0.59c4.23-1.03,7.23-3.59,9.23-7.38c0.04-0.08,0.07-0.15,0.11-0.23
				C51.2,160.76,47.02,163.11,40.61,163.99z"/>
		</g>
		<g>
			<g>
				<path d="M56.45,116.89c-1.07-3.87-2.63-7.66-4.46-11.22c-0.92-1.79-1.95-3.52-3.16-5.13c-0.52-0.7-1.06-1.46-1.67-2.08
					c-0.35-0.35-0.49-0.47-0.98-0.3c-0.28,0.1-0.35,0.4-0.17,0.63c7.92,10.08,11.35,23.18,11.44,35.86
					c0.04,6.37-0.57,12.93-2.58,19.01c-1.69,5.12-4.16,10.56-9.39,12.84c-2.85,1.24-6.05,1.42-9.12,1.36
					c-2.47-0.05-4.92-0.52-7.11-1.72c-4.88-2.69-7.39-8.53-9.1-13.56c-1.48-4.35-2.16-8.77-2.51-13.33
					c-0.44-5.8-0.57-11.59,0.01-17.4c1.13-11.49,5.22-28.34,19.39-29.2c0.29-0.02,0.54-0.42,0.27-0.64
					c-0.8-0.62-1.91-0.23-2.84-0.08c-1.49,0.23-2.92,0.77-4.25,1.47c-2.59,1.36-4.88,3.42-6.67,5.72
					c-3.96,5.07-5.72,11.74-6.73,17.98c-0.84,5.19-0.88,10.41-0.86,15.65c0.01,2.89,0.28,7.91,0.36,8.56
					c0.07,0.64,1.82,10.59,4.06,15.51c2.22,4.88,5.36,9.73,10.7,11.51c2.82,0.94,6.13,0.97,9.06,0.73c1.82-0.18,1.53,1.64,1.48,2.13
					c-0.11,0.97-0.22,1.95-0.33,2.92c-0.08,0.69-0.27,1.44-0.12,2.12c0.32,1.44,2.89,3.56,4.3,2.21c0.43-0.41,0.35-1.01-0.09-1.37
					c-0.5-0.41-1.31-0.43-1.89-0.72c-1.12-0.57-0.82-1.52-0.66-2.59c0.12-0.81,0.25-5.01,1.31-5.48c1.34-0.6,2.67-0.92,3.93-1.75
					c2.68-1.77,4.53-4.49,5.96-7.32c3.43-6.78,4.68-14.55,4.78-22.08C58.88,130.29,58.28,123.51,56.45,116.89z"/>
				<path d="M44.38,179.36c-0.25,0-0.52-0.04-0.8-0.13c-1.32-0.4-2.65-1.74-2.91-2.91c-0.13-0.61-0.04-1.25,0.04-1.81
					c0.02-0.16,0.05-0.32,0.07-0.48l0.33-2.93c0.04-0.34,0.13-1.1-0.17-1.41c-0.15-0.15-0.4-0.2-0.76-0.17
					c-3.72,0.31-6.84,0.06-9.27-0.75c-5.94-1.97-9.12-7.66-11-11.77c-2.25-4.94-4.02-14.97-4.1-15.66
					c-0.08-0.65-0.35-5.68-0.36-8.61c-0.02-5.34,0.03-10.57,0.87-15.73c0.83-5.13,2.44-12.59,6.83-18.21
					c1.97-2.52,4.34-4.55,6.84-5.86c1.5-0.78,2.98-1.29,4.41-1.52c0.16-0.03,0.33-0.06,0.5-0.09c0.84-0.17,1.89-0.37,2.73,0.27
					c0.27,0.21,0.38,0.55,0.28,0.88c-0.11,0.37-0.45,0.64-0.82,0.66c-14.09,0.86-17.9,18.38-18.92,28.75
					c-0.51,5.16-0.51,10.66,0,17.31c0.39,5.18,1.18,9.37,2.48,13.21c1.63,4.81,4.11,10.67,8.86,13.29c1.9,1.05,4.22,1.61,6.87,1.66
					c2.78,0.06,6.01-0.06,8.91-1.32c5.11-2.23,7.48-7.59,9.11-12.54c1.77-5.35,2.61-11.52,2.56-18.85
					c-0.1-13.75-4.12-26.37-11.33-35.55c-0.19-0.24-0.25-0.54-0.18-0.82c0.08-0.27,0.28-0.48,0.56-0.59c0.74-0.27,1.09,0,1.5,0.41
					c0.54,0.54,1.01,1.18,1.47,1.79l0.25,0.34c1.14,1.52,2.18,3.22,3.2,5.2c1.97,3.84,3.49,7.65,4.5,11.32l0,0
					c1.67,6.05,2.45,12.72,2.39,20.38c-0.11,8.68-1.74,16.18-4.83,22.3c-1.79,3.54-3.74,5.93-6.13,7.51
					c-0.88,0.58-1.79,0.92-2.67,1.25c-0.44,0.17-0.89,0.34-1.33,0.54c-0.27,0.12-0.66,0.97-0.94,4.31
					c-0.03,0.35-0.05,0.63-0.08,0.79l-0.06,0.35c-0.17,1.04-0.18,1.41,0.44,1.72c0.19,0.1,0.44,0.16,0.7,0.23
					c0.42,0.11,0.9,0.24,1.28,0.55c0.34,0.28,0.54,0.67,0.56,1.08c0.01,0.39-0.14,0.76-0.44,1.04
					C45.42,179.17,44.93,179.36,44.38,179.36z M40.39,168.53c0.53,0,0.96,0.16,1.27,0.48c0.64,0.66,0.51,1.72,0.46,2.17l-0.34,2.98
					c-0.02,0.17-0.04,0.34-0.07,0.51c-0.07,0.5-0.15,1.01-0.05,1.45c0.16,0.74,1.17,1.84,2.22,2.17c0.52,0.16,0.94,0.09,1.25-0.21
					c0.09-0.08,0.13-0.18,0.13-0.28c0-0.12-0.08-0.24-0.19-0.34c-0.21-0.17-0.55-0.26-0.9-0.35c-0.3-0.08-0.61-0.16-0.89-0.3
					c-1.33-0.67-1.14-1.84-0.98-2.78l0.05-0.33c0.02-0.15,0.04-0.4,0.07-0.73c0.25-2.93,0.58-4.71,1.53-5.14
					c0.46-0.21,0.93-0.38,1.39-0.56c0.87-0.33,1.69-0.64,2.47-1.15c2.24-1.48,4.08-3.74,5.79-7.12c3.03-5.98,4.62-13.33,4.73-21.86
					c0.06-7.56-0.7-14.14-2.35-20.1c-1-3.6-2.48-7.35-4.43-11.13c-0.99-1.93-2.01-3.58-3.11-5.06l-0.25-0.34
					c-0.43-0.58-0.88-1.19-1.37-1.68c-0.07-0.07-0.21-0.21-0.26-0.23c0,0-0.01,0-0.05,0.01c7.3,9.35,11.36,22.14,11.46,36.06
					c0.05,7.44-0.8,13.71-2.61,19.17c-1.71,5.16-4.19,10.75-9.66,13.14c-3.08,1.34-6.45,1.46-9.33,1.4
					c-2.82-0.06-5.29-0.66-7.34-1.79c-5.05-2.78-7.64-8.86-9.33-13.84c-1.33-3.92-2.13-8.19-2.53-13.46
					c-0.51-6.71-0.51-12.27,0.01-17.48c1.04-10.56,4.94-28.31,19.33-29.61c-0.41-0.07-0.89,0.03-1.4,0.13
					c-0.18,0.04-0.36,0.07-0.54,0.1c-1.32,0.21-2.7,0.68-4.1,1.42c-2.37,1.24-4.62,3.17-6.51,5.58c-4.25,5.44-5.82,12.74-6.63,17.75
					c-0.82,5.09-0.87,10.27-0.85,15.57c0.01,2.84,0.28,7.88,0.35,8.5c0.08,0.68,1.82,10.53,4.02,15.37
					c1.8,3.94,4.83,9.39,10.4,11.24c2.31,0.77,5.29,1,8.87,0.71C40.2,168.53,40.3,168.53,40.39,168.53z"/>
			</g>
		</g>
		<g>
			<g>
				<path d="M28,126.99c-2.58-0.29-4.41-1.97-4.69-4.31c-0.13-1.13-0.03-1.19,1.09-1.27c2.66-0.18,5.3,0.09,7.94,0.39
					c1.1,0.12,1.25,0.35,1.06,1.44C32.96,125.83,30.83,127.31,28,126.99z"/>
			</g>
			<g>
				<g>
					<path class="st6" d="M28,126.99c-2.58-0.29-4.41-1.97-4.69-4.31c-0.13-1.13-0.03-1.19,1.09-1.27c2.66-0.18,5.3,0.09,7.94,0.39
						c1.1,0.12,1.25,0.35,1.06,1.44C32.96,125.83,30.83,127.31,28,126.99z"/>
				</g>
			</g>
		</g>
		<g>
			<g>
				<path class="st5" d="M29.8,122.61c0.5,0.05,1,0.13,1.5,0.16c0.5,0.02,0.6,0.27,0.49,0.7c-0.24,0.96-0.8,1.64-1.72,2.01
					c-1.84,0.73-4.23-0.19-4.82-1.87c-0.36-1.02-0.25-1.25,0.8-1.23C27.3,122.4,29.8,122.61,29.8,122.61z"/>
			</g>
		</g>
		<g>
			<g>
				<g>
					<path class="st0" d="M49.51,114.48c0.59,1.59,0.89,4.33,1.52,6.23c0.9,2.71,1.78,4.58,2.45,4.54c0.63-0.04,0.19-2.44-0.82-5.13
						c-0.81-2.15-1.83-4.31-2.34-5.95c-0.5-1.64-0.78-2.65-1.19-3.61c-0.84-1.99-1.66-2.97-1.83-2.9c-0.17,0.06-0.47,1.27,0.23,3.26
						C47.9,111.93,48.92,112.9,49.51,114.48z"/>
				</g>
			</g>
		</g>
		<g>
			<g>
				<g>
					<path class="st0" d="M40.14,98.34c0.79-0.13,1.5,0.34,1.88,0.96c0.24,0.68,0.38,1.33,1.02,1.76c1.12,0.91,1.73,2.18,1.51,3.66
						c-0.01,0.04-0.05,0.07-0.09,0.06c-0.66-0.41-1.07-0.97-1.41-1.51c-0.54-0.82-0.77-1.88-1.23-2.52
						c-0.46-0.64-1.16-1.1-1.73-2.29C40.07,98.42,40.08,98.35,40.14,98.34L40.14,98.34z"/>
				</g>
			</g>
		</g>
		<g>
			<g>
				<path d="M22.33,119c-1.18,0.37-1.68,0.2-1.96-0.68c-0.28-0.85,0.28-1.74,1.27-2.03c1.01-0.3,1.86,0.08,2.12,0.94
					C24.02,118.06,23.57,118.61,22.33,119z"/>
			</g>
		</g>
		<g>
			<g>
				<path d="M35.47,119.96c-1.19-0.34-1.51-0.75-1.27-1.64c0.24-0.87,1.19-1.3,2.18-1c1.01,0.31,1.51,1.09,1.26,1.95
					C37.39,120.1,36.72,120.32,35.47,119.96z"/>
			</g>
		</g>
		<g>
			<g>
				<g>
					<path class="st7" d="M4.7,131.74c-0.09,0.55,0.08,2.41,0.6,2.57s3.67,0.57,4.15-0.08c0.47-0.65,0.65-2.73,0.65-2.52
						C8.81,132.94,4.79,131.19,4.7,131.74z"/>
				</g>
			</g>
		</g>
		<g>
			<g>
				<g>
					<path class="st8" d="M8.3,131.85c0.99,0.02,1.85-0.53,1.79-0.14c-0.06,0.39-0.76,1.04-1.24,1.2c-1.51,0.44-4.16-0.65-4.16-1.17
						C4.7,131.21,7.32,131.83,8.3,131.85z"/>
				</g>
			</g>
		</g>
		<g>
			<g>
				<g>
					<path class="st512" d="M57.08,148.57c-6.71,0-12.37-4.87-12.37-10.63s5.75-10.63,12.56-10.63c0.96,0,1.75,0.79,1.75,1.75
						s-0.79,1.75-1.75,1.75c-4.83,0-9.06,3.33-9.06,7.13s4.15,7.13,8.87,7.13c0.96,0,1.75,0.79,1.75,1.75S58.04,148.57,57.08,148.57
						z"/>
				</g>
				<g>
					<path d="M57.26,128.06c0.55,0,1,0.45,1,1s-0.45,1-1,1c-5.23,0-9.81,3.68-9.81,7.88c0,4.2,4.5,7.88,9.62,7.88c0.55,0,1,0.45,1,1
						s-0.45,1-1,1c-6.3,0-11.62-4.53-11.62-9.88C45.45,132.58,50.86,128.06,57.26,128.06 M57.26,126.56
						c-7.22,0-13.31,5.21-13.31,11.38s6.01,11.38,13.12,11.38c1.38,0,2.5-1.12,2.5-2.5s-1.12-2.5-2.5-2.5
						c-4.25,0-8.12-3.04-8.12-6.38s3.96-6.38,8.31-6.38c1.38,0,2.5-1.12,2.5-2.5C59.76,127.68,58.64,126.56,57.26,126.56
						L57.26,126.56z"/>
				</g>
			</g>
		</g>
		<g>
			<g>
				<path d="M50.27,153.38c3.37-4.32,1.45-14.5,1.33-14.97c-0.1-0.4-0.3-1.41-1.12-1.25c-0.82,0.16-0.64,1.19-0.47,2.32
					c0.16,1.12,1.72,10.72-1.37,13.07c-0.45,0.17-1.25,0.66-1.96-0.1c-0.28-0.3-0.76-0.32-1.06-0.04s-0.32,0.76-0.04,1.06
					c0.53,0.57,1.12,0.81,1.66,0.88c0.01,0.04,0.01,0.08,0.03,0.12c0,0,0.23,0.49,0.04,0.91c-0.2,0.45-0.8,0.71-1.27,0.84
					c-0.4,0.11-0.63,0.53-0.52,0.92c0.09,0.33,0.39,0.55,0.72,0.55c0.07,0,0.13-0.01,0.2-0.03c0.1-0.03,0.18-0.07,0.28-0.1
					c0.14,0.19,0.35,0.31,0.6,0.31c0.03,0,0.07,0,0.1-0.01c1.18-0.15,2.54-0.99,2.9-2.23S49.98,153.95,50.27,153.38z"/>
				<path d="M47.33,158.37c-0.26,0-0.51-0.08-0.72-0.24c-0.01,0-0.01,0-0.02,0.01c-0.63,0.18-1.36-0.22-1.54-0.87
					c-0.19-0.67,0.2-1.36,0.87-1.54c0.5-0.14,0.86-0.35,0.95-0.56c0.05-0.12,0.03-0.28,0-0.39c-0.62-0.14-1.18-0.47-1.65-0.98
					c-0.23-0.24-0.34-0.56-0.33-0.9s0.15-0.64,0.4-0.87c0.25-0.23,0.57-0.34,0.9-0.33c0.33,0.01,0.64,0.16,0.87,0.4
					c0.36,0.39,0.7,0.28,1.22,0.06l0.12-0.05c1.7-1.37,2.12-5.88,1.15-12.41l-0.04-0.28c-0.16-1.12-0.37-2.52,0.89-2.76
					c1.23-0.24,1.57,1.11,1.68,1.55c0.04,0.17,2.18,10.78-1.36,15.42c-0.02,0.06,0,0.15,0.07,0.37c0.11,0.37,0.28,0.94,0.03,1.77
					c-0.43,1.47-1.99,2.41-3.31,2.58L47.33,158.37z M46.92,156.96l0.22,0.3c0.02,0.03,0.09,0.11,0.19,0.11
					c1.01-0.13,2.21-0.83,2.52-1.87c0.16-0.55,0.06-0.89-0.03-1.21c-0.09-0.31-0.21-0.7,0.02-1.13l0.05-0.08
					c3.03-3.88,1.56-13.26,1.24-14.54c-0.22-0.88-0.39-0.91-0.54-0.88c-0.27,0.05-0.25,0.57-0.09,1.64l0.04,0.27
					c0.61,4.09,1.21,11.26-1.58,13.38l-0.28,0.14c-0.48,0.21-1.48,0.64-2.35-0.29c-0.06-0.07-0.13-0.08-0.17-0.08
					c-0.09,0-0.13,0.02-0.18,0.07c-0.07,0.06-0.08,0.14-0.08,0.17c0,0.04,0.01,0.11,0.07,0.18c0.39,0.42,0.84,0.66,1.36,0.73
					l0.31,0.04l0.12,0.4c0.04,0.09,0.29,0.7,0.03,1.28c-0.22,0.51-0.76,0.88-1.6,1.12c-0.13,0.04-0.21,0.18-0.17,0.31
					c0.03,0.11,0.13,0.18,0.24,0.18c0.11-0.02,0.15-0.04,0.18-0.05L46.92,156.96z"/>
			</g>
		</g>
		<g>
			<path class="st4" d="M29.8,128.41c0,0.52-0.86,0.94-1.91,0.94c-1.06,0-1.91-0.42-1.91-0.94s0.86-0.43,1.91-0.43
				C28.94,127.98,29.8,127.89,29.8,128.41z"/>
		</g>
	</g>
	<g>
		<g>
			<g>
				<path class="st0" d="M20.1,107.84c0.14-1.64-0.04-3.37-0.88-4.79c-0.38-0.65-0.88-1.21-1.41-1.75c-0.63-0.65-1.3-1.26-2-1.83
					c-0.48,0.98-0.84,2.02-1.06,3.09c-0.05,0.25-0.1,0.5-0.09,0.75c0.01,0.4,0.16,0.78,0.35,1.14c0.95,1.83,2.88,3.02,4.91,3.42"/>
			</g>
		</g>
		<g>
			<g>
				<g>
					<path class="st0" d="M18.5,108.24c-0.91-0.95-2.01-1.72-3.23-2.22c-0.67-0.28-1.42-0.48-2.13-0.3
						c-0.66,0.17-1.19,0.64-1.79,0.98c-1.46,0.84-3.37,0.81-4.8-0.06c0.92,1.29,1.96,2.5,3.12,3.58c0.37,0.35,0.76,0.69,1.24,0.88
						c0.39,0.16,0.82,0.2,1.24,0.21c1.88,0.07,3.77-0.32,5.48-1.12c0.44-0.21,0.89-0.46,1.11-0.9c0.22-0.43,0.07-1.08-0.4-1.21"/>
				</g>
			</g>
			<g>
				<g>
					<g>
						<path d="M20.72,107.87c0.13-1.65-0.03-3.38-0.81-4.86c-0.85-1.62-2.36-2.91-3.75-4.06c-0.24-0.2-0.72-0.1-0.86,0.18
							c-0.52,1.07-0.93,2.19-1.16,3.36c-0.11,0.57-0.12,1.11,0.08,1.66c0.13,0.37,0.32,0.7,0.52,1.03
							c-0.63-0.17-1.27-0.23-1.91-0.02c-0.99,0.32-1.71,1.12-2.73,1.38c-1.09,0.28-2.24,0.13-3.21-0.43
							c-0.64-0.37-1.2,0.38-0.8,0.94c1,1.4,2.14,2.74,3.44,3.88c1.29,1.12,2.9,1.11,4.52,0.92c1.48-0.17,3.16-0.59,4.42-1.42
							c0.71-0.47,1.1-1.35,0.88-2.07c0.12,0.03,0.25,0.07,0.37,0.09c0.12,0.02,0.23,0.01,0.34-0.01
							C20.37,108.44,20.68,108.25,20.72,107.87z M16.05,100.49c0.45,0.39,0.88,0.8,1.3,1.23c0.55,0.56,1.08,1.16,1.45,1.86
							c0.57,1.09,0.73,2.32,0.7,3.54c-1.35-0.38-2.59-1.1-3.47-2.22c-0.5-0.63-0.85-1.34-0.69-2.16
							C15.49,101.98,15.75,101.22,16.05,100.49z M17.5,109.56c-0.5,0.26-1.04,0.46-1.58,0.63c-1.12,0.34-2.28,0.53-3.44,0.51
							c-0.61-0.01-1.2-0.04-1.72-0.38c-0.51-0.33-0.94-0.8-1.36-1.24c-0.38-0.39-0.75-0.8-1.1-1.22c1.26,0.16,2.55-0.1,3.66-0.81
							c0.42-0.27,0.83-0.61,1.32-0.73c0.54-0.14,1.11,0.02,1.62,0.22c1.19,0.45,2.26,1.21,3.14,2.12c0.07,0.07,0.14,0.11,0.21,0.14
							C18.29,109.05,17.6,109.51,17.5,109.56z"/>
						<path d="M12.63,112.44c-1.21,0-2.41-0.25-3.43-1.14c-1.22-1.06-2.37-2.36-3.52-3.96c-0.33-0.46-0.3-1.07,0.07-1.47
							c0.35-0.39,0.91-0.46,1.38-0.19c0.86,0.5,1.87,0.63,2.83,0.38c0.46-0.12,0.87-0.38,1.3-0.65c0.43-0.27,0.87-0.55,1.4-0.72
							c0.36-0.12,0.74-0.17,1.14-0.15c-0.03-0.07-0.06-0.14-0.08-0.21c-0.21-0.58-0.24-1.19-0.1-1.92c0.22-1.13,0.61-2.27,1.2-3.49
							c0.13-0.27,0.39-0.47,0.73-0.54c0.33-0.07,0.67,0,0.9,0.19c1.55,1.28,3.01,2.56,3.88,4.21c0.74,1.41,1.03,3.14,0.87,5.13
							c-0.05,0.58-0.5,1-1.08,1.03c-0.08,0.02-0.15,0.02-0.22,0.03c-0.06,0.72-0.49,1.44-1.16,1.88c-1.47,0.96-3.33,1.34-4.63,1.49
							C13.62,112.4,13.13,112.44,12.63,112.44z M6.55,106.51c-0.03,0-0.04,0.02-0.05,0.03c-0.01,0.01-0.08,0.1,0,0.22
							c1.1,1.54,2.2,2.78,3.36,3.79c1.08,0.94,2.43,1,4.14,0.8c1.69-0.19,3.18-0.67,4.2-1.34c0.53-0.35,0.83-1.01,0.68-1.5
							l-0.26-0.85l0.97,0.25c0.08,0.02,0.16,0.04,0.24,0.06c0.04,0.01,0.08,0,0.13-0.01l0.12-0.01l0,0c0.14,0,0.14-0.08,0.14-0.11v0
							c0.15-1.8-0.11-3.35-0.76-4.59c-0.78-1.49-2.16-2.7-3.63-3.91c-0.01,0.01-0.08,0.02-0.11,0.04c-0.53,1.11-0.89,2.17-1.1,3.21
							c-0.11,0.55-0.09,0.98,0.06,1.4c0.1,0.28,0.25,0.57,0.47,0.93l0.7,1.09l-1.25-0.34c-0.62-0.17-1.15-0.18-1.62-0.03
							c-0.41,0.13-0.78,0.37-1.17,0.62c-0.48,0.3-0.97,0.62-1.58,0.77c-1.23,0.32-2.5,0.15-3.59-0.48
							C6.6,106.52,6.57,106.51,6.55,106.51z M12.61,111.2c-0.04,0-0.09,0-0.13,0c-0.66-0.01-1.35-0.05-1.98-0.46
							c-0.5-0.32-0.9-0.74-1.3-1.15l-0.15-0.16c-0.39-0.4-0.76-0.82-1.12-1.25l-0.83-0.99l1.28,0.17c1.16,0.15,2.34-0.11,3.32-0.74
							l0.26-0.17c0.35-0.23,0.74-0.5,1.2-0.62c0.69-0.18,1.36,0.02,1.92,0.23c1.19,0.45,2.34,1.23,3.32,2.24l0.26,0.11l0.09,0.32
							c0.09,0.69-1.01,1.27-1.02,1.27l0,0c-0.5,0.25-1.04,0.47-1.66,0.66C14.92,111.02,13.76,111.2,12.61,111.2z M9.44,108.39
							c0.11,0.12,0.21,0.23,0.32,0.34l0.16,0.16c0.35,0.37,0.72,0.75,1.12,1c0.41,0.27,0.9,0.29,1.45,0.3
							c1.11,0.02,2.19-0.15,3.29-0.49c0.55-0.17,1.05-0.37,1.49-0.59c0.07-0.04,0.2-0.13,0.31-0.22c-0.86-0.85-1.84-1.51-2.86-1.89
							c-0.42-0.16-0.9-0.31-1.32-0.2c-0.29,0.08-0.58,0.27-0.89,0.48l-0.28,0.19C11.39,108.01,10.43,108.32,9.44,108.39z
							 M19.99,107.78l-0.62-0.17c-1.55-0.44-2.84-1.26-3.73-2.39c-0.44-0.57-1.01-1.45-0.79-2.56c0.14-0.72,0.38-1.49,0.74-2.35
							l0.27-0.65l0.53,0.46c0.51,0.45,0.94,0.86,1.33,1.25c0.56,0.57,1.13,1.21,1.54,1.98c0.55,1.04,0.79,2.28,0.76,3.79
							L19.99,107.78z M16.25,101.35c-0.19,0.53-0.33,1.02-0.42,1.49c-0.11,0.55,0.07,1.09,0.59,1.75c0.63,0.8,1.51,1.43,2.57,1.84
							c-0.04-1.03-0.25-1.89-0.64-2.62c-0.34-0.66-0.86-1.23-1.37-1.74C16.75,101.82,16.51,101.59,16.25,101.35z"/>
					</g>
				</g>
			</g>
		</g>
	</g>
	<g>
		<g>
			<g>
				<path class="st0" d="M54.29,112.84c0.17-2.06-8.57-4.66-17.68-5.45c-9.11-0.78-17.85,0.25-18.02,2.3l1.36-4.75
					c0.17-2.06,7.69-3.09,16.8-2.3c9.11,0.78,16.35,3.09,16.18,5.14L54.29,112.84z"/>
			</g>
		</g>
		<g>
			<g>
				<g>
					<path d="M54.89,112.87c0-0.01,0.01-0.02,0.01-0.04c0-0.3-0.07-0.57-0.2-0.82c-0.22-0.82-0.44-1.64-0.66-2.47
						c-0.23-0.86-0.35-1.82-0.65-2.51c-0.42-0.97-1.54-1.54-2.43-1.96c-1.68-0.79-3.49-1.29-5.28-1.71
						c-5.01-1.16-10.23-1.66-15.37-1.62c-2.13,0.02-4.27,0.14-6.38,0.51c-1.24,0.22-2.65,0.49-3.7,1.26
						c-0.79,0.58-0.9,1.38-1.16,2.28c-0.32,1.11-0.64,2.23-0.96,3.34c-0.05,0.12-0.09,0.25-0.11,0.39
						c-0.12,0.77,0.94,1.11,1.17,0.33c0.11-0.69,1.33-0.97,1.85-1.13c1.4-0.42,2.86-0.61,4.3-0.75c3.75-0.36,7.54-0.29,11.29,0.03
						c3.8,0.33,7.61,0.94,11.29,1.97c1.35,0.38,2.72,0.8,3.99,1.42c0.38,0.18,1.37,0.6,1.68,1.12c0.04,0.16,0.09,0.32,0.13,0.48
						c0,0.01,0.01,0.02,0.02,0.03c0.02,0.06,0.04,0.11,0.08,0.15c0.02,0.03,0.03,0.05,0.06,0.08c0.02,0.02,0.04,0.03,0.06,0.05
						c0.05,0.04,0.09,0.07,0.15,0.08c0,0,0,0,0,0c0.07,0.02,0.13,0.04,0.2,0.03c0.03,0,0.05-0.01,0.08-0.01
						c0.04-0.01,0.08-0.01,0.11-0.02c0.06-0.02,0.12-0.05,0.17-0.08c0.01,0,0.02-0.01,0.02-0.01c0.04-0.03,0.08-0.07,0.11-0.12
						c0.02-0.02,0.04-0.04,0.05-0.07c0.02-0.03,0.02-0.06,0.04-0.09C54.88,112.99,54.89,112.93,54.89,112.87z M49.91,109.3
						c-4.13-1.38-8.51-2.09-12.83-2.49c-4.41-0.41-8.93-0.5-13.33,0.11c-0.88,0.12-2.63,0.29-3.97,0.84
						c0.06-0.21,0.12-0.42,0.18-0.63c0.19-0.67,0.29-1.69,0.66-2.28c0.51-0.83,2.1-1.07,2.94-1.25c1.88-0.4,3.82-0.53,5.74-0.58
						c4.86-0.14,9.79,0.28,14.57,1.23c1.79,0.36,3.57,0.79,5.29,1.42c0.89,0.33,2.6,0.84,3.09,1.79c0.33,0.63,0.42,1.62,0.6,2.31
						c0.07,0.25,0.13,0.5,0.2,0.75C51.95,109.92,50.65,109.54,49.91,109.3z"/>
					<path d="M54.25,113.93c-0.11,0-0.23-0.02-0.35-0.06c-0.14-0.05-0.23-0.12-0.29-0.16l-0.11-0.09c-0.05-0.05-0.09-0.1-0.12-0.15
						c-0.05-0.07-0.09-0.15-0.12-0.23l-0.04-0.09l-0.11-0.42c-0.24-0.31-0.96-0.65-1.27-0.8l-0.17-0.08
						c-1.25-0.61-2.61-1.03-3.9-1.39c-3.39-0.95-7.15-1.61-11.2-1.96c-4.08-0.35-7.75-0.36-11.2-0.03
						c-1.28,0.12-2.78,0.31-4.21,0.73L21,109.26c-0.85,0.24-1.3,0.47-1.33,0.67c-0.18,0.65-0.7,0.97-1.27,0.84
						c-0.51-0.11-1-0.61-0.89-1.32c0.03-0.17,0.07-0.33,0.14-0.5l1.03-3.63c0.21-0.78,0.43-1.59,1.25-2.19
						c1.09-0.8,2.47-1.1,3.91-1.35c1.87-0.33,3.92-0.49,6.46-0.52c5.42-0.05,10.61,0.5,15.49,1.63c1.53,0.36,3.53,0.88,5.38,1.75
						c0.75,0.35,2.15,1.01,2.67,2.21c0.21,0.49,0.34,1.09,0.46,1.66c0.07,0.31,0.13,0.62,0.21,0.92l0.66,2.47
						c0.13,0.25,0.22,0.6,0.21,0.95l-0.01,0.12c-0.01,0.08-0.03,0.17-0.06,0.25l-0.06,0.15c-0.05,0.08-0.08,0.12-0.11,0.16
						c-0.04,0.05-0.11,0.13-0.21,0.2c-0.15,0.09-0.25,0.14-0.35,0.17l-0.33,0.05C54.26,113.93,54.26,113.93,54.25,113.93z
						 M54.17,112.81l0.12,0.14l0.12-0.08l-0.02-0.03l0.01-0.07c-0.01-0.16-0.05-0.34-0.15-0.53l-0.7-2.56
						c-0.08-0.32-0.15-0.65-0.22-0.97c-0.12-0.55-0.23-1.07-0.4-1.47c-0.37-0.86-1.55-1.41-2.18-1.71c-1.77-0.83-3.7-1.33-5.19-1.68
						c-4.8-1.11-9.93-1.66-15.25-1.6c-2.48,0.02-4.48,0.18-6.29,0.5c-1.31,0.23-2.57,0.49-3.49,1.17c-0.54,0.4-0.69,0.95-0.88,1.65
						l-1.06,3.7c-0.06,0.15-0.08,0.24-0.1,0.33c-0.02,0.16,0.09,0.19,0.12,0.19c0.03,0.01,0.05,0.01,0.08-0.08
						c0.13-0.88,1.32-1.22,2.03-1.42l0.16-0.05c1.51-0.45,3.07-0.64,4.4-0.77c3.51-0.34,7.24-0.33,11.38,0.03
						c4.11,0.35,7.94,1.02,11.38,1.99c1.33,0.37,2.75,0.81,4.07,1.45l0.15,0.07c0.67,0.31,1.41,0.69,1.73,1.23l0.06,0.13
						L54.17,112.81z M53.83,111.51l-1.03-0.56c-0.88-0.48-1.92-0.82-2.68-1.06l-0.37-0.12c-3.58-1.2-7.74-2-12.72-2.46
						c-5-0.46-9.32-0.43-13.22,0.11l-0.4,0.05c-0.93,0.12-2.35,0.3-3.45,0.75l-0.95,0.39l0.47-1.63c0.06-0.2,0.11-0.44,0.16-0.68
						c0.12-0.58,0.26-1.25,0.55-1.73c0.58-0.93,2.02-1.22,2.98-1.41l0.28-0.06c2.04-0.43,4.09-0.54,5.83-0.59
						c4.91-0.14,9.86,0.28,14.68,1.24c2.14,0.43,3.85,0.88,5.36,1.44l0.29,0.11c1.01,0.36,2.54,0.9,3.06,1.93
						c0.25,0.49,0.37,1.09,0.48,1.68c0.05,0.26,0.1,0.51,0.16,0.73L53.83,111.51z M50.07,108.82l0.37,0.12
						c0.53,0.17,1.19,0.38,1.85,0.66c-0.04-0.16-0.07-0.33-0.1-0.51c-0.1-0.52-0.21-1.05-0.39-1.41c-0.35-0.68-1.7-1.15-2.51-1.44
						l-0.3-0.11c-1.46-0.54-3.12-0.98-5.21-1.4c-4.75-0.95-9.61-1.36-14.46-1.22c-1.69,0.05-3.69,0.15-5.65,0.57l-0.29,0.06
						c-0.74,0.15-1.98,0.4-2.33,0.96c-0.2,0.33-0.32,0.9-0.43,1.4c-0.03,0.16-0.07,0.33-0.1,0.48c0.99-0.28,2.03-0.41,2.78-0.51
						l0.39-0.05c3.97-0.55,8.37-0.58,13.44-0.11C42.18,106.78,46.41,107.6,50.07,108.82L50.07,108.82z"/>
				</g>
			</g>
			<g>
				<g>
					<g>
						<path class="st6" d="M54.89,112.87c0-0.01,0.01-0.02,0.01-0.04c0-0.3-0.07-0.57-0.2-0.82c-0.22-0.82-0.44-1.64-0.66-2.47
							c-0.23-0.86-0.35-1.82-0.65-2.51c-0.42-0.97-1.54-1.54-2.43-1.96c-1.68-0.79-3.49-1.29-5.28-1.71
							c-5.01-1.16-10.23-1.66-15.37-1.62c-2.13,0.02-4.27,0.14-6.38,0.51c-1.24,0.22-2.65,0.49-3.7,1.26
							c-0.79,0.58-0.9,1.38-1.16,2.28c-0.32,1.11-0.64,2.23-0.96,3.34c-0.05,0.12-0.09,0.25-0.11,0.39
							c-0.12,0.77,0.94,1.11,1.17,0.33c0.11-0.69,1.33-0.97,1.85-1.13c1.4-0.42,2.86-0.61,4.3-0.75c3.75-0.36,7.54-0.29,11.29,0.03
							c3.8,0.33,7.61,0.94,11.29,1.97c1.35,0.38,2.72,0.8,3.99,1.42c0.38,0.18,1.37,0.6,1.68,1.12c0.04,0.16,0.09,0.32,0.13,0.48
							c0,0.01,0.01,0.02,0.02,0.03c0.02,0.06,0.04,0.11,0.08,0.15c0.02,0.03,0.03,0.05,0.06,0.08c0.02,0.02,0.04,0.03,0.06,0.05
							c0.05,0.04,0.09,0.07,0.15,0.08c0,0,0,0,0,0c0.07,0.02,0.13,0.04,0.2,0.03c0.03,0,0.05-0.01,0.08-0.01
							c0.04-0.01,0.08-0.01,0.11-0.02c0.06-0.02,0.12-0.05,0.17-0.08c0.01,0,0.02-0.01,0.02-0.01c0.04-0.03,0.08-0.07,0.11-0.12
							c0.02-0.02,0.04-0.04,0.05-0.07c0.02-0.03,0.02-0.06,0.04-0.09C54.88,112.99,54.89,112.93,54.89,112.87z M49.91,109.3
							c-4.13-1.38-8.51-2.09-12.83-2.49c-4.41-0.41-8.93-0.5-13.33,0.11c-0.88,0.12-2.63,0.29-3.97,0.84
							c0.06-0.21,0.12-0.42,0.18-0.63c0.19-0.67,0.29-1.69,0.66-2.28c0.51-0.83,2.1-1.07,2.94-1.25c1.88-0.4,3.82-0.53,5.74-0.58
							c4.86-0.14,9.79,0.28,14.57,1.23c1.79,0.36,3.57,0.79,5.29,1.42c0.89,0.33,2.6,0.84,3.09,1.79c0.33,0.63,0.42,1.62,0.6,2.31
							c0.07,0.25,0.13,0.5,0.2,0.75C51.95,109.92,50.65,109.54,49.91,109.3z"/>
					</g>
				</g>
			</g>
		</g>
	</g>
	<g>
		<g>
			<g>
				<path d="M26.99,164.75c-0.39,0.14-0.6,0.59-0.45,0.99c0.02,0.05,2.19,9.2,1.91,10.11s-1.79-0.33-2.9-0.11
					c-1.11,0.22-1.22,0.98-1.09,1.54c0.2,0.83,2.9,0.94,3.8,0.81c0.91-0.13,1.38-0.3,1.7-0.45c0.46-0.21,0.3-1.48-0.06-4.25
					s-1.43-7.27-1.52-7.5C28.24,165.5,27.39,164.6,26.99,164.75z"/>
				<path d="M27.41,178.63c-1.22,0-3.19-0.19-3.44-1.24c-0.12-0.5-0.05-0.98,0.19-1.35c0.26-0.4,0.69-0.67,1.29-0.79
					c0.6-0.12,1.23,0.08,1.78,0.25c0.27,0.08,0.66,0.22,0.79,0.18c0.13-0.83-1.69-8.81-1.95-9.81c-0.11-0.28-0.09-0.62,0.05-0.93
					c0.14-0.31,0.39-0.54,0.71-0.66c0.21-0.08,0.46-0.06,0.72,0.06c0.54,0.25,1.17,0.96,1.32,1.38c0.1,0.26,1.19,4.78,1.55,7.61
					c0.42,3.32,0.56,4.4-0.23,4.77c-0.33,0.15-0.85,0.35-1.84,0.49C28.19,178.6,27.85,178.63,27.41,178.63z M25.83,176.21
					c-0.07,0-0.13,0.01-0.19,0.02c-0.32,0.06-0.53,0.18-0.64,0.35c-0.12,0.19-0.09,0.45-0.06,0.58c0.21,0.35,2.22,0.58,3.25,0.44
					c0.86-0.12,1.29-0.28,1.56-0.41c0.1-0.24-0.1-1.81-0.33-3.64c-0.35-2.78-1.4-7.15-1.51-7.48c-0.08-0.21-0.57-0.72-0.8-0.81
					c-0.05,0.04-0.08,0.08-0.1,0.11c-0.02,0.04-0.04,0.12-0.01,0.21c0.03,0.08,2.27,9.31,1.92,10.43c-0.1,0.33-0.31,0.5-0.46,0.58
					c-0.45,0.23-0.98,0.06-1.54-0.12C26.56,176.34,26.16,176.21,25.83,176.21z M27.07,165.24L27.07,165.24L27.07,165.24
					C27.07,165.24,27.07,165.24,27.07,165.24z"/>
			</g>
		</g>
	</g>
</g>
</svg>
